<?xml version="1.0" standalone="no"?>
<!DOCTYPE svg PUBLIC "-//W3C//DTD SVG 1.1//EN" "http://www.w3.org/Graphics/SVG/1.1/DTD/svg11.dtd" >
<svg xmlns="http://www.w3.org/2000/svg">
<metadata></metadata>
<defs>
<font id="pf_dindisplay_pro_lightitalic" horiz-adv-x="1046" >
<font-face units-per-em="2048" ascent="1536" descent="-512" />
<missing-glyph horiz-adv-x="478" />
<glyph horiz-adv-x="2048" />
<glyph horiz-adv-x="2048" />
<glyph unicode="&#xd;" horiz-adv-x="2048" />
<glyph unicode=" "  horiz-adv-x="478" />
<glyph unicode="&#x09;" horiz-adv-x="478" />
<glyph unicode="&#xa0;" horiz-adv-x="478" />
<glyph unicode="!" horiz-adv-x="480" d="M66 74q0 40 32.5 81.5t92.5 41.5q43 0 65.5 -24.5t22.5 -53.5q0 -52 -35 -89.5t-92 -37.5q-41 0 -63.5 22.5t-22.5 59.5zM166 368l204 1128h151l-235 -1128h-120z" />
<glyph unicode="&#x22;" horiz-adv-x="593" d="M250 1106l74 390h117l-78 -390h-113zM484 1106l75 390h114l-76 -390h-113z" />
<glyph unicode="#" horiz-adv-x="1067" d="M28 468l21 108h216l115 351h-202l22 107h217l155 460h114l-153 -460h278l155 460h113l-150 -460h208l-21 -107h-224l-116 -351h211l-21 -108h-224l-157 -468h-119l156 468h-276l-153 -468h-122l157 468h-200zM383 576h275l116 351h-275z" />
<glyph unicode="$" d="M-30 152q2 4 16 19.5t29 34t28 33.5t17 21q78 -62 174.5 -97.5t206.5 -35.5q80 0 149.5 18.5t121 55.5t80.5 92.5t29 127.5q0 69 -24.5 113.5t-66.5 71t-95.5 44t-111.5 31.5q-62 15 -125 41.5t-114.5 68.5t-83.5 104t-32 152q0 99 36 175.5t101 131t151 87t184 41.5 l37 178h103l-38 -176q97 -5 187.5 -29.5t164.5 -75.5q-4 -5 -14.5 -22t-23.5 -36.5t-24.5 -37t-14.5 -23.5q-75 49 -164.5 70.5t-179.5 21.5q-56 0 -119.5 -17t-117 -52.5t-88 -92.5t-34.5 -134q0 -60 24.5 -100t65.5 -67t91.5 -44.5t99.5 -31.5q67 -19 136 -45t123.5 -67 t89.5 -103t35 -157q0 -101 -41 -182t-111 -137t-163.5 -88t-199.5 -38h4l-40 -205h-104l41 205q-116 6 -217 44t-178 112z" />
<glyph unicode="%" horiz-adv-x="1668" d="M152 819q0 13 1 26t5 25l70 373q10 54 30.5 100t57.5 80.5t90.5 53.5t129.5 19q66 0 117 -19t86 -52.5t53.5 -77.5t18.5 -91v-24t-5 -23l-66 -382q-19 -109 -100 -173.5t-210 -64.5q-53 0 -103 15.5t-88.5 44t-62.5 71.5t-24 99zM228 -37l1217 1570h118l-1221 -1570h-114 zM277 837q0 -39 15.5 -64.5t38 -43t50 -25t54.5 -7.5q62 0 118 34t71 118l64 362q2 10 3 18t1 16q0 70 -49.5 106t-113.5 36q-58 0 -111 -33.5t-69 -118.5l-68 -359q-2 -11 -3 -21t-1 -18zM976 224q0 12 1.5 25t3.5 26l73 372q11 53 31.5 100t55.5 80t89 52.5t129 19.5 q66 0 118 -19.5t87.5 -51.5t54 -75t18.5 -90q0 -25 -7 -50l-64 -383q-21 -109 -101 -172.5t-211 -63.5q-54 0 -103.5 15t-88 44t-62.5 72t-24 99zM1104 236q0 -36 14.5 -62t37 -41.5t51 -23.5t53.5 -8q28 0 59 8t57 25.5t46.5 46t26.5 71.5l63 361q2 11 3 19t1 20 q0 69 -48 103.5t-116 34.5q-57 0 -108.5 -34t-69.5 -118l-66 -359q-2 -10 -3 -20.5t-1 -22.5z" />
<glyph unicode="&#x26;" horiz-adv-x="1719" d="M236 954q0 162 64.5 301.5t177.5 242t266 160.5t331 58q158 0 279 -52.5t204 -141t124.5 -207.5t41.5 -250q0 -132 -34 -250t-93.5 -223.5t-141 -197t-177.5 -166.5q66 -78 138 -135.5t154 -92.5l-68 -105q-91 43 -177 112t-149 143q-121 -80 -258.5 -122.5t-261.5 -42.5 q-170 0 -270 80.5t-100 246.5q0 94 33.5 174t94 149t145 127.5t190.5 110.5q-39 75 -54.5 137.5t-15.5 111.5q0 74 26 137.5t71 112t109.5 76t142.5 27.5q119 0 188.5 -66.5t69.5 -163.5q0 -71 -28 -130t-78.5 -111t-118.5 -96t-147 -85q55 -121 135 -255.5t168 -257.5 q84 69 156 147.5t125 169.5t84 194.5t31 221.5q0 109 -30 210t-94.5 181t-168 127.5t-249.5 47.5q-162 0 -294 -49.5t-226.5 -136.5t-146 -205.5t-51.5 -256.5q0 -76 25 -148l-113 -31q-29 86 -29 172zM408 333q0 -123 77 -181t192 -58q99 0 211 34.5t226 107.5 q-94 125 -174 267t-140 269q-88 -43 -160 -89.5t-124 -99t-80 -114t-28 -136.5zM808 1135q0 -90 60 -206q56 27 109 57.5t93 66t64.5 77.5t24.5 91q0 62 -42 100t-108 38q-56 0 -93.5 -25t-61 -59t-35 -73t-11.5 -67z" />
<glyph unicode="'" horiz-adv-x="502" d="M331 1106l77 390h115l-78 -390h-114z" />
<glyph unicode="(" horiz-adv-x="584" d="M142 433q0 161 44 316.5t121.5 299t179.5 272t219 238.5l62 -45q-103 -116 -191.5 -246.5t-152 -271t-99 -291.5t-35.5 -305q0 -160 36.5 -314.5t108.5 -292.5l-76 -51q-101 146 -159 323.5t-58 367.5z" />
<glyph unicode=")" horiz-adv-x="584" d="M-105 -209q101 111 189 243t152.5 273.5t101 293.5t36.5 304q0 158 -36.5 313.5t-109.5 293.5l82 45q101 -146 156 -319t55 -358q0 -166 -45.5 -323t-124 -302.5t-182 -275t-218.5 -237.5z" />
<glyph unicode="*" horiz-adv-x="756" d="M213 1225l58 117l224 -103q2 21 7 56.5t10 74t9 74t8 58.5h118l-71 -263q21 8 57 22t76 29t76 29.5t58 22.5q2 -24 6.5 -59.5t6.5 -59.5l-267 -68l131 -201q-24 -16 -56 -37.5t-57 -36.5l-96 228q-14 -17 -40 -48.5t-52.5 -66t-52.5 -65.5t-39 -50l-87 76l209 201 q-19 4 -50 13.5t-66.5 21.5t-68 21.5t-51.5 13.5z" />
<glyph unicode="+" d="M78 564l21 109h406l80 411h107l-79 -411h404l-24 -109h-404l-80 -416h-107l80 416h-404z" />
<glyph unicode="," horiz-adv-x="483" d="M2 -183q52 35 86.5 76t49.5 97q-29 2 -52.5 19t-23.5 57q0 47 32.5 87t92.5 40q53 0 78 -31t25 -74q0 -53 -22.5 -105t-58 -97.5t-79.5 -79.5t-89 -54z" />
<glyph unicode="-" horiz-adv-x="819" d="M125 509l25 129h594l-26 -129h-593z" />
<glyph unicode="." horiz-adv-x="437" d="M47 71q0 46 32.5 87.5t92.5 41.5q43 0 66.5 -25t23.5 -58q0 -52 -37.5 -89.5t-91.5 -37.5q-43 0 -64.5 22.5t-21.5 58.5z" />
<glyph unicode="/" horiz-adv-x="653" d="M-99 -74l848 1627h111l-850 -1627h-109z" />
<glyph unicode="0" d="M71 346q0 54 13 118l133 637q37 177 155 286t325 109q78 0 148.5 -22.5t125.5 -66.5t87 -108t32 -150q0 -45 -8 -89l-128 -668q-36 -203 -165 -302.5t-325 -99.5q-78 0 -148.5 21.5t-125.5 65.5t-87 111.5t-32 157.5zM215 353q0 -64 23.5 -108.5t61.5 -71.5t84 -39.5 t92 -12.5q60 0 113.5 14.5t98.5 48t77.5 88.5t47.5 134l131 667q6 33 6 62q0 62 -24.5 105.5t-62.5 70.5t-84 38.5t-87 11.5q-127 0 -220.5 -72t-125.5 -231l-124 -637q-7 -39 -7 -68z" />
<glyph unicode="1" d="M406 1233l357 249h138l-286 -1482h-144l253 1307l-262 -180z" />
<glyph unicode="2" d="M0 0l28 148q17 97 66.5 178.5t119.5 152.5t154 130.5t172 108.5q80 45 152.5 94.5t129 103.5t89.5 112t33 121q0 57 -22.5 97t-59.5 66t-85 37.5t-100 11.5q-96 0 -184.5 -33t-157.5 -81q-11 25 -31 56t-31 54q80 55 193 96t235 41q74 0 144.5 -16.5t126.5 -55.5 t90 -100.5t34 -149.5t-36 -161t-94.5 -136.5t-133.5 -117t-153 -101.5q-69 -41 -149.5 -89t-153.5 -111.5t-130 -144.5t-76 -184h722l-22 -127h-870z" />
<glyph unicode="3" d="M-2 129q24 26 51 56t50 53q51 -49 130 -84t169 -35q176 0 276 95.5t100 259.5q0 107 -63.5 165t-158.5 58h-152l23 128h158q43 0 97.5 21.5t103.5 62.5t82 100.5t33 134.5q0 62 -24 104t-61.5 67t-82.5 35.5t-86 10.5q-89 0 -176 -35.5t-155 -84.5q-13 24 -37.5 56 t-38.5 55q93 62 197.5 102t233.5 40q77 0 146 -16.5t120.5 -55.5t81.5 -100.5t30 -147.5q0 -66 -20.5 -129.5t-59 -120t-91.5 -100.5t-117 -69q86 -31 125 -103.5t39 -165.5q0 -123 -42 -217.5t-114.5 -157t-168 -94.5t-202.5 -32q-136 0 -238 44.5t-158 99.5z" />
<glyph unicode="4" d="M13 234l26 127l716 1121h152l-710 -1117h500l88 454h146l-90 -454h131l-26 -131h-129l-43 -234h-148l45 234h-658z" />
<glyph unicode="5" d="M41 135l90 113q62 -62 146 -94.5t175 -32.5q55 0 110 12.5t102.5 45t80.5 85t49 132.5l37 201q4 21 6 40t2 36q0 84 -46 126t-128 42q-39 0 -86.5 -13t-98 -32.5t-98 -44t-85.5 -47.5l-127 53l140 725h798l-24 -134h-651l-98 -488q114 60 209.5 92.5t161.5 32.5 q139 0 212 -73t73 -200q0 -24 -3 -46.5t-7 -48.5l-41 -245q-37 -196 -161.5 -289t-333.5 -93q-137 0 -242.5 46t-161.5 99z" />
<glyph unicode="6" d="M80 322q0 46 8 86l134 700q34 180 160.5 284t329.5 104q137 0 230.5 -43t145.5 -103l-103 -113q-105 123 -284 122q-51 0 -105 -15t-101.5 -49.5t-84 -89t-51.5 -134.5l-56 -283q271 137 403 137q139 0 209 -73.5t70 -199.5q0 -24 -2 -47.5t-7 -50.5l-34 -176 q-37 -191 -158 -289.5t-332 -98.5q-76 0 -144 22.5t-118 64.5t-80 104t-30 141zM224 346q0 -59 21.5 -102.5t57 -70.5t78 -39.5t85.5 -12.5q131 0 218.5 67.5t117.5 217.5l25 132q9 36 10 75q0 88 -47.5 130t-129.5 42q-81 0 -180.5 -45t-204.5 -97l-45 -226q-6 -39 -6 -71z " />
<glyph unicode="7" d="M160 0l808 1350h-562l-45 -228h-137l69 360h860l-26 -132l-813 -1350h-154z" />
<glyph unicode="8" d="M60 331q0 75 23.5 143t64.5 123t97 95.5t123 64.5q-76 37 -115.5 109t-39.5 154q0 118 43 207t113 149t158 89t177 29q75 0 142.5 -21.5t119 -64.5t82.5 -106t31 -149q0 -136 -64.5 -242.5t-199.5 -155.5q45 -15 78.5 -44.5t54 -66.5t30 -79t9.5 -85q0 -125 -48.5 -217.5 t-125 -154t-172 -91.5t-192.5 -30q-81 0 -152 21.5t-123.5 65t-83 107.5t-30.5 150zM209 340q0 -103 65.5 -161t185.5 -58q76 0 142.5 24.5t117 68.5t81 106.5t30.5 137.5q0 103 -68 164.5t-187 61.5q-69 0 -134.5 -25t-117 -70t-83.5 -108.5t-32 -140.5zM359 1043 q0 -103 66.5 -163.5t169.5 -60.5q64 0 124.5 22.5t109.5 64.5t78 99.5t29 127.5q0 114 -70 172t-167 58q-57 0 -118.5 -19t-110.5 -59t-80 -100t-31 -142z" />
<glyph unicode="9" d="M56 135l106 110q55 -56 123 -87t160 -31q54 0 110 15.5t102.5 48.5t81.5 88.5t51 137.5l55 289q-262 -138 -398 -138q-137 0 -209 73t-72 200q0 24 2 47t6 50l33 172q35 178 161.5 282t326.5 104q78 0 147 -21.5t121 -62t83 -99.5t31 -135q0 -41 -8 -74l-140 -726 q-37 -195 -161.5 -291.5t-326.5 -96.5q-138 0 -232.5 43t-152.5 102zM314 882q0 -90 47 -132t129 -42t178.5 43t204.5 98l43 222q8 37 9 76q0 59 -21.5 100t-56 67t-77.5 37.5t-86 11.5q-125 0 -216.5 -66.5t-121.5 -217.5l-26 -125q-6 -38 -6 -72z" />
<glyph unicode=":" horiz-adv-x="483" d="M62 71q0 46 32.5 87.5t94.5 41.5q43 0 66.5 -25t23.5 -58q0 -52 -37 -89.5t-92 -37.5q-43 0 -65.5 22.5t-22.5 58.5zM193 742q0 46 33.5 88.5t93.5 42.5q43 0 67 -25t24 -58q0 -52 -39 -91t-93 -39q-43 0 -64.5 23t-21.5 59z" />
<glyph unicode=";" horiz-adv-x="483" d="M-6 -183q51 35 85.5 76t47.5 97q-30 6 -51.5 25.5t-21.5 58.5q0 47 37.5 83t91.5 36q51 0 73.5 -32t22.5 -75q0 -51 -22.5 -101.5t-57.5 -96.5t-79 -80t-90 -53zM191 742q0 21 9 43.5t24.5 42t39.5 31t54 11.5q43 0 66.5 -24.5t23.5 -57.5q0 -50 -38.5 -89t-92.5 -39 q-43 0 -64.5 23t-21.5 59z" />
<glyph unicode="&#x3c;" d="M86 568l21 103l947 413l-24 -127l-798 -344l667 -344l-21 -117z" />
<glyph unicode="=" d="M39 353l23 113h917l-22 -113h-918zM117 751l21 111h918l-22 -111h-917z" />
<glyph unicode="&#x3e;" d="M58 152l24 129l798 343l-665 346l23 114l790 -413l-22 -103z" />
<glyph unicode="?" horiz-adv-x="958" d="M245 1387q103 62 200 90.5t202 28.5q157 0 248.5 -84t91.5 -216q0 -109 -64.5 -202t-152.5 -181q-80 -75 -143 -154.5t-83 -173.5l-21 -119h-138l21 114q13 64 40.5 119.5t61.5 103.5t74 92t81 85q66 70 121 142t55 154q0 89 -58.5 140t-165.5 51q-82 0 -166 -29.5 t-152 -72.5zM301 71q0 43 31 84.5t91 41.5q43 0 65.5 -24.5t22.5 -55.5q0 -50 -37 -87.5t-89 -37.5q-41 0 -62.5 21.5t-21.5 57.5z" />
<glyph unicode="@" horiz-adv-x="1793" d="M148 615q0 196 70 365t197 292t301 193t385 70q162 0 289.5 -46t217 -128.5t135.5 -197t46 -247.5q0 -148 -36.5 -261t-96.5 -187t-139 -112t-163 -38q-34 0 -68 8.5t-64 26t-52.5 43t-30.5 62.5q-92 -50 -179 -82t-158 -32q-109 0 -170.5 58t-61.5 164q0 17 2 36.5 t7 40.5l49 268q56 300 331 300q47 0 112.5 -21.5t169.5 -83.5l37 94h94l-120 -624q-2 -10 -3.5 -19t-1.5 -17q0 -48 29 -84.5t103 -36.5q51 0 104.5 31.5t96.5 92.5t70 151.5t27 208.5q0 117 -40.5 214.5t-116 168.5t-183 110.5t-243.5 39.5q-180 0 -333.5 -63.5 t-264.5 -173t-173.5 -257.5t-62.5 -316q0 -125 34.5 -229t104 -178.5t175 -115.5t247.5 -41q66 0 138.5 12t154.5 45l25 -102q-90 -37 -175.5 -47.5t-159.5 -10.5q-154 0 -277 48.5t-207 134.5t-128 206t-44 267zM688 589q0 -135 137 -135q56 0 137 31.5t173 84.5l82 425 q-69 48 -141 79.5t-122 31.5q-172 0 -217 -214l-42 -236q-6 -36 -7 -67z" />
<glyph unicode="A" horiz-adv-x="1252" d="M-49 0l793 1482h159l228 -1482h-157l-47 344h-632l-184 -344h-160zM370 484h535l-51 394l-54 425h-6l-215 -417z" />
<glyph unicode="B" horiz-adv-x="1255" d="M37 0l285 1482h587q97 0 166 -27t113.5 -73t64.5 -108.5t20 -132.5q0 -53 -15 -106.5t-47.5 -103t-85 -91.5t-130.5 -75q97 -43 131.5 -124.5t34.5 -172.5q0 -94 -33.5 -178.5t-95.5 -149t-151 -102.5t-202 -38h-642zM213 135h434q71 0 136.5 20.5t115 61.5t78.5 101 t29 140q0 116 -69 177.5t-174 61.5h-441zM351 837h437q59 0 117.5 20.5t104.5 58.5t74 92.5t28 118.5q0 114 -71 165.5t-175 51.5h-417z" />
<glyph unicode="C" horiz-adv-x="1117" d="M117 398q0 26 2 55t8 58l99 504q21 105 62 193.5t107.5 153t162.5 99.5t227 35q110 0 215.5 -33t183.5 -100l-96 -116q-56 50 -143 82t-169 32q-174 0 -271 -96.5t-135 -285.5l-93 -456q-10 -60 -10 -104q0 -78 25.5 -133.5t70.5 -91.5t105.5 -53.5t128.5 -17.5 q91 0 187 29t175 82l63 -123q-35 -26 -83.5 -48t-105.5 -39.5t-120.5 -28t-127.5 -10.5q-103 0 -189 28t-148.5 80.5t-96.5 129t-34 175.5z" />
<glyph unicode="D" horiz-adv-x="1274" d="M37 0l287 1482h532q195 0 308.5 -101t113.5 -277q0 -27 -4 -52.5t-8 -53.5l-92 -516q-21 -111 -59 -201t-100.5 -152.5t-151.5 -95.5t-211 -33h-615zM213 133h430q64 0 124 18.5t112 62.5t89.5 115t57.5 178l86 463q4 29 6 53l4 48q0 73 -23.5 126t-64.5 85t-95.5 47 t-119.5 15h-370z" />
<glyph unicode="E" horiz-adv-x="1171" d="M41 0l288 1482h949l-26 -138h-798l-103 -529h703l-26 -138h-706l-105 -542h865l-26 -135h-1015z" />
<glyph unicode="F" horiz-adv-x="1130" d="M41 0l288 1482h951l-26 -138h-800l-103 -529h705l-28 -138h-706l-131 -677h-150z" />
<glyph unicode="G" horiz-adv-x="1214" d="M117 404q0 29 3 56.5t7 58.5l95 492q40 220 186 352.5t403 132.5q116 0 221 -30t177 -92l-91 -118q-55 49 -140.5 75t-173.5 26q-164 0 -281 -88.5t-158 -289.5l-92 -470q-8 -43 -8 -90q0 -78 26.5 -133.5t69.5 -91.5t100.5 -53.5t119.5 -17.5q51 0 138 17.5t190 87.5 l76 392h-245l25 139h398l-114 -601q-107 -95 -230.5 -134t-248.5 -39q-101 0 -184 29t-143 82.5t-93 131.5t-33 176z" />
<glyph unicode="H" horiz-adv-x="1293" d="M30 0l288 1482h150l-128 -661h766l129 661h154l-285 -1482h-158l133 684h-765l-133 -684h-151z" />
<glyph unicode="I" horiz-adv-x="502" d="M90 0l286 1482h153l-289 -1482h-150z" />
<glyph unicode="J" horiz-adv-x="1102" d="M-8 97l84 122q32 -24 72.5 -40.5t83.5 -28.5t84 -18.5t76 -6.5q157 0 256 88t140 298l188 971h151l-194 -1002q-21 -111 -63.5 -203t-107.5 -156.5t-158 -100t-217 -35.5q-49 0 -106 7.5t-110.5 22.5t-100 35.5t-78.5 46.5z" />
<glyph unicode="K" horiz-adv-x="1219" d="M37 0l285 1482h152l-164 -852l856 852h182l-580 -579l350 -903h-157l-301 796l-393 -388l-80 -408h-150z" />
<glyph unicode="L" horiz-adv-x="1115" d="M47 0l288 1482h151l-262 -1347h817l-26 -135h-968z" />
<glyph unicode="M" horiz-adv-x="1558" d="M35 0l283 1482h138q10 -35 35.5 -117.5t56.5 -190t65 -227.5t65.5 -225t54 -185.5t30.5 -110.5q7 9 42.5 59.5t89 128.5t122.5 181.5t146.5 217.5t158 233t157.5 236h144l-281 -1482h-150q55 281 108.5 562t107.5 563h-6l-606 -897h-117q-6 26 -27.5 96t-49.5 161 t-59.5 194t-58 195t-48 161t-28.5 90h-6q-56 -282 -110 -563t-107 -562h-150z" />
<glyph unicode="N" horiz-adv-x="1352" d="M37 0l283 1482h144q17 -39 62.5 -137t104.5 -226t124.5 -269.5t123 -265.5t99.5 -214.5t54 -115.5l236 1228h150l-285 -1482h-148q-19 41 -63 138.5t-102.5 223.5t-122 264.5t-120 260.5t-99.5 213.5t-61 120.5l-232 -1221h-148z" />
<glyph unicode="O" horiz-adv-x="1285" d="M119 421q0 28 2 57t8 60l93 475q43 220 183.5 351.5t396.5 131.5q109 0 198.5 -33t153 -91t99 -136.5t35.5 -170.5q0 -50 -8 -93l-96 -504q-21 -109 -67 -198t-118 -152.5t-173.5 -98t-230.5 -34.5q-103 0 -190 30t-150.5 87.5t-99.5 137.5t-36 181zM269 430 q0 -77 26.5 -135.5t71 -95.5t103.5 -55.5t123 -18.5q374 0 450 396l84 433q4 25 6 46.5t2 40.5q0 77 -28 136.5t-75 99t-109.5 60t-128.5 20.5q-166 0 -279 -90.5t-150 -287.5l-86 -452q-4 -26 -7 -49.5t-3 -47.5z" />
<glyph unicode="P" horiz-adv-x="1176" d="M30 0l288 1482h572q91 0 158.5 -31t112.5 -84t68 -121t23 -140q0 -86 -34 -173.5t-97 -158t-155.5 -115t-210.5 -44.5h-454l-120 -615h-151zM329 757h413q70 0 134 24.5t114.5 69t80.5 105.5t30 134q0 121 -68.5 187.5t-187.5 66.5h-402z" />
<glyph unicode="Q" horiz-adv-x="1321" d="M117 419q0 56 12 119l93 475q43 220 183.5 351.5t396.5 131.5q109 0 198.5 -33t153 -91t99 -136.5t35.5 -170.5q0 -50 -8 -93l-96 -504q-21 -109 -67 -198t-118 -152.5t-173.5 -98t-230.5 -34.5l-16 -65q-7 -24 -9 -43t-4 -37q0 -43 32 -65.5t118 -22.5h27t29 3l-4 -123 q-27 -4 -50 -6t-47 -2q-117 0 -183.5 50.5t-66.5 147.5q0 38 14 88l25 90q-152 37 -247.5 144.5t-95.5 274.5zM269 430q0 -77 26.5 -135.5t71 -95.5t103.5 -55.5t123 -18.5q374 0 450 396l84 433q4 25 6 46.5t2 40.5q0 77 -28 136.5t-75 99t-109.5 60t-128.5 20.5 q-166 0 -279 -90.5t-150 -287.5l-86 -452q-4 -26 -7 -49.5t-3 -47.5z" />
<glyph unicode="R" horiz-adv-x="1212" d="M35 0l287 1482h589q93 0 159.5 -31t108.5 -83t61.5 -120t19.5 -138q0 -64 -19.5 -134.5t-62.5 -134t-113 -116t-168 -85.5l159 -640h-166q-34 154 -68 307t-71 308h-445l-121 -615h-150zM333 755h418q77 0 142.5 24.5t113 70t74.5 109t27 137.5q0 115 -63.5 180.5 t-184.5 65.5h-413z" />
<glyph unicode="S" horiz-adv-x="1173" d="M21 154l90 108q80 -61 183.5 -98t226.5 -37q90 0 167 21.5t134.5 62.5t90.5 100t33 136q0 60 -28 102t-72 68t-97.5 41t-105.5 26q-78 14 -153 37t-135 63.5t-96.5 102t-36.5 151.5q0 101 37.5 187t108.5 148.5t170.5 97.5t222.5 35q121 0 232 -28.5t197 -84.5l-82 -123 q-74 50 -166.5 74t-194.5 24q-62 0 -128.5 -18.5t-120 -57t-88 -98t-36.5 -138.5q0 -60 30.5 -100t73.5 -66t93.5 -39.5t91.5 -23.5q90 -19 170.5 -43.5t141.5 -65.5t98 -104.5t37 -157.5q0 -112 -47.5 -199t-128 -147.5t-189.5 -91.5t-234 -31q-299 0 -490 167z" />
<glyph unicode="T" horiz-adv-x="1113" d="M211 1342l25 140h1044l-26 -140h-446l-260 -1342h-152l260 1342h-445z" />
<glyph unicode="U" horiz-adv-x="1289" d="M114 400q0 54 13 117l187 965h152l-189 -973q-4 -24 -6 -45t-2 -41q0 -80 29 -136.5t75 -92.5t104.5 -53.5t117.5 -17.5q78 0 150 21.5t131.5 66.5t102.5 116t62 172l189 983h155l-199 -1014q-43 -225 -198 -354t-403 -129q-97 0 -183 27t-149.5 79.5t-101 130 t-37.5 178.5z" />
<glyph unicode="V" horiz-adv-x="1192" d="M228 1482h159l77 -635l76 -621h8l320 638l316 618h166l-763 -1482h-168z" />
<glyph unicode="W" horiz-adv-x="1827" d="M222 1482h154q10 -175 20 -348t21 -346l30 -564h7q51 114 103 228t101 229q82 203 178.5 401t180.5 400h163q13 -189 25 -370t22 -363q7 -129 15 -259.5t16 -265.5h6l226 509q84 189 168 374.5t166 374.5h156q-168 -374 -336.5 -741t-338.5 -741h-172l-47 677l-32 540h-5 l-267 -591q-71 -158 -140.5 -315t-142.5 -311h-172z" />
<glyph unicode="X" horiz-adv-x="1130" d="M-64 0l600 759l-286 723h169l221 -594l448 594h180l-564 -723l311 -759h-168l-243 632l-487 -632h-181z" />
<glyph unicode="Y" horiz-adv-x="1104" d="M224 1482h156l115 -417l92 -341h6q19 29 57 84.5t78 118t77.5 118.5t56.5 86l232 351h172l-74 -111t-109 -161.5t-127 -186t-126 -185.5t-108.5 -161.5t-74.5 -110.5q-7 -35 -22.5 -114.5t-32 -169t-32.5 -168.5t-22 -114h-151l110 564z" />
<glyph unicode="Z" horiz-adv-x="1117" d="M-4 0l28 133l1008 1211h-742l26 138h923l-24 -132l-1012 -1215h773l-26 -135h-954z" />
<glyph unicode="[" horiz-adv-x="523" d="M26 -230l337 1732h332l-20 -100h-204l-299 -1535h204l-19 -97h-331z" />
<glyph unicode="\" horiz-adv-x="655" d="M211 1559h107l222 -1649h-110z" />
<glyph unicode="]" horiz-adv-x="523" d="M-66 -230l19 97h201l300 1535h-204l19 100h328l-335 -1732h-328z" />
<glyph unicode="^" horiz-adv-x="1040" d="M123 710l554 782h103l248 -780h-114l-204 653l-458 -655h-129z" />
<glyph unicode="_" horiz-adv-x="1053" d="M-135 -254l21 106h1054l-22 -106h-1053z" />
<glyph unicode="`" d="M441 1527l113 57l248 -339l-65 -43z" />
<glyph unicode="a" horiz-adv-x="1055" d="M69 258q0 41 11 101l66 345q37 182 137 275.5t273 93.5q29 0 63.5 -3t76 -16t94.5 -37t117 -65l43 108h121l-207 -1060h-122l7 125q-82 -43 -143.5 -70t-107.5 -41t-82 -19t-65 -5q-129 0 -205.5 67.5t-76.5 200.5zM215 290q0 -86 45.5 -125.5t126.5 -39.5q70 0 173 41 t216 105l104 544q-76 60 -162 92.5t-166 32.5q-103 0 -171.5 -62.5t-96.5 -198.5l-58 -296q-4 -26 -7.5 -48.5t-3.5 -44.5z" />
<glyph unicode="b" horiz-adv-x="1055" d="M39 109l279 1430h142l-116 -606q80 46 140 73.5t107 42t84 19.5t67 5q140 0 212 -65.5t72 -194.5q0 -52 -13 -112l-65 -325q-39 -207 -154 -296.5t-304 -89.5q-32 0 -83.5 5t-112 19t-127 37t-128.5 58zM195 195q82 -43 162 -62t146 -19q254 0 308 280l55 285 q4 25 7 47.5t3 41.5q0 92 -47 131t-128 39q-69 0 -173.5 -42t-211.5 -108z" />
<glyph unicode="c" horiz-adv-x="898" d="M88 312q0 47 9 90l53 295q17 84 51.5 154t89.5 119.5t130.5 77t173.5 27.5q89 0 182 -27.5t150 -97.5l-94 -101q-50 54 -119 74.5t-121 20.5q-254 0 -307 -286l-50 -254q-6 -39 -6 -71q0 -58 19.5 -98t52.5 -65.5t77 -37t92 -11.5q50 0 123 19.5t135 64.5l77 -111 q-77 -57 -171.5 -80.5t-182.5 -23.5q-78 0 -143.5 20t-115 60.5t-77.5 101t-28 140.5z" />
<glyph unicode="d" horiz-adv-x="1055" d="M74 260q0 25 3 50t7 55l64 334q37 181 157.5 277.5t287.5 96.5q62 0 138.5 -15t186.5 -63l106 544h139l-297 -1539h-122l5 125q-76 -43 -135.5 -70t-106.5 -42t-84.5 -19t-67.5 -4q-131 0 -206 67.5t-75 202.5zM217 293q0 -90 47.5 -130t129.5 -40q66 0 172.5 37 t211.5 107l114 587q-176 88 -311 88q-112 0 -191.5 -63.5t-108.5 -205.5l-55 -299q-9 -41 -9 -81z" />
<glyph unicode="e" horiz-adv-x="983" d="M78 329q0 75 16.5 174t45.5 196q49 173 162.5 273.5t308.5 100.5q154 0 250 -75t96 -204q0 -66 -24 -131.5t-90.5 -115.5t-186.5 -81t-312 -31h-57t-61 2q-7 -29 -10 -55.5t-3 -46.5q0 -97 59 -159t188 -62q64 0 132 24t120 73l94 -102q-75 -66 -167.5 -94t-189.5 -28 q-182 0 -276.5 92.5t-94.5 249.5zM245 562q32 -2 66.5 -2.5t58.5 -0.5q141 0 228.5 20.5t134.5 53t62.5 70t15.5 71.5q0 82 -53 126t-156 44q-84 0 -144 -28t-102 -78t-68 -121.5t-43 -154.5z" />
<glyph unicode="f" horiz-adv-x="640" d="M-236 -435l25 129q17 -2 33 -3t34 -1q62 0 102 16.5t64.5 44t39 67.5t22.5 88l202 1032h-148l26 127h148l32 172q13 71 34.5 131t59.5 104t95.5 70t147.5 26q72 0 146 -15l-25 -129q-26 4 -48.5 4h-43.5q-64 0 -104 -15t-63.5 -43t-37 -68t-21.5 -91l-30 -146h268 l-25 -127h-269l-206 -1059q-13 -71 -33.5 -131t-57.5 -102t-96 -65.5t-152 -23.5q-26 0 -56 2t-63 6z" />
<glyph unicode="g" horiz-adv-x="1051" d="M0 -318l101 94q49 -49 124.5 -72.5t144.5 -23.5q57 0 112.5 12.5t100.5 45t78.5 87t50.5 138.5l32 164q-77 -47 -138.5 -75t-107.5 -42t-83 -17t-64 -3q-140 0 -212.5 65.5t-72.5 194.5q0 26 4 52.5t8 56.5l62 327q38 206 153 296.5t300 90.5q33 0 84.5 -5t113 -20.5 t128 -39t130.5 -58.5l-202 -1024q-36 -182 -152 -278.5t-330 -96.5q-45 0 -95.5 7t-99.5 23.5t-93 41t-77 59.5zM213 295q0 -92 47.5 -132t129.5 -40q69 0 171 37t211 113l118 591q-82 43 -159 62.5t-144 19.5q-131 0 -204 -69t-104 -210l-57 -287q-9 -43 -9 -85z" />
<glyph unicode="h" horiz-adv-x="1048" d="M17 0l301 1539h140l-118 -606q76 46 134.5 72.5t105 42t83.5 20.5t70 5q133 0 210 -67.5t77 -201.5q0 -43 -11 -103l-136 -701h-142l131 677q4 27 7.5 49.5t3.5 41.5q0 90 -47.5 129t-130.5 39q-71 0 -173.5 -39t-211.5 -112l-150 -785h-143z" />
<glyph unicode="i" horiz-adv-x="489" d="M123 168q0 30 6 66l159 829h140l-155 -803q-6 -32 -6 -53q0 -43 23.5 -60.5t74.5 -21.5l-25 -129h-22q-96 0 -145.5 45t-49.5 127zM331 1379q0 43 32.5 75t73.5 32q34 0 54 -21.5t20 -54.5v-8q-4 -43 -36 -70t-71 -27q-32 0 -52.5 21.5t-20.5 52.5z" />
<glyph unicode="j" horiz-adv-x="498" d="M-191 -445l25 129q15 -2 28 -3t27 -1q84 0 124.5 42t62.5 149l232 1192h137q-58 -306 -116 -608.5t-118 -604.5q-10 -60 -27.5 -116t-50 -98t-82 -67t-125.5 -25q-26 0 -55 2t-62 9zM346 1379q0 43 33.5 74t72.5 31q32 0 54.5 -20.5t22.5 -53.5q0 -43 -34.5 -74 t-75.5 -31q-31 0 -52 21.5t-21 52.5z" />
<glyph unicode="k" horiz-adv-x="989" d="M45 0l293 1539h136l-164 -860h195q71 0 135 26t113 116l131 244h154l-143 -269q-17 -33 -35.5 -61.5t-41 -52.5t-52 -43t-67.5 -28q41 -13 66 -35t38.5 -49.5t20.5 -59.5t11 -65l57 -402h-143l-52 355q-8 56 -21 92.5t-34.5 57t-54.5 29t-78 8.5h-225l-103 -542h-136z " />
<glyph unicode="l" horiz-adv-x="494" d="M103 166q0 17 2 35t6 39l252 1299h136l-243 -1274q-6 -31 -6 -54q0 -47 33 -65.5t117 -22.5l-26 -129h-56q-116 0 -165.5 45t-49.5 127z" />
<glyph unicode="m" horiz-adv-x="1607" d="M10 0l207 1063h123l-7 -130q73 50 128.5 77.5t97 42t74 17.5t59.5 3q99 0 148.5 -41t77.5 -105q133 93 227 119.5t156 26.5q135 0 208 -73t73 -198q0 -24 -3 -47.5t-7 -48.5l-138 -706h-144l134 681q4 19 6 40t2 38q0 76 -37.5 127.5t-128.5 51.5q-131 0 -326 -136 q2 -28 -3.5 -61l-9.5 -57l-133 -684h-140l131 677q11 60 11 97q0 78 -37 121t-119 43q-51 0 -132.5 -37t-201.5 -121l-154 -780h-142z" />
<glyph unicode="n" d="M17 0l207 1063h120l-4 -130q80 48 140 74.5t105 42t80 19.5t68 4q133 0 210 -67.5t77 -201.5q0 -43 -11 -103l-136 -701h-142l131 677q4 27 7.5 49.5t3.5 41.5q0 90 -47.5 129t-130.5 39q-71 0 -172.5 -39t-212.5 -112l-150 -785h-143z" />
<glyph unicode="o" horiz-adv-x="1057" d="M99 344q0 25 2 48t6 49l47 245q35 178 146 282.5t315 104.5q93 0 165 -28t122 -77.5t77 -114.5t27 -141q0 -19 -2 -41t-6 -43l-48 -260q-41 -207 -164 -292.5t-306 -85.5q-78 0 -146.5 22.5t-121 67.5t-83 111.5t-30.5 152.5zM236 355q0 -62 21.5 -107t58.5 -74.5t82 -43 t94 -13.5q56 0 106.5 13.5t93.5 46t74.5 88t48.5 139.5l43 216q8 36 8 77q0 58 -20.5 104t-55.5 77t-82.5 47.5t-100.5 16.5q-121 0 -205 -63.5t-114 -220.5l-43 -225q-5 -21 -7 -41t-2 -37z" />
<glyph unicode="p" d="M-64 -430l286 1488h120l-4 -125q78 43 138 71t108 43.5t84 20.5t65 5q131 0 207.5 -64.5t76.5 -200.5q0 -24 -2 -50.5t-9 -56.5l-66 -340q-37 -180 -141 -277t-300 -97q-62 0 -138.5 14t-190.5 68l-96 -499h-138zM197 205q101 -52 173.5 -69t140.5 -17q115 0 190 60.5 t101 196.5l60 308q4 26 7.5 47.5t3.5 40.5q0 90 -47.5 127t-130.5 37q-66 0 -172 -41t-213 -103z" />
<glyph unicode="q" d="M71 256q0 26 2.5 52.5t8.5 56.5l64 321q41 206 149.5 296.5t308.5 90.5q32 0 82.5 -5t111 -20.5t126 -39t130.5 -58.5l-269 -1380h-142l108 557q-80 -49 -140.5 -77.5t-107.5 -41t-82.5 -15.5t-65.5 -3q-140 0 -212 68.5t-72 197.5zM217 295q0 -92 47.5 -132t129.5 -40 q69 0 173 40t211 110l117 591q-82 43 -158.5 62.5t-145.5 19.5q-129 0 -203 -69t-104 -210l-58 -287q-9 -43 -9 -85z" />
<glyph unicode="r" horiz-adv-x="657" d="M47 0l207 1060h118l-9 -153q74 60 183.5 109t218.5 57q-4 -41 -9 -80t-9 -79q-149 -22 -249 -58.5t-158 -70.5q-39 -197 -76.5 -392.5t-74.5 -392.5h-142z" />
<glyph unicode="s" horiz-adv-x="960" d="M10 121l89 101q69 -62 147 -88.5t182 -26.5q46 0 97 11t95.5 34.5t74 63.5t29.5 98q0 69 -50 102t-126 50q-58 15 -125.5 30t-127 43.5t-97.5 76t-38 126.5q0 82 36 144t95.5 104t136.5 62.5t159 20.5q117 0 203 -24.5t156 -78.5l-82 -108q-62 43 -133 63.5t-150 20.5 q-121 0 -200.5 -51.5t-79.5 -137.5q0 -35 18.5 -59.5t47.5 -42t65 -29t75 -19.5q54 -13 117.5 -29t117.5 -45.5t89 -78t35 -123.5q0 -82 -33 -145t-94.5 -107t-145.5 -68t-185 -24q-107 0 -209 29t-189 105z" />
<glyph unicode="t" horiz-adv-x="737" d="M162 933l25 130h157l84 248h101l-47 -248h294l-25 -130h-293l-114 -580q-4 -26 -6.5 -50t-4.5 -45q0 -64 32.5 -98.5t114.5 -34.5q58 0 156 17l7 -125q-58 -17 -116.5 -22t-87.5 -5q-138 0 -196 56.5t-58 160.5q0 51 12 113l121 613h-156z" />
<glyph unicode="u" horiz-adv-x="1057" d="M76 258q0 41 10 101l138 704h139l-131 -678q-4 -26 -6 -48.5t-2 -41.5q0 -90 46 -130t130 -40q71 0 175 44t210 115l153 779h139l-204 -1063h-120l2 127q-74 -45 -131.5 -72t-105 -41t-85 -19t-70.5 -5q-135 0 -211 67.5t-76 200.5z" />
<glyph unicode="v" horiz-adv-x="954" d="M142 1060h146q16 -116 34 -231t35 -234q17 -103 30 -206t30 -206h6q80 141 157.5 283.5t159.5 284.5q48 88 72.5 144.5t24.5 126.5v41h137v-39q0 -48 -6.5 -86.5t-19 -74.5t-31 -69t-39.5 -72l-424 -722h-134q-45 267 -90 529.5t-88 530.5z" />
<glyph unicode="w" horiz-adv-x="1487" d="M142 1060h142q10 -111 24 -230.5t25 -232.5l37 -386h6l205 409l176 341h144l47 -321l65 -425h7q66 136 133.5 268t132.5 268q43 92 62.5 150t19.5 121v41h140v-39q0 -82 -21.5 -152t-62.5 -150l-386 -722h-124q-9 69 -25 177.5t-32 222t-32.5 219t-24.5 169.5h-4 l-189 -380q-49 -102 -103.5 -203.5t-103.5 -204.5h-129z" />
<glyph unicode="x" horiz-adv-x="898" d="M-80 0l460 544l-234 521h162l166 -407l328 407h177l-441 -519l252 -546h-166l-179 430l-348 -430h-177z" />
<glyph unicode="y" horiz-adv-x="928" d="M60 -435l241 448l-61 65l-121 985h141l52 -463q4 -41 11.5 -105.5t15 -133t15 -133t11.5 -105.5h5l340 628q26 45 43 80t29 65.5t17 60.5t5 65v41h142v-39q0 -48 -6.5 -85.5t-19.5 -72.5t-31.5 -70t-39.5 -74l-638 -1157h-151z" />
<glyph unicode="z" horiz-adv-x="932" d="M-15 0l21 117l755 819h-564l25 124h742l-22 -116l-755 -817h595l-25 -127h-772z" />
<glyph unicode="{" horiz-adv-x="523" d="M76 593l14 84q48 9 84.5 38t63.5 69.5t44 91.5t28 103l55 289q19 103 82.5 165.5t145.5 62.5h121l-17 -90h-80q-34 0 -57.5 -18t-41 -47.5t-28 -62.5t-16.5 -65l-57 -280q-13 -69 -38.5 -120.5t-55.5 -87t-60.5 -57t-51.5 -28.5v-4q35 -10 68 -59.5t33 -139.5 q0 -19 -2 -41t-7 -45l-55 -295q-4 -21 -7 -42.5t-3 -43.5q0 -44 16.5 -74.5t61.5 -30.5h80l-18 -93h-101q-80 0 -121.5 49.5t-41.5 129.5q0 28 7 59l55 287q13 72 13 124q0 74 -25.5 118t-87.5 54z" />
<glyph unicode="|" horiz-adv-x="406" d="M152 -349v1888h108v-1888h-108z" />
<glyph unicode="}" horiz-adv-x="523" d="M-90 -228l16 88h82q33 0 56.5 15.5t40 40t27 55.5t16.5 64l61 316q13 64 38.5 115t54.5 86t60.5 56.5t54.5 27.5v4q-33 11 -67 61t-34 142q0 47 8 90l54 280q4 24 9 49.5t5 48.5q0 39 -16.5 67t-65.5 28h-82l15 84h120q78 0 114 -43t36 -111q0 -33 -6 -68l-58 -289 q-4 -31 -7 -59t-3 -56q0 -69 24.5 -121.5t86.5 -65.5l-17 -84q-90 -17 -140.5 -93.5t-74.5 -202.5l-58 -299q-18 -103 -76.5 -164.5t-148.5 -61.5h-125z" />
<glyph unicode="~" horiz-adv-x="1040" d="M90 576q66 82 141 120.5t149 38.5q54 0 103.5 -20t97 -44t94.5 -44t97 -20q53 0 92 28t90 83l76 -64q-62 -82 -128.5 -126t-157.5 -44q-49 0 -99 20.5t-98 45t-96.5 45t-93.5 20.5q-56 0 -99 -28t-92 -78z" />
<glyph unicode="&#xa2;" horiz-adv-x="891" d="M88 310q0 49 9 92l53 293q33 172 134 273t297 105q2 15 8 46.5t13 66.5t13.5 66.5t10.5 46.5h78l-46 -228q78 -6 153 -34t122 -87l-96 -101q-43 48 -99.5 68.5t-103.5 24.5l-160 -821q57 0 125 20.5t128 63.5l77 -111q-77 -57 -170.5 -80.5t-186.5 -23.5l-45 -238h-78 l48 244q-129 17 -206.5 99.5t-77.5 214.5zM230 338q0 -86 46 -142t122 -67l156 811q-111 -11 -175.5 -77.5t-92.5 -204.5l-50 -254q-6 -36 -6 -66z" />
<glyph unicode="&#xa3;" d="M15 0l22 107q103 109 180.5 243t104.5 290h-193l21 109h172q-2 82 -17 156t-15 153q0 89 27 170t79.5 142.5t131.5 98.5t184 37q140 0 233 -51t147 -160l-118 -62q-36 69 -101 107.5t-165 38.5q-62 0 -113 -25t-86 -68t-54.5 -102t-19.5 -130q0 -78 15.5 -152.5 t13.5 -152.5h321q-2 -5 -5.5 -21t-7.5 -33.5t-7.5 -33.5t-3.5 -21h-305q-27 -141 -83.5 -270.5t-161.5 -244.5h688l-21 -125h-863z" />
<glyph unicode="&#xa5;" d="M74 344l18 95h355l21 120l-14 79h-323l19 102h278l-185 742h157l105 -454l69 -301l185 311l275 444h170l-469 -742h285l-20 -102h-331l-45 -72l-24 -127h359l-17 -95h-361l-64 -344h-154l67 344h-356z" />
<glyph unicode="&#xa8;" horiz-adv-x="1026" d="M404 1383q7 37 37 63.5t66 26.5q37 0 57.5 -24.5t16.5 -59.5q-7 -37 -38.5 -63.5t-68.5 -26.5q-35 0 -55.5 23.5t-14.5 60.5zM798 1383q6 37 36 63.5t67 26.5q35 0 55 -24.5t16 -59.5q-6 -37 -37.5 -63.5t-68.5 -26.5q-34 0 -54 23.5t-14 60.5z" />
<glyph unicode="&#xa9;" horiz-adv-x="1738" d="M119 742q0 168 58.5 312t162 249t241 164.5t295.5 59.5q154 0 291.5 -59.5t241 -164.5t162.5 -249t59 -312t-59 -312t-162.5 -250t-241 -166.5t-291.5 -60.5q-158 0 -295.5 60.5t-241 166.5t-162 250t-58.5 312zM224 742q0 -144 50 -270t138.5 -219t208 -147.5 t255.5 -54.5q135 0 254.5 54.5t206.5 147.5t137.5 219t50.5 270q0 142 -50.5 267.5t-137.5 218t-206.5 146.5t-254.5 54q-136 0 -255.5 -54t-208 -146.5t-138.5 -218t-50 -267.5zM552 568v327q0 71 28.5 127.5t76 96.5t109 61.5t133.5 21.5q73 0 141 -18t123 -62l-57 -86 q-50 39 -103 54.5t-102 15.5q-43 0 -86 -13.5t-78.5 -42t-57 -73t-21.5 -109.5v-273q0 -64 21.5 -109t57 -74t77.5 -42t85 -13q49 0 103 15t99 49l54 -83q-49 -37 -115 -58.5t-141 -21.5q-72 0 -135 21.5t-110 61t-74.5 98t-27.5 129.5z" />
<glyph unicode="&#xab;" horiz-adv-x="930" d="M127 486l339 384h136l-342 -394l179 -377h-125zM449 486l339 384h137l-344 -394l178 -377h-123z" />
<glyph unicode="&#xad;" horiz-adv-x="819" d="M125 509l25 129h594l-26 -129h-593z" />
<glyph unicode="&#xae;" horiz-adv-x="1115" d="M152 1090q0 88 31.5 164.5t86 132.5t128 87.5t154.5 31.5q84 0 156 -31.5t126 -87.5t85 -132.5t31 -164.5t-31 -165.5t-85 -133.5t-127 -88t-155 -32t-155 32t-127.5 88t-86 133.5t-31.5 165.5zM219 1090q0 -76 26 -140t71 -112t106.5 -76.5t129.5 -28.5q72 0 132 28.5 t104.5 76.5t70 112t25.5 140q0 73 -25.5 138t-70 112t-104.5 75t-132 28q-69 0 -130 -28t-106 -75t-71 -112t-26 -138zM408 862v458h181q60 0 101 -33t41 -93q0 -43 -23.5 -75.5t-71.5 -49.5l104 -207h-69l-97 198h-98v-198h-68zM476 1120h107q37 0 60.5 18.5t23.5 55.5 q0 34 -23.5 50t-56.5 16h-111v-140z" />
<glyph unicode="&#xb4;" d="M647 1233l233 356l129 -48l-282 -343z" />
<glyph unicode="&#xb8;" horiz-adv-x="909" d="M160 -402l33 75q39 -16 81 -21t72 -5q22 0 45.5 5.5t43 18.5t32.5 32.5t13 44.5q0 43 -32.5 66.5t-101.5 19.5l-43 33l97 197l80 -6l-74 -146q54 -2 89.5 -17.5t57 -38t30 -48t8.5 -46.5q0 -31 -13.5 -65.5t-44 -63.5t-78 -47.5t-113.5 -18.5q-43 0 -91 6t-91 25z" />
<glyph unicode="&#xbb;" horiz-adv-x="930" d="M47 99l343 396l-179 375h124l188 -384l-338 -387h-138zM370 99l342 396l-179 375h125l185 -384l-338 -387h-135z" />
<glyph unicode="&#x2c6;" d="M342 1256l364 297h96l230 -295l-75 -64l-224 224l-335 -226z" />
<glyph unicode="&#x2da;" horiz-adv-x="1038" d="M511 1342q0 49 19.5 93t53 79t80 54t97.5 19q76 0 124 -48.5t48 -123.5q0 -53 -21.5 -97.5t-56 -76.5t-78.5 -49.5t-91 -17.5q-78 0 -126.5 48t-48.5 120zM600 1357q0 -43 27 -70t70 -27q29 0 55 12t47.5 32.5t34.5 46.5t13 55q0 41 -28.5 68.5t-71.5 27.5 q-58 0 -102.5 -44.5t-44.5 -100.5z" />
<glyph unicode="&#x2dc;" d="M355 1323q51 82 116 123.5t124 41.5q35 0 68.5 -15t64.5 -32t60 -32.5t57 -15.5q31 0 63 22.5t75 72.5l84 -54q-56 -90 -110 -128t-112 -38q-37 0 -69 14.5t-63.5 30.5t-62 30t-61.5 14q-37 0 -72 -23t-80 -68z" />
<glyph unicode="&#x401;" horiz-adv-x="1171" d="M41 0l288 1482h949l-26 -138h-798l-103 -529h703l-26 -138h-706l-105 -542h865l-26 -135h-1015zM564 1688q4 37 35 63t68 26t55.5 -24t14.5 -58q-6 -37 -37 -65t-68 -28t-56.5 25t-11.5 61zM966 1688q4 37 34 63t67 26q34 0 54 -24t16 -58q-6 -37 -37 -65t-68 -28 q-34 0 -53.5 25t-12.5 61z" />
<glyph unicode="&#x402;" horiz-adv-x="1498" d="M205 1342l25 140h1129l-25 -140h-575l-88 -441q117 66 223 97.5t185 31.5q189 0 284 -101.5t95 -259.5q0 -60 -13 -127l-41 -213q-19 -107 -51.5 -197.5t-91.5 -157t-153.5 -104.5t-239.5 -38h-29.5t-32.5 2l31 138q107 0 179 22.5t118 67.5t73.5 116.5t46.5 170.5 l36 182q13 64 13 118q0 236 -262 237q-89 0 -197.5 -44t-200.5 -102l-144 -740h-153l261 1342h-402z" />
<glyph unicode="&#x403;" horiz-adv-x="1092" d="M45 0l286 1482h957l-26 -138h-806l-263 -1344h-148zM692 1650l351 246l79 -107l-380 -211z" />
<glyph unicode="&#x404;" horiz-adv-x="1117" d="M129 396q0 28 2 57t9 58l98 504q21 107 60.5 196.5t106 153t164.5 97.5t235 34q110 0 215.5 -30t184.5 -96l-92 -118q-56 49 -143 79t-169 30q-178 0 -278.5 -90.5t-141.5 -291.5l-29 -154h544l-25 -133h-548l-34 -169q-4 -26 -7.5 -51t-3.5 -49q0 -78 27 -134.5 t72 -93.5t105.5 -54.5t127.5 -17.5q90 0 185.5 29t177.5 82l62 -123q-36 -26 -84.5 -48t-105 -39.5t-119 -28t-128.5 -10.5q-102 0 -188.5 28t-149 80.5t-96.5 129t-34 173.5z" />
<glyph unicode="&#x405;" horiz-adv-x="1173" d="M21 154l90 108q80 -61 183.5 -98t226.5 -37q90 0 167 21.5t134.5 62.5t90.5 100t33 136q0 60 -28 102t-72 68t-97.5 41t-105.5 26q-78 14 -153 37t-135 63.5t-96.5 102t-36.5 151.5q0 101 37.5 187t108.5 148.5t170.5 97.5t222.5 35q121 0 232 -28.5t197 -84.5l-82 -123 q-74 50 -166.5 74t-194.5 24q-62 0 -128.5 -18.5t-120 -57t-88 -98t-36.5 -138.5q0 -60 30.5 -100t73.5 -66t93.5 -39.5t91.5 -23.5q90 -19 170.5 -43.5t141.5 -65.5t98 -104.5t37 -157.5q0 -112 -47.5 -199t-128 -147.5t-189.5 -91.5t-234 -31q-299 0 -490 167z" />
<glyph unicode="&#x406;" horiz-adv-x="502" d="M90 0l286 1482h153l-289 -1482h-150z" />
<glyph unicode="&#x407;" horiz-adv-x="502" d="M90 0l286 1482h153l-289 -1482h-150zM217 1767q7 37 37 63.5t66 26.5q37 0 57.5 -24t16.5 -59q-7 -36 -38.5 -63t-69.5 -27q-35 0 -55 23.5t-14 59.5zM611 1767q6 37 36 63.5t67 26.5q35 0 55.5 -24t15.5 -59q-6 -36 -37.5 -63t-68.5 -27q-34 0 -54.5 23.5t-13.5 59.5z " />
<glyph unicode="&#x408;" horiz-adv-x="1102" d="M-8 97l84 122q32 -24 72.5 -40.5t83.5 -28.5t84 -18.5t76 -6.5q157 0 256 88t140 298l188 971h151l-194 -1002q-21 -111 -63.5 -203t-107.5 -156.5t-158 -100t-217 -35.5q-49 0 -106 7.5t-110.5 22.5t-100 35.5t-78.5 46.5z" />
<glyph unicode="&#x409;" horiz-adv-x="1941" d="M-30 74q88 40 153.5 97t116 145t89.5 215t75 310l123 641h727q-31 -164 -63 -324t-62 -321h396q191 0 290 -95t99 -250q0 -105 -33.5 -195t-98 -155.5t-158 -103.5t-214.5 -38h-593q66 338 130 671t130 673h-425l-104 -536q-37 -193 -85 -336t-112.5 -244t-147 -167.5 t-190.5 -107.5q-11 30 -21.5 60t-21.5 61zM993 138h409q75 0 142 21.5t116 63.5t77 105.5t28 149.5q0 109 -73 165t-213 56h-375q-29 -141 -56.5 -280.5t-54.5 -280.5z" />
<glyph unicode="&#x40a;" horiz-adv-x="1962" d="M60 0l284 1482h148l-124 -647h611l127 647h148l-127 -647h398q191 0 290 -95t99 -250q0 -105 -33.5 -194t-97 -154.5t-157 -103.5t-213.5 -38h-592l133 695h-612l-133 -695h-149zM995 138h409q75 0 141 20t114 62t76 106t28 150q0 107 -73 161.5t-211 54.5h-378z" />
<glyph unicode="&#x40b;" horiz-adv-x="1533" d="M207 1342l27 140h1127l-25 -140h-575l-86 -441q115 66 217.5 97.5t184.5 31.5q191 0 287.5 -101.5t96.5 -263.5q0 -58 -14 -123l-99 -542h-154l99 531q12 64 12 118q0 236 -267 237q-88 0 -194.5 -44t-198.5 -102l-144 -740h-152l260 1342h-402z" />
<glyph unicode="&#x40c;" horiz-adv-x="1145" d="M39 0l273 1482h146q-31 -166 -60.5 -328.5t-59.5 -326.5h271q37 0 79.5 8t85.5 31.5t83 68t72 116.5q50 107 95 214t94 217h150l-186 -437q-50 -112 -113.5 -180.5t-153.5 -99.5q88 -28 124.5 -105t49.5 -184l54 -476h-151l-51 462q-8 74 -28.5 120t-51 71.5t-69 35.5 t-81.5 10h-297q-30 -174 -63.5 -349.5t-65.5 -349.5h-146zM665 1650l350 246l79 -107l-380 -211z" />
<glyph unicode="&#x40e;" horiz-adv-x="1128" d="M86 -17q6 35 10.5 69t8.5 69h76q88 0 146 35t108 125q10 17 18.5 32.5t17.5 32.5l-215 1136h150q21 -123 41.5 -245.5t44.5 -245.5q7 -41 18 -105.5t23.5 -134.5t23.5 -134.5t17 -105.5h9l544 971h161l-697 -1215q-51 -89 -96.5 -145t-93.5 -87t-100.5 -41.5 t-119.5 -10.5h-95zM513 1806h119q-4 -54 34 -103t112 -49q76 0 131 46t70 106h127q-13 -47 -39 -95.5t-67 -87.5t-97 -62.5t-131 -23.5q-146 0 -207.5 78t-51.5 191z" />
<glyph unicode="&#x40f;" horiz-adv-x="1278" d="M35 0l287 1482h152l-261 -1347h766l260 1347h154l-287 -1482h-463l-67 -349h-161l67 349h-447z" />
<glyph unicode="&#x410;" horiz-adv-x="1252" d="M-49 0l793 1482h159l228 -1482h-157l-47 344h-632l-184 -344h-160zM370 484h535l-51 394l-54 425h-6l-215 -417z" />
<glyph unicode="&#x411;" horiz-adv-x="1225" d="M74 0l281 1482h843l-26 -142h-692q-24 -127 -49 -251.5t-51 -251.5h398q189 0 288.5 -95t99.5 -250q0 -105 -33.5 -195t-97 -155.5t-157 -103.5t-213.5 -38h-591zM248 138h408q76 0 142 21.5t116 63.5t78 105.5t28 149.5q0 109 -73.5 165t-213.5 56h-378 q-26 -141 -53 -280.5t-54 -280.5z" />
<glyph unicode="&#x412;" horiz-adv-x="1255" d="M37 0l285 1482h587q97 0 166 -27t113.5 -73t64.5 -108.5t20 -132.5q0 -53 -15 -106.5t-47.5 -103t-85 -91.5t-130.5 -75q97 -43 131.5 -124.5t34.5 -172.5q0 -94 -33.5 -178.5t-95.5 -149t-151 -102.5t-202 -38h-642zM213 135h434q71 0 136.5 20.5t115 61.5t78.5 101 t29 140q0 116 -69 177.5t-174 61.5h-441zM351 837h437q59 0 117.5 20.5t104.5 58.5t74 92.5t28 118.5q0 114 -71 165.5t-175 51.5h-417z" />
<glyph unicode="&#x413;" horiz-adv-x="1092" d="M45 0l286 1482h957l-26 -138h-806l-263 -1344h-148z" />
<glyph unicode="&#x414;" horiz-adv-x="1459" d="M-125 -316l88 456h106q60 47 109.5 105t92.5 142t82 201.5t77 284.5q35 152 69 304t71 305h907q-64 -341 -127.5 -673.5t-130.5 -670.5h117l-91 -454h-146l62 316h-1079l-63 -316h-144zM256 135h809q60 304 118 605t116 604h-618q-59 -265 -107.5 -460.5t-96 -339.5 t-100.5 -242.5t-121 -166.5z" />
<glyph unicode="&#x415;" horiz-adv-x="1171" d="M41 0l288 1482h949l-26 -138h-798l-103 -529h703l-26 -138h-706l-105 -542h865l-26 -135h-1015z" />
<glyph unicode="&#x416;" horiz-adv-x="1820" d="M-17 0q54 121 106.5 240t107.5 240q50 111 116.5 191t168.5 105q-74 24 -109 96t-51 182l-60 428h142q13 -110 29 -215.5t33 -215.5q9 -71 35 -115t59 -68.5t72 -32.5t76 -8h206q30 164 60 326.5t60 328.5h146q-30 -166 -60 -328.5t-60 -326.5h208q37 0 79 8t84 32.5 t83 69t75 114.5l190 431h146l-189 -439q-56 -127 -120.5 -190t-142.5 -88q90 -26 125.5 -105t46.5 -189q15 -118 28 -235t26 -236h-150l-47 462q-9 76 -31 122t-52 71.5t-70 34.5t-83 9h-230q-30 -174 -63 -349.5t-66 -349.5h-146q31 174 64 349.5t65 349.5h-230 q-43 0 -85 -9t-81.5 -34.5t-76.5 -71.5t-71 -122q-53 -117 -104 -231t-102 -231h-157z" />
<glyph unicode="&#x417;" horiz-adv-x="1199" d="M26 127l97 105q30 -26 73.5 -47t94.5 -36.5t104.5 -23.5t101.5 -8q90 0 166.5 23.5t133.5 69.5t88 111.5t31 149.5q0 117 -78.5 183t-199.5 66h-170l27 127h184q45 0 104.5 15.5t113 49.5t91.5 91t38 141q0 58 -25 99t-65.5 68t-94 39.5t-112.5 12.5q-109 0 -209.5 -34 t-175.5 -86l-73 109q99 64 216 103t250 39q93 0 173.5 -20.5t141 -62t93.5 -103t33 -145.5q0 -139 -84.5 -240.5t-220.5 -140.5q96 -43 145 -124.5t49 -169.5q0 -123 -43 -216.5t-121 -158t-182 -96.5t-226 -32q-72 0 -143 11.5t-134.5 31t-112.5 45.5t-79 54z" />
<glyph unicode="&#x418;" horiz-adv-x="1344" d="M49 0l284 1482h151l-234 -1220l309 368l725 852h146l-281 -1482h-151l239 1235l-258 -310l-784 -925h-146z" />
<glyph unicode="&#x419;" horiz-adv-x="1344" d="M49 0l284 1482h151l-234 -1220l309 368l725 852h146l-281 -1482h-151l239 1235l-258 -310l-784 -925h-146zM643 1836h118q-4 -53 34 -102.5t112 -49.5q76 0 130.5 46.5t70.5 105.5h127q-13 -47 -39 -95t-67 -87t-97 -62.5t-131 -23.5q-146 0 -207.5 77t-50.5 191z" />
<glyph unicode="&#x41a;" horiz-adv-x="1151" d="M39 0l273 1482h146q-31 -166 -60.5 -328.5t-59.5 -326.5h271q37 0 79.5 8t85.5 31.5t83 68t72 116.5q50 107 95 214t94 217h150l-186 -437q-50 -112 -113.5 -180.5t-153.5 -99.5q88 -28 124.5 -105t49.5 -184l54 -476h-151l-51 462q-8 74 -28.5 120t-51 71.5t-69 35.5 t-81.5 10h-297q-30 -174 -63.5 -349.5t-65.5 -349.5h-146z" />
<glyph unicode="&#x41b;" horiz-adv-x="1305" d="M-74 78q89 41 154.5 96.5t116.5 142.5t89 214t75 310l123 641h899l-287 -1482h-154q66 338 130.5 671t129.5 673h-593l-104 -523q-43 -211 -92.5 -358t-113 -246.5t-143.5 -162t-184 -101.5z" />
<glyph unicode="&#x41c;" horiz-adv-x="1558" d="M35 0l283 1482h138q10 -35 35.5 -117.5t56.5 -190t65 -227.5t65.5 -225t54 -185.5t30.5 -110.5q7 9 42.5 59.5t89 128.5t122.5 181.5t146.5 217.5t158 233t157.5 236h144l-281 -1482h-150q55 281 108.5 562t107.5 563h-6l-606 -897h-117q-6 26 -27.5 96t-49.5 161 t-59.5 194t-58 195t-48 161t-28.5 90h-6q-56 -282 -110 -563t-107 -562h-150z" />
<glyph unicode="&#x41d;" horiz-adv-x="1293" d="M30 0l288 1482h150l-128 -661h766l129 661h154l-285 -1482h-158l133 684h-765l-133 -684h-151z" />
<glyph unicode="&#x41e;" horiz-adv-x="1285" d="M119 421q0 28 2 57t8 60l93 475q43 220 183.5 351.5t396.5 131.5q109 0 198.5 -33t153 -91t99 -136.5t35.5 -170.5q0 -50 -8 -93l-96 -504q-21 -109 -67 -198t-118 -152.5t-173.5 -98t-230.5 -34.5q-103 0 -190 30t-150.5 87.5t-99.5 137.5t-36 181zM269 430 q0 -77 26.5 -135.5t71 -95.5t103.5 -55.5t123 -18.5q374 0 450 396l84 433q4 25 6 46.5t2 40.5q0 77 -28 136.5t-75 99t-109.5 60t-128.5 20.5q-166 0 -279 -90.5t-150 -287.5l-86 -452q-4 -26 -7 -49.5t-3 -47.5z" />
<glyph unicode="&#x41f;" horiz-adv-x="1287" d="M28 0l288 1482h1071l-288 -1482h-155l262 1344h-765l-263 -1344h-150z" />
<glyph unicode="&#x420;" horiz-adv-x="1176" d="M30 0l288 1482h572q91 0 158.5 -31t112.5 -84t68 -121t23 -140q0 -86 -34 -173.5t-97 -158t-155.5 -115t-210.5 -44.5h-454l-120 -615h-151zM329 757h413q70 0 134 24.5t114.5 69t80.5 105.5t30 134q0 121 -68.5 187.5t-187.5 66.5h-402z" />
<glyph unicode="&#x421;" horiz-adv-x="1117" d="M117 398q0 26 2 55t8 58l99 504q21 105 62 193.5t107.5 153t162.5 99.5t227 35q110 0 215.5 -33t183.5 -100l-96 -116q-56 50 -143 82t-169 32q-174 0 -271 -96.5t-135 -285.5l-93 -456q-10 -60 -10 -104q0 -78 25.5 -133.5t70.5 -91.5t105.5 -53.5t128.5 -17.5 q91 0 187 29t175 82l63 -123q-35 -26 -83.5 -48t-105.5 -39.5t-120.5 -28t-127.5 -10.5q-103 0 -189 28t-148.5 80.5t-96.5 129t-34 175.5z" />
<glyph unicode="&#x422;" horiz-adv-x="1113" d="M211 1342l25 140h1044l-26 -140h-446l-260 -1342h-152l260 1342h-445z" />
<glyph unicode="&#x423;" horiz-adv-x="1128" d="M86 -17q6 35 10.5 69t8.5 69h76q88 0 146 35t108 125q10 17 18.5 32.5t17.5 32.5l-215 1136h150q21 -123 41.5 -245.5t44.5 -245.5q7 -41 18 -105.5t23.5 -134.5t23.5 -134.5t17 -105.5h9l544 971h161l-697 -1215q-51 -89 -96.5 -145t-93.5 -87t-100.5 -41.5 t-119.5 -10.5h-95z" />
<glyph unicode="&#x424;" horiz-adv-x="1625" d="M170 643q0 180 53.5 322.5t153 242t240 157t312.5 65.5l13 66h152l-12 -66q252 -6 379.5 -142.5t127.5 -371.5q0 -168 -48.5 -310t-144 -246t-238.5 -166.5t-331 -68.5l-23 -125h-152l23 125q-240 8 -372.5 145.5t-132.5 372.5zM320 654q0 -174 91.5 -280.5t292.5 -115.5 l199 1041q-142 -6 -250.5 -56.5t-182.5 -136.5t-112 -202t-38 -250zM854 258q148 9 257.5 60.5t183 136.5t110 201t36.5 251q0 86 -21.5 157t-69 123t-119.5 81t-175 31z" />
<glyph unicode="&#x425;" horiz-adv-x="1130" d="M-64 0l600 759l-286 723h169l221 -594l448 594h180l-564 -723l311 -759h-168l-243 632l-487 -632h-181z" />
<glyph unicode="&#x426;" horiz-adv-x="1328" d="M28 0l286 1482h150l-259 -1347h765l260 1347h155l-260 -1342l116 -2l-88 -456h-151l63 318h-1037z" />
<glyph unicode="&#x427;" horiz-adv-x="1210" d="M181 907q0 72 14 144l84 433h151l-81 -415q-7 -33 -9 -63t-5 -58q0 -121 65.5 -182.5t214.5 -61.5q105 0 215 38t200 97l127 645h150l-287 -1482h-152l130 679q-99 -57 -213 -88t-206 -31q-211 0 -304.5 92.5t-93.5 252.5z" />
<glyph unicode="&#x428;" horiz-adv-x="1926" d="M66 0l283 1482h148l-257 -1347h601l260 1347h146l-258 -1347h607l257 1347h151l-286 -1482h-1652z" />
<glyph unicode="&#x429;" horiz-adv-x="1921" d="M30 0l286 1482h150l-259 -1347h604l260 1347h150l-260 -1347h607l260 1347h152l-260 -1342l116 -2l-88 -456h-148l62 318h-1632z" />
<glyph unicode="&#x42a;" horiz-adv-x="1533" d="M215 1342l25 140h587l-123 -643h397q192 0 290.5 -95t98.5 -249q0 -105 -33 -195.5t-97.5 -157t-158 -104.5t-214.5 -38h-591l258 1342h-439zM570 138h409q75 0 141 21.5t116 64.5t78 106.5t28 149.5q0 107 -73 163t-213 56h-377z" />
<glyph unicode="&#x42b;" horiz-adv-x="1603" d="M62 0l284 1482h149l-123 -643h396q191 0 290 -95t99 -249q0 -105 -33.5 -195.5t-98 -157t-158 -104.5t-213.5 -38h-592zM236 138h411q75 0 141 21.5t114 64.5t76 106.5t28 149.5q0 107 -72 163t-210 56h-378zM1223 0l285 1482h148l-284 -1482h-149z" />
<glyph unicode="&#x42c;" horiz-adv-x="1227" d="M76 0l283 1482h148l-122 -643h395q191 0 290.5 -95t99.5 -249q0 -105 -33 -195.5t-98 -157t-158 -104.5t-214 -38h-591zM250 138h408q76 0 142 21.5t115 64.5t77 106.5t28 149.5q0 107 -72 163t-211 56h-378z" />
<glyph unicode="&#x42d;" horiz-adv-x="1108" d="M19 114l92 116q29 -24 68.5 -43t86 -33t93.5 -21.5t93 -7.5q170 0 275.5 88t140.5 292l35 187h-546l26 139h548l26 141q4 27 7.5 50t3.5 47q0 73 -26 127t-68.5 89t-102 51t-124.5 16q-183 0 -346 -102l-56 131q82 55 191.5 86t232.5 31q105 0 189 -30t142 -82t89 -128 t31 -166q0 -45 -10 -105l-95 -513q-19 -110 -58 -199.5t-103 -154t-162.5 -99t-237.5 -34.5q-62 0 -125.5 8.5t-122 26t-107 40t-80.5 52.5z" />
<glyph unicode="&#x42e;" horiz-adv-x="1612" d="M56 0l286 1482h148l-127 -661h218l34 179q21 109 63 201t109 157.5t160.5 101.5t220.5 36q102 0 185 -30t141.5 -83.5t90.5 -129t32 -165.5q0 -24 -3 -49.5t-8 -51.5l-94 -507q-21 -115 -64.5 -206t-110.5 -155.5t-159 -99t-214 -34.5q-107 0 -191.5 29t-144.5 82.5 t-91.5 128t-31.5 162.5q0 27 3 52t9 51l35 194h-214l-133 -684h-149zM660 411q0 -76 25 -129.5t66 -88.5t94.5 -52.5t113.5 -17.5q163 0 264.5 89t139.5 287l92 471q5 26 8.5 49.5t3.5 47.5q0 73 -24.5 128t-68 90t-100.5 53.5t-121 18.5q-152 0 -252.5 -90.5t-139.5 -287.5 l-90 -472q-4 -26 -7.5 -49t-3.5 -47z" />
<glyph unicode="&#x42f;" horiz-adv-x="1207" d="M10 0q46 114 93 224.5t92 224.5q39 95 87.5 158.5t123.5 91.5q-107 39 -158 121.5t-51 196.5q0 101 36 187t101.5 147.5t159 96t207.5 34.5h600q-69 -374 -138 -741t-137 -741h-148q30 164 61 326t61 326h-348q-41 0 -83 -11t-82 -36.5t-77.5 -71t-67.5 -118.5 q-43 -103 -85 -207.5t-85 -207.5h-162zM355 1020q0 -123 73 -182.5t189 -59.5h407l105 564h-419q-72 0 -136.5 -20.5t-112.5 -60.5t-77 -101t-29 -140z" />
<glyph unicode="&#x430;" horiz-adv-x="1055" d="M69 258q0 41 11 101l66 345q37 182 137 275.5t273 93.5q29 0 63.5 -3t76 -16t94.5 -37t117 -65l43 108h121l-207 -1060h-122l7 125q-82 -43 -143.5 -70t-107.5 -41t-82 -19t-65 -5q-129 0 -205.5 67.5t-76.5 200.5zM215 290q0 -86 45.5 -125.5t126.5 -39.5q70 0 173 41 t216 105l104 544q-76 60 -162 92.5t-166 32.5q-103 0 -171.5 -62.5t-96.5 -198.5l-58 -296q-4 -26 -7.5 -48.5t-3.5 -44.5z" />
<glyph unicode="&#x431;" horiz-adv-x="1036" d="M86 324q0 19 2 41t6 43q13 78 33.5 180t41 200t38 175.5t23.5 107.5q19 88 52.5 163t85 134.5t125 99.5t174.5 57q114 21 192.5 28.5t146.5 18.5l16 -125q-86 -11 -153 -18t-125 -19q-90 -17 -154.5 -44.5t-110.5 -76t-76.5 -122t-51.5 -180.5l-20 -97q96 58 187 85 t163 27q149 0 230.5 -74t81.5 -224q0 -15 -1 -29.5t-5 -46t-13.5 -90t-29.5 -164.5q-33 -185 -145 -286t-321 -101q-181 0 -286.5 88.5t-105.5 248.5zM228 342q0 -225 252 -225q154 0 229.5 70.5t101.5 214.5q16 86 24 134.5t11 74t3 37.5v29q0 86 -44 139.5t-140 53.5 q-84 0 -177.5 -33t-184.5 -88q-6 -29 -12.5 -57.5t-14 -66.5t-18 -89.5t-24.5 -122.5q-4 -17 -5 -36.5t-1 -34.5z" />
<glyph unicode="&#x432;" horiz-adv-x="1003" d="M26 105l120 609q13 64 44.5 128.5t85 116.5t134 83t192.5 31q90 0 152.5 -23.5t101.5 -60.5t56 -81t17 -85q0 -69 -37.5 -135t-119.5 -99q86 -21 123.5 -82.5t37.5 -130.5q0 -80 -27.5 -151t-84 -124.5t-140.5 -85.5t-195 -32q-75 0 -145 11.5t-129.5 30t-106.5 40 t-79 40.5zM183 183q55 -31 133 -51.5t164 -20.5q92 0 152 24.5t95.5 59.5t50 79t14.5 85q0 69 -45.5 115.5t-155.5 46.5h-142l22 115h112q98 0 147.5 46.5t49.5 115.5q0 56 -47 101t-144 45q-82 0 -136.5 -26t-91.5 -64.5t-55 -82.5t-25 -79q-2 -8 -9 -46.5t-17 -92.5 t-21.5 -115.5t-22.5 -115t-18.5 -92.5t-9.5 -47z" />
<glyph unicode="&#x433;" horiz-adv-x="943" d="M54 243q0 120 54 186t135 101.5t175.5 51t176.5 36t136 56.5t54 111q0 80 -64.5 121.5t-156.5 41.5q-80 0 -151 -22.5t-153 -67.5l-60 110q90 56 181 80.5t206 24.5q62 0 123.5 -17.5t108.5 -49.5t76.5 -81t29.5 -114q0 -107 -50 -169.5t-124 -99.5t-163 -54t-169 -32 q-41 -9 -80.5 -22t-72 -34.5t-52 -53.5t-19.5 -79q0 -45 20.5 -75t54 -49.5t74.5 -27.5t79 -8q86 0 172 25.5t173 82.5l69 -108q-115 -73 -215.5 -96.5t-210.5 -23.5q-78 0 -142 17t-113 49.5t-75.5 80t-26.5 109.5z" />
<glyph unicode="&#x434;" horiz-adv-x="1057" d="M78 338q0 24 4 51.5t8 55.5q24 117 51 220t75.5 180.5t129 121.5t213.5 44q38 0 83.5 -9t90.5 -25t87 -38.5t75 -52.5l12 66q9 46 14.5 95t5.5 90q0 129 -66.5 201t-234.5 72q-43 0 -97.5 -5t-117.5 -16l-21 119q62 14 125.5 19.5t120.5 5.5q222 0 323 -93.5t101 -292.5 q0 -56 -7.5 -116.5t-20.5 -129.5l-96 -516q-19 -92 -57 -166.5t-96.5 -126t-137.5 -79.5t-185 -28q-170 0 -276 89.5t-106 263.5zM215 351q0 -64 20.5 -110t54.5 -73.5t80.5 -40.5t97.5 -13q270 0 334 290q19 80 37.5 166t30.5 177q-62 66 -144.5 100.5t-159.5 34.5 q-131 0 -202 -79t-106 -222l-32 -136q-11 -53 -11 -94z" />
<glyph unicode="&#x435;" horiz-adv-x="983" d="M78 329q0 75 16.5 174t45.5 196q49 173 162.5 273.5t308.5 100.5q154 0 250 -75t96 -204q0 -66 -24 -131.5t-90.5 -115.5t-186.5 -81t-312 -31h-57t-61 2q-7 -29 -10 -55.5t-3 -46.5q0 -97 59 -159t188 -62q64 0 132 24t120 73l94 -102q-75 -66 -167.5 -94t-189.5 -28 q-182 0 -276.5 92.5t-94.5 249.5zM245 562q32 -2 66.5 -2.5t58.5 -0.5q141 0 228.5 20.5t134.5 53t62.5 70t15.5 71.5q0 82 -53 126t-156 44q-84 0 -144 -28t-102 -78t-68 -121.5t-43 -154.5z" />
<glyph unicode="&#x436;" horiz-adv-x="1463" d="M-6 0q36 90 73.5 179.5t74.5 179.5q34 82 80.5 136.5t123.5 74.5q-55 17 -83.5 69.5t-36.5 130.5l-39 293h135l37 -300q6 -51 24.5 -80t44.5 -45t55.5 -20.5t60.5 -4.5h157l84 450h133q-19 -115 -39.5 -225.5t-41.5 -224.5h154q31 0 61 4.5t58.5 19.5t57 45t51.5 81 l135 300h148q-33 -76 -66.5 -159t-72 -156t-84.5 -125.5t-101 -66.5q64 -16 89.5 -69.5t35.5 -129.5q13 -90 26 -178.5t23 -178.5h-137l-43 327q-15 102 -60 131.5t-114 29.5h-185q-21 -123 -43.5 -244t-45.5 -244h-135l90 488h-178q-37 0 -69 -5t-61 -21.5t-56 -49 t-48 -85.5q-35 -82 -67 -163.5t-67 -163.5h-139z" />
<glyph unicode="&#x437;" horiz-adv-x="954" d="M21 105l86 98q47 -37 127 -64.5t162 -27.5q137 0 215.5 58.5t78.5 165.5q0 73 -57 112t-132 39h-159l23 118h160q39 0 78.5 10t72 31.5t53 56.5t20.5 88q0 75 -62.5 114.5t-157.5 39.5q-144 0 -297 -80l-51 110q96 48 181 71.5t192 23.5q72 0 134.5 -17.5t107.5 -50.5 t72 -82t27 -113q0 -90 -48.5 -162t-142.5 -104q75 -37 103 -88.5t28 -107.5q0 -86 -33.5 -152.5t-93 -111.5t-140 -67.5t-174.5 -22.5q-117 0 -216.5 33t-156.5 82z" />
<glyph unicode="&#x438;" horiz-adv-x="1057" d="M76 258q0 41 10 101l138 704h139l-131 -678q-4 -26 -6 -48.5t-2 -41.5q0 -90 46 -130t130 -40q71 0 175 44t210 115l153 779h139l-204 -1063h-120l2 127q-74 -45 -131.5 -72t-105 -41t-85 -19t-70.5 -5q-135 0 -211 67.5t-76 200.5z" />
<glyph unicode="&#x439;" horiz-adv-x="1057" d="M76 258q0 41 10 101l138 704h139l-131 -678q-4 -26 -6 -48.5t-2 -41.5q0 -90 46 -130t130 -40q71 0 175 44t210 115l153 779h139l-204 -1063h-120l2 127q-74 -45 -131.5 -72t-105 -41t-85 -19t-70.5 -5q-135 0 -211 67.5t-76 200.5zM435 1512h119q-6 -62 31 -104.5 t107 -42.5q35 0 68.5 12t61 32.5t48 47.5t27.5 55h123q-13 -45 -39.5 -91.5t-67 -84t-99.5 -61t-137 -23.5q-75 0 -124.5 24.5t-77.5 63.5t-37.5 85t-2.5 87z" />
<glyph unicode="&#x43a;" horiz-adv-x="995" d="M41 0l195 1063h136l-82 -448h219q31 0 62 4.5t60 19.5t57 45t52 81l136 300h146l-134 -308q-36 -80 -81.5 -131.5t-107.5 -69.5q66 -16 90 -69.5t34 -129.5l53 -357h-141l-43 327q-15 102 -59 131.5t-116 29.5h-250l-89 -488h-137z" />
<glyph unicode="&#x43b;" horiz-adv-x="1065" d="M-45 82q60 32 105 68.5t81.5 93.5t66.5 144.5t57 222.5l88 447h710q-50 -266 -102 -528.5t-103 -529.5h-140l181 933h-433l-58 -297q-32 -161 -68.5 -271.5t-84.5 -187t-109.5 -124t-143.5 -81.5q-10 28 -22.5 55t-24.5 55z" />
<glyph unicode="&#x43c;" horiz-adv-x="1242" d="M19 0l205 1060h131l252 -727l528 727h129l-206 -1060h-142l147 753l-435 -593h-105l-215 597l-146 -757h-143z" />
<glyph unicode="&#x43d;" horiz-adv-x="1055" d="M17 0l205 1060h139l-88 -458h568l88 458h142l-205 -1060h-142l93 474h-567l-92 -474h-141z" />
<glyph unicode="&#x43e;" horiz-adv-x="1057" d="M99 344q0 25 2 48t6 49l47 245q35 178 146 282.5t315 104.5q93 0 165 -28t122 -77.5t77 -114.5t27 -141q0 -19 -2 -41t-6 -43l-48 -260q-41 -207 -164 -292.5t-306 -85.5q-78 0 -146.5 22.5t-121 67.5t-83 111.5t-30.5 152.5zM236 355q0 -62 21.5 -107t58.5 -74.5t82 -43 t94 -13.5q56 0 106.5 13.5t93.5 46t74.5 88t48.5 139.5l43 216q8 36 8 77q0 58 -20.5 104t-55.5 77t-82.5 47.5t-100.5 16.5q-121 0 -205 -63.5t-114 -220.5l-43 -225q-5 -21 -7 -41t-2 -37z" />
<glyph unicode="&#x43f;" d="M17 0l207 1063h120l-4 -130q80 48 140 74.5t105 42t80 19.5t68 4q133 0 210 -67.5t77 -201.5q0 -43 -11 -103l-136 -701h-142l131 677q4 27 7.5 49.5t3.5 41.5q0 90 -47.5 129t-130.5 39q-71 0 -172.5 -39t-212.5 -112l-150 -785h-143z" />
<glyph unicode="&#x440;" d="M-64 -430l286 1488h120l-4 -125q78 43 138 71t108 43.5t84 20.5t65 5q131 0 207.5 -64.5t76.5 -200.5q0 -24 -2 -50.5t-9 -56.5l-66 -340q-37 -180 -141 -277t-300 -97q-62 0 -138.5 14t-190.5 68l-96 -499h-138zM197 205q101 -52 173.5 -69t140.5 -17q115 0 190 60.5 t101 196.5l60 308q4 26 7.5 47.5t3.5 40.5q0 90 -47.5 127t-130.5 37q-66 0 -172 -41t-213 -103z" />
<glyph unicode="&#x441;" horiz-adv-x="898" d="M88 312q0 47 9 90l53 295q17 84 51.5 154t89.5 119.5t130.5 77t173.5 27.5q89 0 182 -27.5t150 -97.5l-94 -101q-50 54 -119 74.5t-121 20.5q-254 0 -307 -286l-50 -254q-6 -39 -6 -71q0 -58 19.5 -98t52.5 -65.5t77 -37t92 -11.5q50 0 123 19.5t135 64.5l77 -111 q-77 -57 -171.5 -80.5t-182.5 -23.5q-78 0 -143.5 20t-115 60.5t-77.5 101t-28 140.5z" />
<glyph unicode="&#x442;" horiz-adv-x="1607" d="M10 0l207 1063h123l-7 -130q73 50 128.5 77.5t97 42t74 17.5t59.5 3q99 0 148.5 -41t77.5 -105q133 93 227 119.5t156 26.5q135 0 208 -73t73 -198q0 -24 -3 -47.5t-7 -48.5l-138 -706h-144l134 681q4 19 6 40t2 38q0 76 -37.5 127.5t-128.5 51.5q-131 0 -326 -136 q2 -28 -3.5 -61l-9.5 -57l-133 -684h-140l131 677q11 60 11 97q0 78 -37 121t-119 43q-51 0 -132.5 -37t-201.5 -121l-154 -780h-142z" />
<glyph unicode="&#x443;" horiz-adv-x="928" d="M60 -435l241 448l-61 65l-121 985h141l52 -463q4 -41 11.5 -105.5t15 -133t15 -133t11.5 -105.5h5l340 628q26 45 43 80t29 65.5t17 60.5t5 65v41h142v-39q0 -48 -6.5 -85.5t-19.5 -72.5t-31.5 -70t-39.5 -74l-638 -1157h-151z" />
<glyph unicode="&#x444;" horiz-adv-x="1307" d="M94 396q0 166 46.5 292.5t127.5 211.5t192.5 131t240.5 51l77 400h140l-77 -400q187 -7 291.5 -111.5t104.5 -301.5q0 -168 -49 -293.5t-132.5 -210.5t-194 -129t-233.5 -49l-82 -420h-138l80 420q-86 7 -158 34.5t-125 78t-82 125t-29 171.5zM234 419q0 -142 73 -217 t210 -83l158 831q-90 -2 -168.5 -34t-137.5 -96.5t-96 -165t-39 -235.5zM654 119q195 6 314.5 146.5t127.5 388.5q0 140 -73 215t-208 81z" />
<glyph unicode="&#x445;" horiz-adv-x="898" d="M-80 0l460 544l-234 521h162l166 -407l328 407h177l-441 -519l252 -546h-166l-179 430l-348 -430h-177z" />
<glyph unicode="&#x446;" horiz-adv-x="1069" d="M66 256q0 21 4 46t8 55q30 174 66.5 350.5t70.5 352.5h140l-131 -677q-5 -26 -8 -48.5t-3 -44.5q0 -88 46.5 -126.5t130.5 -38.5q71 0 175 42t213 114l151 779h140q-37 -188 -73.5 -373.5t-72.5 -374.5q-4 -26 -9 -50t-5 -47q0 -49 16.5 -91t69.5 -75l-70 -318h-133 q12 69 23.5 134.5t23.5 132.5q-35 24 -52 64.5t-17 83.5h-2q-67 -52 -128 -82.5t-113.5 -47t-97 -21.5t-76.5 -5q-117 0 -190 47t-92 148q-4 17 -4.5 35t-0.5 36z" />
<glyph unicode="&#x447;" horiz-adv-x="975" d="M90 636q0 41 11 101l63 326h142l-58 -304q-4 -21 -7 -40.5t-3 -37.5q0 -165 183 -164q76 0 166 31t183 82l82 433h141l-203 -1063h-143l93 488q-127 -69 -216.5 -89.5t-151.5 -20.5q-136 0 -209 64.5t-73 193.5z" />
<glyph unicode="&#x448;" horiz-adv-x="1614" d="M69 260q0 25 2.5 48t6.5 47l135 708h144l-133 -683q-5 -24 -7 -45t-2 -40q0 -82 41 -127t124 -45q64 0 146.5 33t181.5 102q0 27 5 63t9 57l132 685h139l-131 -678q-4 -26 -7 -49.5t-3 -45.5q0 -78 36.5 -121.5t120.5 -43.5q51 0 132.5 35t200.5 121l152 782h143 l-205 -1063h-125l7 129q-74 -49 -126.5 -77t-92 -42t-73 -17t-65.5 -3q-101 0 -149.5 40.5t-76.5 104.5q-136 -90 -228 -117.5t-157 -27.5q-135 0 -206 72.5t-71 197.5z" />
<glyph unicode="&#x449;" horiz-adv-x="1635" d="M64.5 284q4.5 45 9.5 69l137 707h142l-134 -682q-10 -49 -10 -85q0 -82 42 -126t123 -44q75 0 154 33t176 100q2 26 6 62.5t8 57.5l134 684h137l-131 -677q-11 -60 -11 -97q0 -78 37 -120.5t118 -42.5q53 0 135 35t203 121l154 781h140q-37 -188 -75.5 -385t-74.5 -387 q-7 -43 -7 -83q0 -45 15.5 -86t64.5 -68l-73 -320h-130l46 267q-31 24 -47.5 61.5t-16.5 80.5v6h-5q-69 -54 -123.5 -85t-99.5 -47t-83 -21.5t-73 -5.5q-100 0 -148.5 42t-76.5 106q-132 -84 -219 -114.5t-164 -30.5q-120 0 -190 51t-88 162q-6 36 -1.5 81z" />
<glyph unicode="&#x44a;" horiz-adv-x="1210" d="M88 936l23 127h478q-19 -103 -39.5 -205.5t-42.5 -205.5h4q48 26 101 46t101 33t91 20.5t74 7.5q71 0 124.5 -21.5t89 -58t53.5 -85t18 -104.5q0 -43 -11 -103t-23 -108q-37 -144 -133.5 -220t-294.5 -76q-114 0 -227 28t-218 81l167 844h-335zM408 170q76 -35 155.5 -49 t135.5 -14q144 0 208.5 53t85.5 143q5 19 10.5 43t8.5 47.5t5.5 45t2.5 37.5q0 75 -40 113.5t-128 38.5q-74 0 -176 -38t-198 -93q-17 -82 -34.5 -163.5t-35.5 -163.5z" />
<glyph unicode="&#x44b;" horiz-adv-x="1300" d="M21 92l192 971h140l-80 -409h2q107 56 203 80.5t162 24.5q76 0 131.5 -22.5t91.5 -62.5t52 -92.5t12 -110.5q-2 -43 -12 -96t-20 -96q-37 -144 -133.5 -220t-297.5 -76q-111 0 -224 28t-219 81zM174 172q76 -34 155 -48.5t135 -14.5q142 0 206.5 53t86.5 144 q8 30 16.5 77t8.5 75q11 170 -167 170q-36 0 -80.5 -10.5t-93.5 -28t-100 -41t-98 -51.5zM974 0q9 43 25 127t35.5 187t40.5 216t41.5 216t37 186t24.5 128h133l-203 -1060h-134z" />
<glyph unicode="&#x44c;" horiz-adv-x="987" d="M24 92l191 971h142l-80 -409h2q107 56 203.5 80.5t162.5 24.5q75 0 131.5 -22.5t91.5 -62.5t51.5 -92.5t11.5 -110.5q-2 -43 -12 -96t-20 -96q-37 -144 -133.5 -220t-297.5 -76q-111 0 -224 28t-220 81zM178 172q76 -34 154.5 -48.5t133.5 -14.5q144 0 209 53t86 144 q9 30 18 77t9 75q10 170 -168 170q-37 0 -81 -10.5t-93.5 -28t-100 -41t-97.5 -51.5z" />
<glyph unicode="&#x44d;" horiz-adv-x="896" d="M39 107l86 104q26 -26 60 -44.5t68.5 -29t67 -14.5t57.5 -4q66 0 116 13.5t85.5 46t58 85t39.5 132.5l20 92h-404l23 123h406l7 41q4 24 6 43t2 36q0 114 -65 162.5t-165 48.5q-51 0 -118 -17.5t-129 -64.5l-82 101q82 66 173.5 89t179.5 23q173 0 259 -89t86 -227 q0 -19 -3 -39.5t-7 -42.5l-51 -301q-31 -177 -127 -280.5t-298 -103.5q-44 0 -91 5t-93 19t-89 37t-78 56z" />
<glyph unicode="&#x44e;" horiz-adv-x="1313" d="M26 0l206 1060h142l-90 -460h163l17 88q37 180 144.5 282.5t296.5 102.5q86 0 155 -24.5t117 -70t74.5 -106.5t26.5 -135q0 -47 -10 -83l-49 -280q-15 -78 -42.5 -147t-77.5 -122.5t-128.5 -84t-192.5 -30.5q-82 0 -152 22.5t-119 64.5t-77 101.5t-28 135.5q0 35 6 71 l15 89h-163l-92 -474h-142zM544 338q0 -114 73 -166.5t181 -52.5q127 0 192.5 65.5t95.5 219.5l43 245q6 39 6 69q0 58 -20.5 101t-53.5 70t-77 40t-92 13q-107 0 -186.5 -64.5t-110.5 -219.5l-45 -250q-6 -38 -6 -70z" />
<glyph unicode="&#x44f;" horiz-adv-x="991" d="M-10 0q8 19 28.5 69t42 105.5t42 105t28.5 71.5q24 55 58.5 94t89.5 54q-77 19 -110.5 76t-30.5 131q0 21 2 42.5t6 41.5q37 163 138 228.5t270 65.5q117 0 234 -31t221 -81q-8 -41 -22.5 -117.5t-32.5 -171t-38.5 -199t-38 -199t-32 -170.5t-22.5 -115h-133l178 903 q-82 37 -163 52t-143 15q-123 0 -191 -50t-92 -161q-4 -12 -5 -27.5t-1 -25.5q0 -70 45 -108.5t153 -41.5h192l-16 -113h-191q-62 0 -112.5 -23.5t-89.5 -109.5q-6 -19 -23.5 -63t-37 -93t-36.5 -92t-26 -62h-141z" />
<glyph unicode="&#x451;" horiz-adv-x="983" d="M78 329q0 75 16.5 174t45.5 196q49 173 162.5 273.5t308.5 100.5q154 0 250 -75t96 -204q0 -66 -24 -131.5t-90.5 -115.5t-186.5 -81t-312 -31h-57t-61 2q-7 -29 -10 -55.5t-3 -46.5q0 -97 59 -159t188 -62q64 0 132 24t120 73l94 -102q-75 -66 -167.5 -94t-189.5 -28 q-182 0 -276.5 92.5t-94.5 249.5zM245 562q32 -2 66.5 -2.5t58.5 -0.5q141 0 228.5 20.5t134.5 53t62.5 70t15.5 71.5q0 82 -53 126t-156 44q-84 0 -144 -28t-102 -78t-68 -121.5t-43 -154.5zM421 1391q6 37 36.5 64t67.5 27t57 -25t15 -59q-6 -37 -37 -64t-70 -27 q-34 0 -54.5 23.5t-14.5 60.5zM815 1391q6 37 36.5 64t66.5 27q34 0 54.5 -25t16.5 -59q-6 -37 -37 -64t-68 -27q-35 0 -55.5 23.5t-13.5 60.5z" />
<glyph unicode="&#x452;" horiz-adv-x="1085" d="M62 0l241 1237h-108l22 115h107l37 187h140l-37 -187h486l-21 -115h-486l-63 -312q158 88 253.5 117t158.5 29q135 0 201.5 -64.5t66.5 -187.5q0 -54 -13 -120l-86 -471q-17 -95 -49 -166.5t-84 -120t-126 -75t-175 -26.5h-26t-27 2l25 132q80 0 134.5 13t91 45t60 85 t38.5 133l82 423q4 28 7.5 51t3.5 44q0 88 -45.5 125.5t-128.5 37.5q-73 0 -178.5 -41t-206.5 -98l-154 -792h-141z" />
<glyph unicode="&#x453;" horiz-adv-x="943" d="M54 243q0 120 54 186t135 101.5t175.5 51t176.5 36t136 56.5t54 111q0 80 -64.5 121.5t-156.5 41.5q-80 0 -151 -22.5t-153 -67.5l-60 110q90 56 181 80.5t206 24.5q62 0 123.5 -17.5t108.5 -49.5t76.5 -81t29.5 -114q0 -107 -50 -169.5t-124 -99.5t-163 -54t-169 -32 q-41 -9 -80.5 -22t-72 -34.5t-52 -53.5t-19.5 -79q0 -45 20.5 -75t54 -49.5t74.5 -27.5t79 -8q86 0 172 25.5t173 82.5l69 -108q-115 -73 -215.5 -96.5t-210.5 -23.5q-78 0 -142 17t-113 49.5t-75.5 80t-26.5 109.5zM579 1233l232 356l129 -48l-282 -343z" />
<glyph unicode="&#x454;" horiz-adv-x="898" d="M92 312q0 47 9 90l57 295q34 177 140 277.5t306 100.5q43 0 88 -6t89 -20.5t83 -39t67 -59.5l-98 -101q-50 56 -115.5 75.5t-115.5 19.5q-136 0 -211 -71t-103 -215l-11 -58h383l-24 -120h-382l-14 -76q-6 -36 -6 -64q0 -58 19.5 -100.5t53 -69t76.5 -38t93 -11.5 q49 0 122 19.5t135 64.5l78 -111q-78 -57 -172.5 -80.5t-182.5 -23.5q-78 0 -143 20t-115 60.5t-78 101t-28 140.5z" />
<glyph unicode="&#x455;" horiz-adv-x="960" d="M10 121l89 101q69 -62 147 -88.5t182 -26.5q46 0 97 11t95.5 34.5t74 63.5t29.5 98q0 69 -50 102t-126 50q-58 15 -125.5 30t-127 43.5t-97.5 76t-38 126.5q0 82 36 144t95.5 104t136.5 62.5t159 20.5q117 0 203 -24.5t156 -78.5l-82 -108q-62 43 -133 63.5t-150 20.5 q-121 0 -200.5 -51.5t-79.5 -137.5q0 -35 18.5 -59.5t47.5 -42t65 -29t75 -19.5q54 -13 117.5 -29t117.5 -45.5t89 -78t35 -123.5q0 -82 -33 -145t-94.5 -107t-145.5 -68t-185 -24q-107 0 -209 29t-189 105z" />
<glyph unicode="&#x456;" horiz-adv-x="489" d="M123 168q0 30 6 66l159 829h140l-155 -803q-6 -32 -6 -53q0 -43 23.5 -60.5t74.5 -21.5l-25 -129h-22q-96 0 -145.5 45t-49.5 127zM331 1379q0 43 32.5 75t73.5 32q34 0 54 -21.5t20 -54.5v-8q-4 -43 -36 -70t-71 -27q-32 0 -52.5 21.5t-20.5 52.5z" />
<glyph unicode="&#x457;" horiz-adv-x="485" d="M123 172q0 29 6 64l159 827h140l-155 -801q-6 -32 -6 -55q0 -43 23.5 -59.5t74.5 -20.5l-25 -129h-22q-96 0 -145.5 46t-49.5 128zM142 1383q6 37 36.5 63.5t66.5 26.5t56.5 -24.5t16.5 -59.5q-6 -37 -37 -63.5t-70 -26.5q-35 0 -55.5 23.5t-13.5 60.5zM536 1383 q6 37 36 63.5t66 26.5q35 0 55.5 -24.5t16.5 -59.5q-6 -37 -38 -63.5t-68 -26.5q-35 0 -55 23.5t-13 60.5z" />
<glyph unicode="&#x458;" horiz-adv-x="498" d="M-191 -445l25 129q15 -2 28 -3t27 -1q84 0 124.5 42t62.5 149l232 1192h137q-58 -306 -116 -608.5t-118 -604.5q-10 -60 -27.5 -116t-50 -98t-82 -67t-125.5 -25q-26 0 -55 2t-62 9zM346 1379q0 43 33.5 74t72.5 31q32 0 54.5 -20.5t22.5 -53.5q0 -43 -34.5 -74 t-75.5 -31q-31 0 -52 21.5t-21 52.5z" />
<glyph unicode="&#x459;" horiz-adv-x="1584" d="M-30 84q57 33 105 69t89 93t73 144.5t58 222.5l85 450h581l-77 -411q111 64 210.5 85.5t157.5 21.5q73 0 125.5 -21.5t88.5 -58t52.5 -86t16.5 -103.5q0 -116 -24.5 -210.5t-79 -160t-142 -101t-214.5 -35.5q-114 0 -226 28t-217 81l168 852h-303q-21 -97 -37.5 -191.5 t-36.5 -190.5q-28 -140 -66.5 -237t-89 -164t-112 -110t-136.5 -77q-13 26 -24.5 54t-24.5 56zM785 170q74 -35 154.5 -49t135.5 -14q99 0 158.5 26.5t92.5 72.5t47 109t22 137q0 86 -35 131t-133 45q-73 0 -175 -38t-198 -93q-17 -82 -34.5 -163.5t-34.5 -163.5z" />
<glyph unicode="&#x45a;" horiz-adv-x="1590" d="M24 0q9 43 24.5 127t36 187t42 216t41 216t35.5 186t25 128h142l-84 -434h454l87 437h141l-80 -409h2q108 56 204 80.5t162 24.5q75 0 131 -22.5t91.5 -62.5t52 -92.5t10.5 -110.5q-2 -43 -11.5 -96t-19.5 -96q-37 -144 -133.5 -220t-297.5 -76q-111 0 -224 28t-219 81 l80 411h-454q-6 -33 -20 -102.5t-29.5 -148t-28 -149t-18.5 -103.5h-142zM790 172q75 -34 154.5 -48.5t134.5 -14.5q142 0 206.5 53t86.5 144q9 30 17.5 77t8.5 75q10 170 -165 170q-74 0 -176.5 -38t-198.5 -93z" />
<glyph unicode="&#x45b;" horiz-adv-x="1057" d="M39 0l240 1237h-107l21 113h110l37 189h140l-37 -189h488l-24 -113h-488l-60 -306q78 43 137.5 71t108.5 43t85.5 20.5t66.5 5.5q140 0 212 -65.5t72 -194.5q0 -52 -13 -112l-136 -699h-141l131 673q4 26 7 50t3 42q0 91 -46 128.5t-128 37.5q-73 0 -178 -38.5 t-209 -104.5l-153 -788h-139z" />
<glyph unicode="&#x45c;" horiz-adv-x="995" d="M41 0l195 1063h136l-82 -448h219q31 0 62 4.5t60 19.5t57 45t52 81l136 300h146l-134 -308q-36 -80 -81.5 -131.5t-107.5 -69.5q66 -16 90 -69.5t34 -129.5l53 -357h-141l-43 327q-15 102 -59 131.5t-116 29.5h-250l-89 -488h-137zM513 1233l234 356l129 -48l-283 -343z " />
<glyph unicode="&#x45e;" horiz-adv-x="928" d="M60 -435l241 448l-61 65l-121 985h141l52 -463q4 -41 11.5 -105.5t15 -133t15 -133t11.5 -105.5h5l340 628q26 45 43 80t29 65.5t17 60.5t5 65v41h142v-39q0 -48 -6.5 -85.5t-19.5 -72.5t-31.5 -70t-39.5 -74l-638 -1157h-151zM327 1512h118q-4 -54 34 -103.5t112 -49.5 q76 0 130.5 46t70.5 107h126q-13 -47 -38.5 -95.5t-66.5 -87.5t-97 -62.5t-131 -23.5q-146 0 -207.5 77.5t-50.5 191.5z" />
<glyph unicode="&#x45f;" horiz-adv-x="1057" d="M80 258q0 41 10 101l138 704h142l-134 -678q-8 -43 -8 -90q0 -90 47 -130t131 -40q72 0 175 44t211 115l150 779h142l-206 -1063h-121l4 127q-73 -45 -131 -72t-105 -41t-86 -19t-71 -5q-136 0 -212 67.5t-76 200.5zM380 -370l48 292l146 22l-88 -314h-106z" />
<glyph unicode="&#x490;" horiz-adv-x="1108" d="M47 0l284 1482h820l47 242h144l-74 -380h-814l-261 -1344h-146z" />
<glyph unicode="&#x491;" horiz-adv-x="870" d="M10 0l205 1063h622l41 205h133l-65 -335h-613l-183 -933h-140z" />
<glyph unicode="&#x4d9;" horiz-adv-x="983" d="M80 269q0 66 23.5 130.5t90 116.5t187 83t311.5 31q24 0 54 -1t62 -3q7 28 10 55t3 46q0 96 -57.5 158.5t-187.5 62.5q-64 0 -131 -23.5t-121 -72.5l-94 100q76 66 168 94.5t189 28.5q183 0 277.5 -92.5t94.5 -249.5q0 -76 -16 -174.5t-46 -195.5q-50 -172 -162.5 -272.5 t-306.5 -100.5q-77 0 -141.5 19t-110 55.5t-71 88.5t-25.5 116zM224 288q0 -82 54 -126.5t157 -44.5q84 0 143.5 27.5t101.5 79t68 122.5t44 155q-33 2 -67.5 3t-57.5 1q-142 0 -229 -20.5t-134.5 -52.5t-63.5 -71t-16 -73z" />
<glyph unicode="&#x2000;" horiz-adv-x="948" />
<glyph unicode="&#x2001;" horiz-adv-x="1896" />
<glyph unicode="&#x2002;" horiz-adv-x="948" />
<glyph unicode="&#x2003;" horiz-adv-x="1896" />
<glyph unicode="&#x2004;" horiz-adv-x="632" />
<glyph unicode="&#x2005;" horiz-adv-x="474" />
<glyph unicode="&#x2006;" horiz-adv-x="316" />
<glyph unicode="&#x2007;" horiz-adv-x="316" />
<glyph unicode="&#x2008;" horiz-adv-x="237" />
<glyph unicode="&#x2009;" horiz-adv-x="379" />
<glyph unicode="&#x200a;" horiz-adv-x="105" />
<glyph unicode="&#x2010;" horiz-adv-x="819" d="M125 509l25 129h594l-26 -129h-593z" />
<glyph unicode="&#x2011;" horiz-adv-x="819" d="M125 509l25 129h594l-26 -129h-593z" />
<glyph unicode="&#x2012;" horiz-adv-x="819" d="M125 509l25 129h594l-26 -129h-593z" />
<glyph unicode="&#x2013;" horiz-adv-x="1053" d="M54 507l26 131h969l-25 -131h-970z" />
<glyph unicode="&#x2014;" horiz-adv-x="2143" d="M37 507l25 131h2058l-25 -131h-2058z" />
<glyph unicode="&#x2018;" horiz-adv-x="554" d="M316 1204q0 52 22.5 103.5t58.5 96.5t81 81.5t90 55.5q8 -16 16.5 -31.5t19.5 -32.5q-52 -34 -86 -75t-50 -97h6q30 -2 51 -22.5t21 -57.5q0 -47 -37.5 -85.5t-93.5 -38.5q-50 0 -74.5 30t-24.5 73z" />
<glyph unicode="&#x2019;" horiz-adv-x="554" d="M310 1170q51 34 85.5 75t47.5 97q-30 2 -54 31t-19 65q4 44 39.5 77.5t89.5 33.5q57 0 79 -40t15 -89q-6 -50 -28.5 -98.5t-55.5 -90t-75 -74t-88 -51.5q-2 2 -7.5 11.5t-12 20.5t-11.5 19.5t-5 12.5z" />
<glyph unicode="&#x201a;" horiz-adv-x="483" d="M2 -183q52 35 86.5 76t46.5 97h-2q-71 4 -71 76q0 50 36.5 87.5t92.5 37.5q54 0 76.5 -31t22.5 -76q0 -49 -22.5 -99.5t-59 -96.5t-81.5 -80t-88 -53z" />
<glyph unicode="&#x201c;" horiz-adv-x="792" d="M286 1204q0 52 22.5 103.5t58 96.5t80.5 81.5t91 55.5q8 -16 17 -31.5t19 -32.5q-51 -34 -85.5 -75t-49.5 -97h4q31 -2 52.5 -22.5t21.5 -57.5q0 -49 -38 -86.5t-94 -37.5q-49 0 -74 30t-25 73zM581 1204q0 52 22.5 103.5t58 96.5t81 81.5t90.5 55.5q8 -16 16.5 -31.5 t18.5 -32.5q-51 -34 -85 -75t-50 -97h4q31 -2 52.5 -22.5t21.5 -57.5q0 -49 -38 -86.5t-94 -37.5q-49 0 -73.5 30t-24.5 73z" />
<glyph unicode="&#x201d;" horiz-adv-x="792" d="M281 1170q52 34 86.5 75t47.5 97h-2q-31 2 -51 22.5t-20 57.5q0 49 36.5 87t92.5 38q50 0 73.5 -30.5t23.5 -73.5q0 -54 -21.5 -105.5t-57 -96.5t-81 -80.5t-90.5 -54.5zM576 1170q52 34 86.5 75t47.5 97h-2q-31 2 -51.5 22.5t-20.5 57.5q0 49 37 87t92 38 q50 0 73.5 -30.5t23.5 -73.5q0 -54 -21.5 -105.5t-56.5 -96.5t-80.5 -80.5t-90.5 -54.5z" />
<glyph unicode="&#x201e;" horiz-adv-x="821" d="M2 -183q52 35 86.5 76t46.5 97h-2q-71 4 -71 76q0 50 36.5 87.5t92.5 37.5q54 0 76.5 -31t22.5 -76q0 -49 -22.5 -99.5t-59 -96.5t-81.5 -80t-88 -53zM346 -183q54 35 87 76t49 97h-4q-33 2 -52.5 19t-19.5 53q0 49 35 89t95 40q47 0 72.5 -26.5t25.5 -67.5 q0 -54 -21.5 -106.5t-55.5 -97.5t-79 -82t-93 -56z" />
<glyph unicode="&#x2026;" horiz-adv-x="1524" d="M62 92q6 41 38.5 74.5t84.5 33.5q49 0 72.5 -31t17.5 -68q-6 -47 -43 -79t-86 -32t-70.5 28.5t-13.5 73.5zM583 92q6 41 39.5 74.5t85.5 33.5q49 0 72.5 -31t17.5 -68q-6 -47 -43 -79t-86 -32t-71 28.5t-15 73.5zM1114 94q6 39 39 72.5t86 33.5q49 0 73 -31t17 -68 q-6 -47 -42.5 -79t-86.5 -32q-49 0 -70.5 28.5t-15.5 75.5z" />
<glyph unicode="&#x202f;" horiz-adv-x="379" />
<glyph unicode="&#x2039;" horiz-adv-x="630" d="M71 486l335 384h138l-341 -392l177 -379h-124z" />
<glyph unicode="&#x203a;" horiz-adv-x="610" d="M43 99l342 396l-180 375h126l188 -384l-338 -387h-138z" />
<glyph unicode="&#x205f;" horiz-adv-x="474" />
<glyph unicode="&#x20ac;" d="M90 604l19 102h794l-19 -102h-538l-17 -87q-7 -31 -9 -59t-2 -52q0 -144 83 -214.5t227 -70.5q148 0 301 72l47 -127q-73 -41 -166.5 -61t-202.5 -20q-200 0 -319.5 105t-119.5 304q0 60 13 131l14 79h-105zM131 815l19 101h108l19 99q21 110 63.5 199t109.5 151.5 t159 96.5t214 34q97 0 190 -24.5t161 -73.5l-84 -116q-54 35 -129 55t-142 20q-170 0 -263.5 -88.5t-136.5 -289.5l-13 -63h538l-19 -101h-794z" />
<glyph unicode="&#x2122;" horiz-adv-x="1793" d="M82 1395v101h640v-101h-268v-771h-103v771h-269zM821 624v870h108q11 -19 34.5 -65t54.5 -107.5t65.5 -129t64.5 -129t54.5 -110t36.5 -67.5h6l302 608h103v-870h-101v660h-5q-9 -15 -28.5 -56.5t-46 -92.5t-55.5 -110t-56 -113t-48.5 -95t-29.5 -58h-78q-14 24 -51 96 t-80 154.5t-82 159t-56 109.5h-6l-4 -654h-102z" />
<glyph unicode="&#xe000;" horiz-adv-x="1063" d="M0 0v1065h1065v-1065h-1065z" />
</font>
</defs>
</svg>
