<?xml version="1.0" standalone="no"?>
<!DOCTYPE svg PUBLIC "-//W3C//DTD SVG 1.1//EN" "http://www.w3.org/Graphics/SVG/1.1/DTD/svg11.dtd" >
<svg xmlns="http://www.w3.org/2000/svg">
<metadata></metadata>
<defs>
<font id="pf_din_text_comp_proitalic" horiz-adv-x="816" >
<font-face units-per-em="2048" ascent="1536" descent="-512" />
<missing-glyph horiz-adv-x="418" />
<glyph horiz-adv-x="2048" />
<glyph horiz-adv-x="2048" />
<glyph unicode="&#xd;" horiz-adv-x="2048" />
<glyph unicode=" "  horiz-adv-x="418" />
<glyph unicode="&#x09;" horiz-adv-x="418" />
<glyph unicode="&#xa0;" horiz-adv-x="418" />
<glyph unicode="!" horiz-adv-x="489" d="M71 -2l34 172h172l-34 -172h-172zM162 380l201 1116h173l-233 -1116h-141z" />
<glyph unicode="&#x22;" horiz-adv-x="537" d="M205 1082l81 414h129l-82 -414h-128zM452 1082l81 414h130l-82 -414h-129z" />
<glyph unicode="#" d="M-30 0l182 484h-131l22 111h152l123 323h-131l22 112h152l183 478h114l-182 -478h187l180 478h114l-183 -478h133l-21 -112h-155l-122 -323h133l-22 -111h-154l-183 -484h-114l183 484h-187l-181 -484h-114zM308 595h187l125 323h-187z" />
<glyph unicode="$" d="M26 269q0 41 11 94l174 22q-10 -47 -11 -90q0 -49 21.5 -88t84.5 -49l107 548q-70 32 -113.5 66t-69 70t-36.5 75.5t-11 84.5q0 234 102 364t283 142l34 169h82l-32 -169q69 -6 117 -31.5t79.5 -62.5t46 -83.5t14.5 -97.5q0 -58 -14 -111l-175 -21q7 25 11 47t4 46 q0 51 -25.5 91t-92.5 51l-92 -480q138 -66 194.5 -133t56.5 -167q0 -262 -101 -413t-320 -158l-37 -188h-82l37 193q-129 12 -188 93t-59 186zM357 1034q0 -41 18.5 -74t73.5 -65l87 441q-56 -11 -90.5 -46.5t-54 -81t-27 -92.5t-7.5 -82zM387 154q58 9 99 40.5t64.5 79.5 t34 109.5t10.5 125.5q0 56 -25.5 92.5t-81.5 67.5z" />
<glyph unicode="%" horiz-adv-x="1311" d="M135 737q0 21 11.5 85t28 148t36 177.5t37.5 175.5q19 90 75.5 135.5t140.5 45.5q109 0 160 -54.5t34 -148.5q-4 -24 -12 -64.5t-20.5 -104t-31 -152t-42.5 -206.5q-19 -90 -69 -135.5t-154 -45.5q-76 0 -135 37t-59 107zM178 -37l981 1572h109l-980 -1572h-110zM273 778 q-6 -32 13.5 -51t51.5 -19q39 0 59 21.5t24 50.5l104 536q4 24 -11 49.5t-58 25.5q-35 0 -54 -18.5t-24 -45.5zM763 138q0 21 11 84.5t28 147.5t36.5 177t37.5 175q19 91 76 136t140 45q109 0 160 -53.5t34 -148.5q-4 -24 -12 -65t-20.5 -104.5t-31 -151t-42.5 -206.5 q-19 -90 -69.5 -135t-153.5 -45q-76 0 -135 36t-59 108zM901 178q-6 -32 13 -51.5t52 -19.5q39 0 59 21.5t24 52.5l104 535q4 24 -11 50t-58 26q-35 0 -54 -18.5t-24 -46.5z" />
<glyph unicode="&#x26;" horiz-adv-x="991" d="M56 303q0 149 85 277t227 226l-28 91q-14 49 -30.5 121t-16.5 141q0 72 23.5 135t68.5 110t108 75.5t143 28.5q97 0 169.5 -40t101.5 -130l-150 -72q-15 39 -49.5 63.5t-85.5 24.5q-48 0 -79.5 -19t-50 -48t-26.5 -63t-8 -67q0 -105 49 -250l183 -484q30 49 47.5 107.5 t34.5 114.5h155q-21 -86 -64.5 -194.5t-103.5 -196.5l103 -254h-178l-48 121q-88 -84 -166 -109t-160 -25q-115 0 -184.5 83.5t-69.5 232.5zM222 310q0 -76 34 -125.5t107 -49.5q56 0 117.5 32.5t104.5 80.5l-159 415q-109 -91 -156.5 -177t-47.5 -176z" />
<glyph unicode="'" horiz-adv-x="369" d="M245 1082l82 414h131l-82 -414h-131z" />
<glyph unicode="(" horiz-adv-x="451" d="M88 374q0 164 40 328t105.5 317t154 286t184.5 236l73 -37q-95 -127 -171 -270.5t-130 -296t-82 -311t-28 -314.5q0 -140 21.5 -267t58.5 -234l-84 -47q-60 125 -101 277t-41 333z" />
<glyph unicode=")" horiz-adv-x="451" d="M-47 -189q90 119 165 260.5t129 296.5t84 316t30 318q0 135 -20.5 263t-61.5 239l91 37q59 -125 99 -274t40 -327q0 -164 -39.5 -328.5t-106 -318t-155.5 -290t-189 -239.5z" />
<glyph unicode="*" horiz-adv-x="753" d="M197 1211l68 123l203 -93l31 253h129l-69 -253l237 93l21 -123l-249 -62l124 -199l-120 -72l-88 214l-172 -216l-93 74l200 199z" />
<glyph unicode="+" d="M43 568l23 129h328l68 352h127l-68 -352h326l-24 -129h-326l-69 -353h-127l69 353h-327z" />
<glyph unicode="," horiz-adv-x="414" d="M-33 -258l99 241h-45l41 208h188l-41 -204l-147 -245h-95z" />
<glyph unicode="-" horiz-adv-x="743" d="M125 544l27 144h558l-29 -144h-556z" />
<glyph unicode="." horiz-adv-x="414" d="M26 0l36 195h188l-37 -195h-187z" />
<glyph unicode="/" horiz-adv-x="550" d="M-142 -90l718 1649h130l-721 -1649h-127z" />
<glyph unicode="0" d="M81 200q-5 65 7 135q15 84 36.5 202.5t46 244t47 241.5t38.5 194q29 142 115.5 217.5t217.5 75.5q148 0 220.5 -95t42.5 -247l-175 -895q-24 -125 -100 -206.5t-220 -81.5q-95 0 -153 28t-88 75t-35 112zM246.5 271q-1.5 -37 9.5 -65t34.5 -44t66.5 -16q69 0 106.5 41 t53.5 116l169 881q14 80 -21 122t-93 42t-97.5 -34t-51.5 -91l-167 -874q-8 -41 -9.5 -78z" />
<glyph unicode="1" d="M346 0l256 1318l-251 -174l34 181l247 171h174l-289 -1496h-171z" />
<glyph unicode="2" d="M17 0l28 148l542 777q53 78 80.5 156t27.5 134q0 55 -28.5 94t-96.5 39q-56 0 -110 -55.5t-62 -170.5l-160 33q17 162 109 258.5t250 96.5q117 0 192 -68t75 -201q0 -123 -49.5 -221.5t-106.5 -184.5l-468 -677h403l-30 -158h-596z" />
<glyph unicode="3" d="M47 299l175 25q-17 -81 4.5 -129.5t102.5 -48.5q64 0 97.5 32.5t44.5 96.5l46 258q12 70 -9.5 117t-107.5 47h-67l30 148h70q81 0 120.5 36.5t57.5 122.5l34 164q6 26 7.5 58t-8.5 58.5t-34.5 45t-69.5 18.5q-64 0 -110.5 -45t-57.5 -154l-163 27q28 183 124.5 258.5 t234.5 75.5q71 0 123.5 -24.5t84.5 -68t44.5 -101.5t-1.5 -122l-25 -143q-9 -43 -20 -82.5t-30.5 -74t-50 -63.5t-78.5 -53l-2 -6q37 -15 57 -39.5t27 -58.5t4.5 -77t-11.5 -94q-6 -37 -18 -90.5t-25 -131.5q-11 -59 -32.5 -113t-59.5 -94.5t-96.5 -64.5t-142.5 -24 q-64 0 -118 18t-91.5 57t-53.5 98t-6 141z" />
<glyph unicode="4" d="M13 236l30 154l523 1106h167l-518 -1106h263l78 414h168l-79 -414h104l-31 -154h-103l-45 -236h-168l45 236h-434z" />
<glyph unicode="5" d="M82 299l174 25q-17 -81 4 -129.5t103 -48.5q62 0 100 43t50 106l63 320q17 93 1.5 146.5t-97.5 53.5q-37 0 -79 -22.5t-66 -61.5h-148l148 765h581l-30 -152h-430l-88 -452h10q78 65 184 65q73 0 114.5 -27t61 -71t19.5 -99.5t-10 -112.5l-68 -366 q-30 -163 -116.5 -229.5t-211.5 -66.5q-64 0 -118.5 18t-92 57t-53.5 98t-5 141z" />
<glyph unicode="6" d="M74 228q0 43 11.5 114t35.5 181q21 97 45.5 162.5t52.5 112.5l413 698h172q-96 -168 -165 -287t-113 -197.5t-68.5 -121.5t-36.5 -63l5 -6q31 24 70.5 35.5t69.5 11.5q97 0 140 -54.5t43 -136.5v-27.5t-7 -58.5t-20.5 -117t-40.5 -207q-26 -129 -103 -205.5t-225 -76.5 q-76 0 -128.5 19.5t-87 51.5t-49 76t-14.5 96zM244.5 250.5q-1.5 -28.5 8 -52.5t34.5 -39t72 -15q49 0 91 32.5t57 98.5q19 103 32 163.5t20 96t9 50.5t2 28q0 45 -28.5 73t-87.5 28q-39 0 -66 -14t-45.5 -37t-29 -50.5t-16.5 -56.5l-47 -248q-4 -29 -5.5 -57.5z" />
<glyph unicode="7" d="M82 0l636 1344h-297l-34 -178h-149l65 330h618l-29 -139l-647 -1357h-163z" />
<glyph unicode="8" d="M76 230q0 8 1 21.5t5 45.5t13.5 91t27.5 160q15 82 54.5 147.5t108.5 89.5q-76 58 -75 167q0 9 1 20t5.5 37.5t12.5 75t26 132.5q29 142 117.5 217.5t223.5 75.5q119 0 191 -65.5t72 -174.5v-30.5t-3 -40t-9.5 -67.5t-20.5 -112q-14 -82 -56 -147t-111 -88 q50 -28 63.5 -73t13.5 -97q0 -14 -1 -32.5t-6.5 -55.5t-18 -98t-34.5 -162q-30 -134 -108.5 -208t-222.5 -74q-53 0 -102 12.5t-86 42t-59.5 77t-22.5 113.5zM249.5 292.5q-4.5 -38.5 3 -71t30.5 -54t72 -21.5q66 0 105 38t51 100q17 79 28 135.5t18 92.5t10 58.5t3 36.5 q0 47 -26 78t-88 31q-58 0 -100 -36.5t-53 -92.5l-43 -222q-6 -34 -10.5 -72.5zM383 966q0 -47 29 -76.5t78 -29.5q58 0 102 34.5t55 90.5l37 191q12 71 -10 121.5t-100 50.5q-120 0 -144 -118q-16 -93 -26 -144.5t-14.5 -77t-5.5 -33t-1 -9.5z" />
<glyph unicode="9" d="M135 0q97 168 163.5 287t111 198t67 121.5t32.5 62.5l-4 6q-30 -24 -69.5 -35.5t-70.5 -11.5q-96 0 -139 54.5t-43 136.5q0 11 1 27t7 58t20.5 118.5t38.5 207.5q51 281 350 282q53 0 101 -15t83 -44t55.5 -70t20.5 -95q-2 -32 -10.5 -108t-36.5 -206q-21 -96 -46 -161.5 t-53 -113.5l-398 -699h-181zM361 884q0 -45 28.5 -73.5t88.5 -28.5q39 0 65.5 14.5t45 37t29 50t16.5 56.5q15 80 26 132.5t17.5 85t8.5 50t2 31.5q0 47 -27 80t-85 33q-57 0 -98 -29.5t-52 -85.5q-19 -103 -32.5 -167t-21 -100.5t-9.5 -54.5t-2 -31z" />
<glyph unicode=":" horiz-adv-x="414" d="M26 0l36 195h188l-37 -195h-187zM150 645l39 196h187l-38 -196h-188z" />
<glyph unicode=";" horiz-adv-x="414" d="M-33 -258l99 241h-45l41 208h188l-41 -204l-147 -245h-95zM150 645l39 196h187l-38 -196h-188z" />
<glyph unicode="&#x3c;" d="M49 576l22 114l843 394l-22 -151l-697 -309l577 -308l-32 -133z" />
<glyph unicode="=" d="M10 404l27 136h780l-25 -136h-782zM76 733l25 135h781l-26 -135h-780z" />
<glyph unicode="&#x3e;" d="M-26 183l28 150l697 307l-576 310l25 134l693 -394l-22 -114z" />
<glyph unicode="?" horiz-adv-x="796" d="M209 1172q53 338 361 338q138 0 225 -79t87 -233q0 -71 -9 -119.5t-25.5 -88.5t-45 -78.5t-67.5 -88.5l-133 -169q-21 -28 -37.5 -58t-26.5 -67l-33 -149h-170l41 179q8 43 29 84t51 77q71 86 119.5 147.5t78.5 110t43 92.5t13 100q0 82 -38 130t-120 48q-30 0 -59 -9.5 t-53.5 -33t-40.5 -63.5t-23 -98zM265 0l34 172h167l-33 -172h-168z" />
<glyph unicode="@" horiz-adv-x="1617" d="M170 509q0 220 58 403.5t165.5 317t263.5 208t349 74.5q144 0 250.5 -43t178 -119.5t106.5 -179.5t35 -224q0 -185 -40 -311t-103 -202t-140.5 -109.5t-153.5 -33.5q-4 0 -32 2.5t-60 12t-62.5 32t-38.5 61.5q-35 -43 -92.5 -67.5t-106.5 -24.5q-31 0 -65.5 6t-64.5 24.5 t-49.5 51.5t-19.5 88q0 21 3 55.5t8 71.5l10 74t12 67q19 91 40.5 167t55 129.5t81.5 84t124 30.5q37 0 76.5 -17.5t69.5 -55.5l13 65h143l-111 -607q-2 -13 -3 -24t-1 -21q0 -37 19.5 -54.5t68.5 -17.5q129 0 207.5 137t78.5 390q0 103 -32 186t-91.5 139t-141.5 86 t-178 30q-179 0 -308.5 -70.5t-215.5 -189t-127 -272t-41 -321.5q0 -115 25.5 -207.5t83 -158t144 -100.5t209.5 -35q53 0 98.5 4t89.5 13.5t89 27t97 45.5l46 -114q-99 -43 -209.5 -70t-215.5 -27q-293 0 -444 148.5t-151 444.5zM704 536q0 -44 23.5 -67.5t72.5 -23.5 q56 0 88.5 39t42.5 88q15 74 27 148t29 148q4 11 4 22v21q0 50 -24.5 77t-67.5 27q-31 0 -53.5 -7.5t-43 -36.5t-38 -88.5t-40.5 -162.5q-12 -64 -16 -108t-4 -76z" />
<glyph unicode="A" horiz-adv-x="848" d="M-58 0l608 1496h160l32 -1496h-161l-5 333h-333l-132 -333h-169zM301 492h275l-4 355l7 345h-9l-129 -349z" />
<glyph unicode="B" horiz-adv-x="889" d="M28 0l290 1496h291q166 0 237.5 -74t71.5 -216q0 -180 -59 -276.5t-178 -139.5l-2 -10q70 -24 97.5 -77.5t27.5 -134.5q0 -30 -2 -60t-8 -67q-37 -230 -145.5 -335.5t-310.5 -105.5h-310zM226 154h152q80 0 130.5 36t81 90.5t42 124t11.5 135.5q0 84 -45.5 129t-154.5 45 h-108zM363 862h115q129 0 203 82t74 232q0 80 -44 122t-143 42h-108z" />
<glyph unicode="C" horiz-adv-x="848" d="M76 208q-4 25 -4 51q0 48 12 104l140 723q14 80 37 156t66 135t112 96t176 37q93 0 156.5 -26t98.5 -71t44 -109q3 -23 3 -47q0 -43 -10 -91l-174 -29q9 42 9 77q0 47 -16 80q-28 58 -119 58q-52 0 -87.5 -23.5t-60 -58.5t-39 -78t-22.5 -82l-146 -755q-7 -39 -7 -72 q1 -47 15 -82q24 -59 118 -59q84 0 136 54t67 169l166 -47q-27 -154 -113 -243.5t-251 -89.5q-94 0 -158.5 27t-101.5 76.5t-47 119.5z" />
<glyph unicode="D" horiz-adv-x="909" d="M28 0l290 1496h306q133 0 218 -56.5t96 -166.5q1 -12 1 -25q-1 -72 -19 -180q-22 -128 -54 -317q-32 -185 -60 -329.5t-71 -232.5q-58 -111 -138 -150t-197 -39h-372zM226 154h152q105 0 162 58.5t80 165.5l143 744q7 37 7 68q0 52 -20 90q-32 60 -139 60h-153z" />
<glyph unicode="E" horiz-adv-x="786" d="M28 0l290 1496h641l-32 -156h-471l-97 -501h409l-31 -158h-408l-103 -527h471l-28 -154h-641z" />
<glyph unicode="F" horiz-adv-x="786" d="M28 0l290 1496h641l-32 -156h-471l-97 -501h409l-31 -158h-408l-132 -681h-169z" />
<glyph unicode="G" horiz-adv-x="889" d="M66 238v29t5 40t14 81t27.5 151.5t48.5 251.5t73 381q31 162 129.5 250t260.5 88q148 0 220 -78t72 -209q0 -51 -9 -101l-167 -18q7 45 7 82q0 70 -30.5 116t-121.5 46q-77 0 -125.5 -47t-61.5 -115q-40 -204 -68 -346.5t-47.5 -241.5t-31 -158.5t-17.5 -92.5t-8 -47 t-2 -23q0 -60 34 -97q32 -34 102 -34h15q82 0 136.5 44t71.5 134l67 336h-174l31 148h343l-95 -484q-18 -96 -55 -160.5t-88.5 -104.5t-116 -57t-135.5 -17q-58 0 -111.5 15t-96.5 47.5t-69.5 79.5t-26.5 111z" />
<glyph unicode="H" horiz-adv-x="917" d="M28 0l290 1496h170l-129 -657h349l129 657h169l-290 -1496h-170l133 690h-348l-134 -690h-169z" />
<glyph unicode="I" horiz-adv-x="412" d="M35 0l289 1496h173l-290 -1496h-172z" />
<glyph unicode="J" horiz-adv-x="780" d="M-33 127l123 103q24 -39 70.5 -65.5t91.5 -26.5q80 0 124.5 49t62.5 131l234 1178h170l-228 -1172q-30 -154 -117 -246.5t-262 -92.5q-92 0 -162 36.5t-107 105.5z" />
<glyph unicode="K" horiz-adv-x="889" d="M28 0l290 1496h170l-135 -704h4l486 704h181l-415 -606l179 -890h-168l-138 718l-201 -283l-84 -435h-169z" />
<glyph unicode="L" horiz-adv-x="730" d="M28 0l290 1496h170l-262 -1342h437l-29 -154h-606z" />
<glyph unicode="M" horiz-adv-x="1212" d="M28 0l290 1496h166l86 -455l70 -344h7l211 354l264 445h181l-290 -1496h-170l198 1022h-11l-176 -295l-226 -364h-80l-84 364l-60 295h-8l-199 -1022h-169z" />
<glyph unicode="N" horiz-adv-x="967" d="M21 0l291 1496h162l162 -765l54 -255l9 2l196 1018h170l-291 -1496h-159l-161 770l-56 271h-6l-201 -1041h-170z" />
<glyph unicode="O" horiz-adv-x="889" d="M80 273q0 62 12 131l151 774q30 160 122 246t244 86q84 0 143 -23.5t96.5 -64.5t56 -96.5t18.5 -119.5q0 -28 -3.5 -52.5t-8.5 -54.5l-146 -775q-30 -159 -112.5 -249t-237.5 -90q-95 0 -159.5 21.5t-103 60t-55.5 91.5t-17 115zM248 295q0 -62 37 -105.5t121 -43.5 q82 0 127.5 54t59.5 131l147 751q4 26 7.5 51.5t3.5 48.5q0 64 -31.5 113t-117.5 53q-91 0 -131.5 -51.5t-55.5 -120.5l-155 -770l-8 -56t-4 -55z" />
<glyph unicode="P" horiz-adv-x="848" d="M28 0l290 1496h306q166 0 237.5 -71t71.5 -206q0 -127 -21.5 -239t-75.5 -195.5t-146.5 -133t-231.5 -49.5h-144l-117 -602h-169zM344 761h116q90 0 148.5 33t92.5 88.5t47 128.5t13 152q0 78 -41 127.5t-154 49.5h-110z" />
<glyph unicode="Q" horiz-adv-x="889" d="M80 267q0 32 4 66.5t10 70.5l149 774q30 160 129 246t252 86q161 0 230 -80t69 -211q0 -58 -14 -125l-144 -770q-18 -102 -61 -176l90 -86l-104 -103l-86 84q-86 -58 -232 -58q-82 0 -138 21.5t-90.5 59t-49 89.5t-14.5 112zM248 295q0 -62 30 -105.5t114 -43.5 q51 0 88 16l-108 105l104 101l98 -97l11 39l155 772q13 57 13 112q0 66 -30 110t-114 44q-88 0 -134.5 -52.5t-59.5 -119.5l-155 -770l-8 -56t-4 -55z" />
<glyph unicode="R" horiz-adv-x="889" d="M28 0l290 1496h308q157 0 229 -76t72 -234q0 -191 -63.5 -312t-211.5 -184l95 -690h-175l-86 656h-162l-127 -656h-169zM353 806h144q64 0 113.5 28t81.5 76.5t48.5 113t16.5 139.5q0 82 -43 129.5t-146 47.5h-112z" />
<glyph unicode="S" horiz-adv-x="846" d="M41 265q0 24 3 48.5t7 49.5l175 22q-4 -24 -7.5 -46.5t-3.5 -45.5q0 -31 7.5 -56.5t25 -47t46 -33.5t71.5 -12q70 0 117 31.5t76 82t41 116t12 135.5t-37.5 108.5t-121.5 77.5q-76 35 -125.5 70t-78.5 71.5t-40 77t-11 88.5q0 248 113.5 378t309.5 130q81 0 139 -22.5 t94.5 -60.5t54 -88.5t17.5 -105.5q0 -27 -3.5 -54.5t-12.5 -56.5l-174 -21q15 48 16 97q0 60 -36 105t-124 45q-69 0 -110.5 -34t-66 -84t-33.5 -103.5t-9 -92.5q0 -28 9 -51.5t30.5 -46t57.5 -44.5t95 -47q131 -55 179.5 -122t48.5 -161q0 -269 -105.5 -423t-333.5 -154 q-160 0 -236 78.5t-76 201.5z" />
<glyph unicode="T" horiz-adv-x="687" d="M174 0l259 1340h-257l33 156h679l-32 -156h-256l-258 -1340h-168z" />
<glyph unicode="U" horiz-adv-x="903" d="M84 194q-3 23 -3 48q0 43 9 89q11 57 28 149t37.5 201t42 227t43 227.5t40 204t31.5 156.5h170q-8 -49 -25.5 -133.5t-38 -190t-43 -220.5t-44 -223.5t-39 -202t-27.5 -154.5q-9 -44 -10 -84v-5q-1 -37 11 -67q12 -32 44 -51t90 -19q71 0 127 41t75 144l229 1165h169 l-228 -1172q-37 -191 -135.5 -265t-253.5 -74q-94 0 -156.5 27t-98.5 72.5t-44 109.5z" />
<glyph unicode="V" horiz-adv-x="848" d="M240 0l14 1498h167l-19 -726q-4 -112 -7 -212t-10 -222h13l174 458l251 702h181l-578 -1498h-186z" />
<glyph unicode="W" horiz-adv-x="1248" d="M178 0l76 1498h174l-50 -622q-10 -121 -17.5 -229.5t-25.5 -240.5h9l161 450l244 642h156l-10 -634q-3 -114 -7 -221t-12 -237h8l140 462l197 630h181l-510 -1498h-159l7 708l11 386h-7q-16 -60 -34 -110.5t-36 -97.5t-35 -92t-35 -95l-269 -699h-157z" />
<glyph unicode="X" horiz-adv-x="810" d="M-69 0l452 788l-135 710h173l80 -528l289 528h189l-423 -710l154 -788h-174l-93 591l-322 -591h-190z" />
<glyph unicode="Y" horiz-adv-x="808" d="M232 0l125 634l-125 864h174l39 -347q7 -58 11 -97t7 -72.5t5.5 -67.5t5.5 -87h8l142 304l178 367h183l-460 -864l-125 -634h-168z" />
<glyph unicode="Z" horiz-adv-x="689" d="M-43 0l30 164l667 1176h-416l31 156h585l-33 -158l-661 -1186h429l-27 -152h-605z" />
<glyph unicode="[" horiz-adv-x="451" d="M6 -217l334 1715h288l-21 -105h-143l-292 -1504h142l-19 -106h-289z" />
<glyph unicode="\" horiz-adv-x="451" d="M174 -15v1525h129v-1525h-129z" />
<glyph unicode="]" horiz-adv-x="451" d="M-97 -219l17 108h142l293 1504h-142l21 105h287l-334 -1717h-284z" />
<glyph unicode="^" d="M80 722l476 768h115l181 -768h-132l-131 612l-365 -612h-144z" />
<glyph unicode="_" horiz-adv-x="1075" d="M-140 -281l26 131h1073l-26 -131h-1073z" />
<glyph unicode="`" horiz-adv-x="767" d="M437 1512l139 88l166 -375l-79 -51z" />
<glyph unicode="a" horiz-adv-x="825" d="M54 207q0 28 4 71.5t11 92t15 97.5t15 84q21 117 48 213.5t67 165.5t100 106.5t150 37.5q62 0 112 -26.5t73 -69.5h5l15 86h170l-207 -1065h-170l16 82l-4 2q-44 -47 -86 -72t-126 -25q-28 0 -63 6.5t-67.5 29t-55 66.5t-22.5 118zM232 273q0 -56 31.5 -88.5t93.5 -32.5 q37 0 66 17.5t49 43t34.5 55t18.5 52.5l77 392q5 30 5 56q0 52 -21 86q-32 52 -100 53q-39 0 -80 -15.5t-68 -76.5q-15 -31 -36 -114.5t-37 -177.5q-33 -166 -33 -250z" />
<glyph unicode="b" horiz-adv-x="796" d="M0 0l303 1561h171l-119 -600h4q43 57 104.5 84.5t110.5 27.5q99 0 155 -49.5t56 -153.5q0 -47 -7.5 -120t-21.5 -158t-34.5 -175t-44.5 -169q-26 -88 -66.5 -140t-83.5 -79t-85 -34.5t-70 -7.5q-84 0 -121.5 25t-61.5 72l-4 -2l-15 -82h-170zM225 258q3 -30 16 -53.5 t37.5 -38t61.5 -14.5q54 0 88 20.5t58.5 66t43 115t38.5 169.5q17 88 28 152.5t11 112.5q0 61 -26.5 90t-92.5 29q-36 0 -65 -15.5t-51.5 -42t-38 -57.5t-21.5 -63l-84 -409q-4 -21 -4 -42q0 -10 1 -20z" />
<glyph unicode="c" horiz-adv-x="728" d="M43 189q-1 9 -1 19q0 20 3 46q4 39 10.5 85t15.5 93.5t17 88.5q11 53 22 110t23.5 109t25.5 94t28 67q21 41 47 73t61.5 54.5t81.5 35.5t111 13q66 0 120.5 -20.5t89.5 -60t50 -95.5q8 -31 8 -67q0 -29 -5 -60l-181 -23q8 36 8 65q0 43 -19 67q-32 40 -91 40 q-49 0 -80 -26.5t-53 -61.5q-24 -41 -43 -131.5t-47 -219.5q-7 -37 -13 -73.5t-11.5 -69.5t-8.5 -61t-1 -48q6 -47 34 -69.5t84 -22.5q129 0 161 170l168 -31q-32 -141 -109.5 -217.5t-236.5 -76.5q-76 0 -126.5 17t-81 45.5t-45 65.5t-16.5 76z" />
<glyph unicode="d" horiz-adv-x="792" d="M35 207q0 28 4 71.5t10.5 92t15.5 97.5t15 84q21 117 47.5 213.5t66.5 165.5t100.5 106.5t150.5 37.5q62 0 112 -26.5t73 -69.5h4l113 582h169l-303 -1561h-170l15 82l-4 2q-43 -47 -85 -72t-126 -25q-29 0 -64 6.5t-67 29t-54.5 66.5t-22.5 118zM213 273 q0 -56 31.5 -88.5t93.5 -32.5q37 0 66 17.5t49.5 43t34 55t17.5 52.5l78 392q6 31 6 58q0 50 -21 84q-32 52 -102 53q-39 0 -79.5 -15.5t-68.5 -76.5q-15 -31 -35.5 -114.5t-37.5 -177.5q-32 -161 -32 -245v-5z" />
<glyph unicode="e" horiz-adv-x="767" d="M51 273q0 62 9 125.5t20 122.5q19 105 44.5 205.5t70.5 178.5t117.5 125t184.5 47q123 0 194.5 -62.5t71.5 -171.5q0 -103 -34 -179.5t-93.5 -126t-137 -74t-163.5 -24.5q-24 0 -49.5 2t-51.5 6q-6 -36 -13.5 -78t-7.5 -83q0 -58 23.5 -101t92.5 -43q66 0 107.5 43 t51.5 112l179 -26q-31 -127 -115 -206.5t-244 -79.5q-78 0 -127.5 24t-78 62t-40 91t-11.5 111zM260 593q21 -4 41.5 -6t44.5 -2q46 0 91 12t80 40t57.5 71t22.5 107q0 49 -32 80.5t-85 31.5q-86 0 -135.5 -77.5t-84.5 -256.5z" />
<glyph unicode="f" horiz-adv-x="528" d="M-154 -271l31 160h19q33 0 56 5q31 7 49 21t27 33t13 44l181 926h-108l28 142h108l51 260q11 60 34.5 109.5t65.5 84.5t105 48q32 6 70 6q41 0 89 -7l-33 -159q-19 2 -35 2q-25 0 -44 -4q-30 -7 -47.5 -22t-24.5 -36.5t-13 -42.5l-47 -239h151l-28 -142h-150l-185 -948 q-11 -60 -35 -109.5t-66 -84t-106 -47.5q-32 -7 -71 -7t-85 7z" />
<glyph unicode="g" horiz-adv-x="794" d="M-24 -187l164 49q-1 -12 -1 -22q0 -109 121 -109q64 0 107.5 42t55.5 106l48 224h-5q-43 -58 -104 -84.5t-110 -26.5q-99 0 -155 49t-56 152q0 47 7.5 120.5t21.5 158t34.5 174t43.5 171.5q26 88 67 140t84 79t83.5 34t71.5 7q84 0 121.5 -24.5t60.5 -71.5l4 2l16 82h169 l-234 -1186q-12 -64 -39 -121t-71 -97.5t-103.5 -64.5t-137.5 -24q-137 0 -205 64q-60 56 -60 151q0 13 1 26zM219 277q0 -62 26 -90.5t93 -28.5q37 0 66 15.5t51.5 41t37 57t20.5 63.5l84 409q5 22 5 43q0 10 -2 20q-3 30 -15.5 53.5t-37 37t-61.5 13.5q-53 0 -88 -20.5 t-59.5 -65.5t-43 -115t-37.5 -168q-16 -88 -27.5 -153t-11.5 -112z" />
<glyph unicode="h" horiz-adv-x="792" d="M-4 0l303 1561h169l-117 -604h6q56 69 112 92.5t114 23.5q105 0 153.5 -58t48.5 -145q0 -14 -2.5 -32.5t-7.5 -53.5t-15.5 -92.5t-29 -150t-44.5 -224.5t-60 -317h-172q47 240 77.5 388t46 232t21 119t5.5 53q0 49 -26 81t-94 32q-82 0 -123 -53.5t-55 -129.5l-142 -722 h-168z" />
<glyph unicode="i" horiz-adv-x="365" d="M8 0l207 1063h172l-206 -1063h-173zM265 1325l34 171h172l-34 -171h-172z" />
<glyph unicode="j" horiz-adv-x="378" d="M-209 -419l31 161h13q38 0 64 10q30 12 49 36.5t30.5 58.5t19.5 79l226 1137h172l-238 -1203q-11 -51 -29 -102t-51 -90.5t-85.5 -65t-130.5 -25.5h-33.5t-37.5 4zM273 1327l35 171h172l-35 -171h-172z" />
<glyph unicode="k" horiz-adv-x="803" d="M4 0l304 1561h170l-201 -995h4l396 497h193l-326 -411l166 -652h-174l-121 509l-191 -251l-50 -258h-170z" />
<glyph unicode="l" horiz-adv-x="451" d="M58 172q0 17 2 36.5t6 41.5l256 1311h173l-247 -1273q-6 -33 -8 -58q0 -43 22 -62.5t71 -19.5h20l-33 -163h-19q-116 0 -179.5 43t-63.5 144z" />
<glyph unicode="m" horiz-adv-x="1260" d="M17 0l207 1063h170l-22 -106h6q49 55 100 85.5t119 30.5q76 0 121 -31t62 -88q58 54 120.5 86.5t140.5 32.5q98 0 145 -52.5t47 -134.5q0 -12 -1.5 -27.5t-6 -47t-15 -87t-27.5 -150t-45 -234.5t-67 -340h-172q32 166 56 286l41 205t26.5 139t16 87.5t8.5 52t2 28.5 q0 45 -23.5 74t-81.5 29t-105 -37t-65 -105l-146 -759h-170q49 252 78.5 403t45 234t21.5 114t6 45q0 47 -26.5 76t-81.5 29q-62 0 -110.5 -45t-63.5 -121l-142 -735h-168z" />
<glyph unicode="n" horiz-adv-x="786" d="M-10 0l205 1063h170l-21 -106h7q55 69 111.5 92.5t113.5 23.5q105 0 153.5 -58t48.5 -145q0 -14 -2 -32.5t-7.5 -53.5t-16 -92.5t-28.5 -150t-44 -224.5t-60 -317h-173q48 240 77.5 388t46 232t21.5 119t5 53q0 49 -25.5 81t-93.5 32q-82 0 -123 -53.5t-56 -129.5 l-141 -722h-168z" />
<glyph unicode="o" horiz-adv-x="778" d="M56 226q0 55 10 137t24 158q24 131 50 231t65 169q45 80 119 118t171 38q69 0 120.5 -19.5t84.5 -51.5t50.5 -74t17.5 -87q0 -32 -4.5 -76.5t-10.5 -92.5t-15 -95.5t-18 -88.5q-26 -135 -57 -231.5t-76 -158t-112 -89.5t-163 -28q-69 0 -117.5 22.5t-79.5 58t-45 78.5 t-14 82zM217 258q0 -53 34.5 -84.5t94.5 -31.5q54 0 85 25.5t55 70.5q13 27 33.5 102t38.5 164t32 174t14 130q0 56 -37.5 86.5t-80.5 30.5q-49 0 -87 -20.5t-61 -69.5q-10 -19 -30 -88.5t-40 -156.5t-35.5 -177.5t-15.5 -154.5z" />
<glyph unicode="p" horiz-adv-x="782" d="M-99 -417l288 1482h170l-15 -82l5 -2q43 47 85 71.5t125 24.5q28 0 63.5 -6t67.5 -28.5t55 -67t23 -117.5q0 -28 -4.5 -72t-10.5 -92.5t-15 -97t-16 -85.5q-24 -116 -49.5 -212t-65 -165.5t-100 -106.5t-150.5 -37q-62 0 -112 26.5t-73 69.5h-4l-97 -503h-170zM219 353 q-5 -30 -5 -56q0 -52 21 -87q32 -52 100 -52q39 0 80 15.5t69 76.5q15 30 35.5 113.5t36.5 178.5q33 164 33 250q0 55 -31.5 87t-93.5 32q-37 0 -64.5 -16.5t-49 -43t-34.5 -55t-17 -52.5z" />
<glyph unicode="q" horiz-adv-x="810" d="M56 193q0 47 7.5 120.5t21.5 158t34.5 174t44.5 171.5q26 88 66.5 140t83.5 79t84 34t70 7q84 0 122 -24.5t62 -71.5l4 2l15 82h170l-289 -1480h-169l105 518h-4q-43 -58 -105.5 -84.5t-111.5 -26.5q-99 0 -155 49t-56 152zM234 277q0 -62 26 -90.5t93 -28.5 q37 0 65.5 15.5t51 41t38 57t21.5 63.5l84 409q5 22 5 43q0 10 -2 20q-3 30 -16 53.5t-37.5 37t-61.5 13.5q-54 0 -88.5 -20.5t-59 -65.5t-42.5 -115t-38 -168q-17 -88 -28 -153t-11 -112z" />
<glyph unicode="r" horiz-adv-x="552" d="M21 0l207 1063h170l-28 -145h4q49 90 113.5 124.5t146.5 34.5h20l-41 -204q-15 2 -29 3.5t-30 1.5q-92 0 -153 -56.5t-83 -167.5l-127 -654h-170z" />
<glyph unicode="s" horiz-adv-x="728" d="M30 189q0 43 9 84l166 22q-9 -28 -10 -61q0 -37 24 -62.5t87 -25.5q90 0 132 58t42 147q0 43 -28.5 70.5t-98.5 58.5q-62 26 -103 54t-64.5 58t-33.5 63t-10 69q0 76 23.5 140.5t69.5 112t112 74t150 26.5q71 0 119.5 -15t77 -42t41 -63t12.5 -79q0 -37 -12 -90l-167 -25 q8 29 8 60q0 39 -26.5 66t-89.5 27q-47 0 -76 -16t-46.5 -40.5t-23.5 -54t-6 -52.5q0 -37 30 -68t118 -65q109 -41 149 -97.5t40 -137.5q0 -88 -22.5 -162.5t-69 -127t-115 -81.5t-161.5 -29q-135 0 -191 57t-56 147z" />
<glyph unicode="t" horiz-adv-x="485" d="M80 183q0 12 1 26.5t3 26.5l135 695h-112l26 132h112l54 281h172l-54 -281h137l-25 -132h-137l-125 -641q-6 -24 -6 -44q-1 -27 11 -48q20 -36 83 -36h21l-30 -166q-10 -2 -21 -2h-22q-66 0 -109.5 16t-69 43t-35 61t-9.5 69z" />
<glyph unicode="u" horiz-adv-x="792" d="M39 191q0 13 2 32.5t7.5 55t16.5 93.5t28.5 149.5t43 224t60.5 317.5h173q-48 -241 -78 -388.5t-46 -231.5t-21.5 -119.5t-5.5 -52.5q0 -49 26 -81t95 -32q82 0 122.5 53.5t56.5 128.5l141 723h167l-205 -1063h-170l22 105h-8q-55 -69 -111 -92t-115 -23 q-105 0 -153 57.5t-48 143.5z" />
<glyph unicode="v" horiz-adv-x="739" d="M119 1063h178l6 -439q3 -82 3 -176.5t-11 -225.5h6q95 213 179 419t160 422h181q-92 -255 -204 -514t-256 -549h-195z" />
<glyph unicode="w" horiz-adv-x="1182" d="M103 1063h181v-459v-80.5v-74t-1.5 -84t-5.5 -107.5h7q40 84 81 185t80 207.5t75 213t67 199.5h193l-6 -349q0 -94 -3 -209t-14 -247h6q41 97 79 188.5t75 187t77 200t83 229.5h175q-50 -142 -100.5 -275.5t-104.5 -263.5t-114 -259.5t-127 -264.5h-180l-2 523 q0 58 4 119.5t8 122.5h-8q-35 -107 -70 -203t-74 -188.5t-80 -183.5t-86 -190h-183z" />
<glyph unicode="x" horiz-adv-x="698" d="M-76 0l364 542l-148 521h187l79 -351l209 351h198l-353 -521l160 -542h-185l-80 368l-234 -368h-197z" />
<glyph unicode="y" horiz-adv-x="722" d="M-125 -279q64 10 108.5 27.5t77.5 47.5t61 75t59 112l-67 1080h172l13 -466q2 -43 2 -94t-1 -105t-3 -107t-7 -98h7q39 78 81.5 183.5t86.5 222.5t85 237.5t76 226.5h176q-116 -327 -235.5 -614t-254.5 -556q-39 -76 -79 -133t-89.5 -96.5t-114 -62t-152.5 -29.5z" />
<glyph unicode="z" horiz-adv-x="657" d="M-45 0l30 162l520 749h-345l27 149h531l-28 -149l-520 -749h374l-31 -162h-558z" />
<glyph unicode="{" horiz-adv-x="494" d="M71 615l21 109q41 7 73 31.5t55 62.5t39 86t27 100l58 291q17 88 74.5 145.5t162.5 57.5h84l-22 -113h-26q-41 0 -65.5 -13t-38.5 -32.5t-21.5 -44.5t-11.5 -50l-57 -288q-12 -70 -37 -119.5t-51.5 -84.5t-52.5 -53.5t-44 -24.5l-2 -6q15 -6 33.5 -24.5t32.5 -53.5 t19.5 -84t-7.5 -115l-60 -336q-15 -82 -1 -122.5t69 -40.5h31l-24 -115h-58q-109 0 -150 70t-22 176l55 316q21 115 8.5 189.5t-91.5 85.5z" />
<glyph unicode="|" horiz-adv-x="451" d="M162 -342v1910h135v-1910h-135z" />
<glyph unicode="}" horiz-adv-x="494" d="M-76 -222l22 115h17q72 0 99.5 46t44.5 141l51 264q12 70 35.5 119.5t51.5 84.5t53.5 53.5t43.5 24.5l2 6q-14 6 -34 24.5t-34 53t-18 84t9 115.5l57 289q19 99 5.5 143t-69.5 44h-32l24 113h58q109 0 150 -69.5t22 -174.5l-56 -293q-21 -115 -8.5 -189.5t91.5 -85.5 l-21 -110q-43 -6 -74 -30.5t-53.5 -62.5t-38.5 -86t-27 -100l-63 -314q-17 -88 -72 -146.5t-177 -58.5h-59z" />
<glyph unicode="~" d="M33 480q47 64 110 113.5t138 49.5q52 0 87.5 -15t66.5 -33.5t61.5 -33.5t71.5 -15q37 0 69 17.5t73 66.5l94 -58q-43 -75 -107.5 -120.5t-140.5 -45.5q-40 0 -73.5 14.5t-66.5 32.5t-68.5 32t-80.5 14q-41 0 -68 -18.5t-76 -65.5z" />
<glyph unicode="&#xa2;" d="M60 189q-2 26 2 65t11 85t15.5 93.5t16.5 88.5q11 53 22 110t24 109t25.5 94t28.5 67q43 75 104 122.5t175 53.5l43 216h88l-43 -220q107 -17 163.5 -94.5t32.5 -204.5l-181 -23q17 75 4.5 113.5t-49.5 51.5l-150 -770q90 26 115 164l168 -31q-30 -129 -105 -204 t-209 -85l-45 -242h-88l45 239q-60 5 -100 23t-63.5 45t-35.5 62t-14 72zM230 232q10 -76 73 -90l151 774q-31 -9 -55.5 -27.5t-45.5 -53.5q-24 -41 -43.5 -131.5t-47.5 -219.5q-6 -37 -12.5 -73.5t-12 -69.5t-7.5 -61.5t0 -47.5z" />
<glyph unicode="&#xa3;" d="M-51 0l27 152q43 58 79.5 114t65.5 114.5t49.5 124t32.5 144.5h-125l27 141h114q3 12 3 26.5v26.5q0 76 -11 145.5t-11 125.5q0 92 28 166t77.5 126t118 79t150.5 27q148 0 221 -77.5t73 -209.5q0 -51 -8 -100l-168 -19q6 45 7 84q0 69 -29.5 115.5t-117.5 46.5 q-90 0 -132 -64.5t-42 -160.5q0 -48 8 -122t8 -149v-33.5t-2 -32.5h203l-27 -141h-194q-15 -84 -33.5 -150t-43 -123.5t-53.5 -109t-63 -104.5h457l-29 -162h-660z" />
<glyph unicode="&#xa5;" d="M74 372l20 108h244l25 131h-242l19 105h217l-101 780h161l30 -310q9 -81 16.5 -171t7.5 -192h7l322 673h170l-406 -780h221l-20 -105h-246l-27 -131h248l-22 -108h-247l-73 -374h-155l73 374h-242z" />
<glyph unicode="&#xa8;" horiz-adv-x="778" d="M312 1266l34 172h149l-35 -172h-148zM643 1266l34 172h146l-33 -172h-147z" />
<glyph unicode="&#xa9;" horiz-adv-x="1510" d="M99 733q0 162 42 300.5t123.5 239.5t204 158t282.5 57q157 0 277.5 -57t203 -158t125.5 -239.5t43 -300.5t-43 -298t-125.5 -237t-203 -158t-277.5 -57q-162 0 -283.5 57t-203 158t-123.5 237.5t-42 297.5zM222 733q0 -133 34 -249t102 -203.5t167 -138t226 -50.5 q131 0 229.5 50.5t165.5 138t99.5 203.5t32.5 249t-34.5 252t-100.5 207t-164.5 138.5t-227.5 50.5q-136 0 -235 -50.5t-164.5 -138.5t-97.5 -207t-32 -252zM513 503v424q0 115 70.5 177t175.5 62q49 0 94.5 -15.5t79 -45.5t51.5 -73t16 -101l-118 -28q2 69 -31.5 110 t-95.5 41q-54 0 -87.5 -35.5t-33.5 -80.5v-450q0 -47 35 -79.5t86 -32.5q62 0 92.5 35.5t34.5 113.5l118 -22q0 -127 -70 -184t-171 -57q-49 0 -94 15.5t-79 45.5t-53.5 75t-19.5 105z" />
<glyph unicode="&#xab;" horiz-adv-x="932" d="M105 499l308 400h168l-310 -407l146 -393h-161zM454 499l307 400h168l-307 -407l143 -393h-161z" />
<glyph unicode="&#xad;" horiz-adv-x="743" d="M125 544l27 144h558l-29 -144h-556z" />
<glyph unicode="&#xae;" horiz-adv-x="1044" d="M109 1054q0 103 27.5 190t79 150.5t128.5 99t179 35.5q99 0 175 -35.5t128 -99t78.5 -150.5t26.5 -190q0 -101 -26.5 -187.5t-78.5 -149.5t-128 -98.5t-175 -35.5q-101 0 -178.5 35.5t-129 98.5t-79 149t-27.5 188zM197 1058q0 -86 21.5 -158.5t62.5 -124t101.5 -80 t140.5 -28.5q84 0 144 30t98.5 83t57 124.5t18.5 153.5t-20.5 154t-60.5 125.5t-99.5 84.5t-137.5 31q-84 0 -144.5 -31t-101.5 -84.5t-60.5 -126t-19.5 -153.5zM370 761v575h151q157 0 156 -175q0 -49 -16 -89t-59 -63l93 -248h-102l-80 232h-51v-232h-92zM462 1073h51 q41 0 56.5 24.5t15.5 63.5q0 43 -16.5 68t-61.5 25h-45v-181z" />
<glyph unicode="&#xb4;" horiz-adv-x="767" d="M445 1233l218 361l141 -55l-273 -343z" />
<glyph unicode="&#xb8;" horiz-adv-x="926" d="M43 -406l43 77q33 -16 61.5 -21t55.5 -5q43 0 70.5 24.5t27.5 61.5q0 31 -20.5 50t-61.5 19h-16l-29 30l99 207h80l-72 -156q41 -4 68 -15.5t42 -30t20.5 -41t5.5 -44.5q0 -28 -10.5 -61t-35.5 -61t-64.5 -47.5t-97.5 -19.5q-17 0 -70 4.5t-96 28.5z" />
<glyph unicode="&#xbb;" horiz-adv-x="932" d="M28 99l316 410l-159 390h161l159 -400l-310 -400h-167zM376 99l312 410l-155 390h162l159 -400l-310 -400h-168z" />
<glyph unicode="&#x2c6;" horiz-adv-x="794" d="M232 1247l338 300h101l209 -295l-80 -66l-203 209l-296 -209z" />
<glyph unicode="&#x2da;" horiz-adv-x="775" d="M392 1325q0 45 20.5 86.5t52.5 73t75 50t88 18.5q71 0 115.5 -44t44.5 -111q0 -48 -19.5 -90t-53.5 -74t-76 -50t-87 -18q-73 0 -116.5 45t-43.5 114zM484 1338q0 -37 23.5 -60.5t62.5 -23.5q47 0 84.5 36.5t37.5 86.5q0 36 -23 58.5t-60 22.5q-49 0 -87 -35.5t-38 -84.5 z" />
<glyph unicode="&#x2dc;" horiz-adv-x="778" d="M254 1299q37 64 98 113t119 49q33 0 59 -12.5t52.5 -27.5t51 -26.5t52.5 -11.5q30 0 58 18.5t62 61.5l89 -59q-50 -90 -108 -125.5t-106 -35.5q-32 0 -60 11.5t-52.5 26t-48 26t-49.5 11.5q-59 0 -127 -77z" />
<glyph unicode="&#x401;" horiz-adv-x="786" d="M28 0l290 1496h641l-32 -156h-471l-97 -501h409l-31 -158h-408l-103 -527h471l-28 -154h-641zM406 1604l33 173h148l-33 -173h-148zM737 1604l33 173h146l-32 -173h-147z" />
<glyph unicode="&#x402;" horiz-adv-x="995" d="M146 0l260 1342h-254l31 154h776l-30 -154h-350l-80 -413h4q69 47 133.5 63.5t110.5 16.5q88 0 137 -29.5t73 -73.5t26 -94.5t-7 -95.5l-79 -421q-37 -189 -125 -275t-255 -86h-35l29 150q56 4 94 19.5t61.5 44t38.5 74t28 107.5l65 331q6 37 9.5 70t-4 59t-32 42 t-76.5 16q-17 0 -44 -5t-59.5 -17t-67 -30.5t-64.5 -41.5l-146 -753h-168z" />
<glyph unicode="&#x403;" horiz-adv-x="769" d="M28 0l290 1496h607l-33 -158h-436l-259 -1338h-169zM499 1619l353 244l81 -123l-387 -199z" />
<glyph unicode="&#x404;" horiz-adv-x="848" d="M76.5 207.5q-7.5 69.5 9.5 155.5l140 723q14 80 37 156t66 135t111.5 96t176.5 37q173 0 243.5 -84t55.5 -217l-174 -35q11 82 -20.5 130t-112.5 48q-51 0 -87 -23.5t-60.5 -58.5t-39 -78t-22.5 -82l-51 -269h357l-31 -166h-359l-62 -320q-17 -95 7.5 -154t118.5 -59 q158 0 196 182l168 -38q-30 -148 -123.5 -224.5t-250.5 -76.5q-95 0 -157.5 27t-95.5 76.5t-40.5 119z" />
<glyph unicode="&#x405;" horiz-adv-x="846" d="M41 265q0 24 3 48.5t7 49.5l175 22q-4 -24 -7.5 -46.5t-3.5 -45.5q0 -31 7.5 -56.5t25 -47t46 -33.5t71.5 -12q70 0 117 31.5t76 82t41 116t12 135.5t-37.5 108.5t-121.5 77.5q-76 35 -125.5 70t-78.5 71.5t-40 77t-11 88.5q0 248 113.5 378t309.5 130q81 0 139 -22.5 t94.5 -60.5t54 -88.5t17.5 -105.5q0 -27 -3.5 -54.5t-12.5 -56.5l-174 -21q15 48 16 97q0 60 -36 105t-124 45q-69 0 -110.5 -34t-66 -84t-33.5 -103.5t-9 -92.5q0 -28 9 -51.5t30.5 -46t57.5 -44.5t95 -47q131 -55 179.5 -122t48.5 -161q0 -269 -105.5 -423t-333.5 -154 q-160 0 -236 78.5t-76 201.5z" />
<glyph unicode="&#x406;" horiz-adv-x="412" d="M35 0l289 1496h173l-290 -1496h-172z" />
<glyph unicode="&#x407;" horiz-adv-x="412" d="M35 0l289 1496h173l-290 -1496h-172zM191 1652l35 172h148l-34 -172h-149zM523 1652l33 172h148l-35 -172h-146z" />
<glyph unicode="&#x408;" horiz-adv-x="739" d="M-74 127l123 103q25 -39 71 -65.5t91 -26.5q80 0 124.5 49t62.5 131l234 1178h170l-228 -1172q-30 -154 -117 -246.5t-262 -92.5q-92 0 -162 36.5t-107 105.5z" />
<glyph unicode="&#x409;" horiz-adv-x="1281" d="M-97 84q46 28 86.5 65.5t77 98t69 149.5t57.5 223l172 876h566l-116 -601h96q97 0 163.5 -20.5t107.5 -59.5t58.5 -92.5t17.5 -118.5q0 -121 -24.5 -230t-83 -192t-152 -132.5t-230.5 -49.5h-297l260 1338h-247l-114 -587q-39 -207 -77.5 -339.5t-83.5 -219.5 t-103.5 -138.5t-138.5 -96.5zM671 160h121q92 0 150 41.5t91.5 105t46 135t12.5 130.5q0 72 -40.5 117.5t-152.5 45.5h-117z" />
<glyph unicode="&#x40a;" horiz-adv-x="1278" d="M-30 0l288 1496h170l-122 -634h337l122 634h171l-123 -634h96q97 0 163.5 -20.5t107.5 -59t58.5 -92.5t17.5 -118q0 -120 -22.5 -224.5t-77.5 -182t-146.5 -121.5t-229.5 -44h-304l135 704h-338l-135 -704h-168zM675 160h121q92 0 149 37t89.5 93t44 124t11.5 126 q0 71 -40.5 117.5t-152.5 46.5h-117z" />
<glyph unicode="&#x40b;" horiz-adv-x="991" d="M107 0l261 1342h-228l30 154h755l-30 -154h-359l-82 -413h4q69 47 137 63.5t113 16.5q88 0 137.5 -31.5t71 -77.5t21.5 -102t-11 -108l-135 -690h-168l127 660q6 35 6 67t-12 58t-40 42t-79 16q-35 0 -92.5 -20.5t-112.5 -69.5l-146 -753h-168z" />
<glyph unicode="&#x40c;" horiz-adv-x="891" d="M26 0l290 1496h166l-127 -651h78q30 0 66.5 6.5t73 29t72.5 65.5t69 119l185 431h152l-183 -438q-45 -109 -103.5 -183.5t-128.5 -98.5q76 -30 104 -106.5t32 -187.5l13 -482h-157l-8 452q0 75 -18.5 121.5t-48.5 71t-68 32t-77 7.5h-86l-131 -684h-165zM562 1619 l352 244l81 -123l-386 -199z" />
<glyph unicode="&#x40e;" horiz-adv-x="747" d="M-45 -19l28 130h47q72 0 117.5 46t92.5 144l44 91l-112 1102h166l68 -829l9 2l357 829h166l-525 -1182q-58 -127 -108.5 -195t-95.5 -97.5t-88 -34t-86 -6.5h-80zM301 1779h138q-4 -21 2 -45.5t21.5 -45t38 -33t53.5 -12.5q35 0 65 12.5t53 33t37.5 44.5t19.5 46h147 q-11 -48 -37 -95t-67 -84t-96.5 -60.5t-127.5 -23.5q-80 0 -130 26t-79 64.5t-36.5 85t-1.5 87.5z" />
<glyph unicode="&#x40f;" horiz-adv-x="889" d="M28 0l290 1496h170l-260 -1334h322l261 1334h170l-291 -1496h-251l-59 -314h-158l57 314h-251z" />
<glyph unicode="&#x410;" horiz-adv-x="848" d="M-58 0l608 1496h160l32 -1496h-161l-5 333h-333l-132 -333h-169zM301 492h275l-4 355l7 345h-9l-129 -349z" />
<glyph unicode="&#x411;" horiz-adv-x="848" d="M24 0l290 1496h587l-31 -158h-418l-87 -443h115q84 0 146 -24t102 -62.5t59 -89t19 -102.5q0 -120 -23.5 -232t-78.5 -197t-145.5 -136.5t-225.5 -51.5h-309zM224 160h120q91 0 147.5 32t89 87.5t46 131t16.5 161.5q0 29 -8.5 57.5t-31 52.5t-59.5 38.5t-92 14.5h-117z " />
<glyph unicode="&#x412;" horiz-adv-x="889" d="M28 0l290 1496h291q166 0 237.5 -74t71.5 -216q0 -180 -59 -276.5t-178 -139.5l-2 -10q70 -24 97.5 -77.5t27.5 -134.5q0 -30 -2 -60t-8 -67q-37 -230 -145.5 -335.5t-310.5 -105.5h-310zM226 154h152q80 0 130.5 36t81 90.5t42 124t11.5 135.5q0 84 -45.5 129t-154.5 45 h-108zM363 862h115q129 0 203 82t74 232q0 80 -44 122t-143 42h-108z" />
<glyph unicode="&#x413;" horiz-adv-x="769" d="M28 0l290 1496h607l-33 -158h-436l-259 -1338h-169z" />
<glyph unicode="&#x414;" horiz-adv-x="954" d="M-140 -286l80 419l56 15q39 26 68.5 59t55.5 85t48.5 126t46.5 179l204 899h639l-262 -1350h72l-83 -432h-147l57 286h-635l-56 -286h-144zM193 146h437l232 1202h-324l-175 -761q-36 -160 -72.5 -264t-97.5 -177z" />
<glyph unicode="&#x415;" horiz-adv-x="786" d="M28 0l290 1496h641l-32 -156h-471l-97 -501h409l-31 -158h-408l-103 -527h471l-28 -154h-641z" />
<glyph unicode="&#x416;" horiz-adv-x="1393" d="M-51 0l197 482q43 111 102.5 188t149.5 106q-58 24 -90.5 98t-34.5 184l-13 438h148l18 -431q2 -76 23.5 -119t50.5 -65.5t63 -29t65 -6.5h62l127 651h168l-127 -651h63q30 0 66.5 6.5t74 29t74 65.5t68.5 119l185 431h150l-182 -438q-43 -109 -103 -183.5t-129 -98.5 q75 -30 103 -106.5t32 -187.5l13 -482h-159l-8 452q0 75 -19.5 121.5t-48.5 71t-65.5 32t-75.5 7.5h-72l-130 -684h-168l131 684h-71q-39 0 -77.5 -7.5t-75 -32t-72 -71t-67.5 -121.5l-181 -452h-165z" />
<glyph unicode="&#x417;" horiz-adv-x="784" d="M-19 243q0 18 2 39t7 42l168 33q-5 -21 -7.5 -40.5t-2.5 -37.5q0 -75 38 -106t107 -31q35 0 66 13t58.5 46t50 89t39.5 143q13 59 14 111q0 69 -27.5 112t-95.5 43h-97l28 148h101q50 0 91 26t71 74t47 114t17 148q0 43 -15 71.5t-36.5 45t-46.5 22.5t-45 6 q-90 0 -142.5 -63.5t-69.5 -153.5l-166 37q31 166 137.5 251t246.5 85q66 0 122 -14t97.5 -45t65 -81t23.5 -118q0 -39 -6 -104.5t-28.5 -136.5t-63.5 -134.5t-112 -96.5v-6q48 -31 65 -79t17 -104q0 -41 -5.5 -82t-14.5 -81q-21 -107 -53.5 -190.5t-80.5 -139t-116 -84.5 t-158 -29q-129 0 -209.5 63t-80.5 195z" />
<glyph unicode="&#x418;" horiz-adv-x="956" d="M28 0l288 1496h170l-205 -1051l9 -2l594 1053h161l-290 -1496h-170l203 1045h-8l-595 -1045h-157z" />
<glyph unicode="&#x419;" horiz-adv-x="956" d="M28 0l288 1496h170l-205 -1051l9 -2l594 1053h161l-290 -1496h-170l203 1045h-8l-595 -1045h-157zM435 1808h137q-4 -21 2.5 -44.5t21.5 -44t37.5 -33.5t54.5 -13q34 0 64 13t52.5 33.5t38 44t19.5 44.5h147q-10 -47 -36.5 -94.5t-67.5 -83.5t-96.5 -59.5t-127.5 -23.5 q-79 0 -129.5 25.5t-79.5 64t-36.5 84.5t-0.5 87z" />
<glyph unicode="&#x41a;" horiz-adv-x="891" d="M26 0l290 1496h166l-127 -651h78q30 0 66.5 6.5t73 29t72.5 65.5t69 119l185 431h152l-183 -438q-45 -109 -103.5 -183.5t-128.5 -98.5q76 -30 104 -106.5t32 -187.5l13 -482h-157l-8 452q0 75 -18.5 121.5t-48.5 71t-68 32t-77 7.5h-86l-131 -684h-165z" />
<glyph unicode="&#x41b;" horiz-adv-x="893" d="M-94 82q45 28 86 64.5t78 96.5t69.5 150.5t57.5 226.5l173 876h611l-291 -1496h-165l257 1338h-294l-114 -587q-39 -207 -77.5 -339.5t-83.5 -219.5t-103.5 -138.5t-137.5 -96.5z" />
<glyph unicode="&#x41c;" horiz-adv-x="1212" d="M28 0l290 1496h166l86 -455l70 -344h7l211 354l264 445h181l-290 -1496h-170l198 1022h-11l-176 -295l-226 -364h-80l-84 364l-60 295h-8l-199 -1022h-169z" />
<glyph unicode="&#x41d;" horiz-adv-x="917" d="M28 0l290 1496h170l-129 -657h349l129 657h169l-290 -1496h-170l133 690h-348l-134 -690h-169z" />
<glyph unicode="&#x41e;" horiz-adv-x="889" d="M80 273q0 62 12 131l151 774q30 160 122 246t244 86q84 0 143 -23.5t96.5 -64.5t56 -96.5t18.5 -119.5q0 -28 -3.5 -52.5t-8.5 -54.5l-146 -775q-30 -159 -112.5 -249t-237.5 -90q-95 0 -159.5 21.5t-103 60t-55.5 91.5t-17 115zM248 295q0 -62 37 -105.5t121 -43.5 q82 0 127.5 54t59.5 131l147 751q4 26 7.5 51.5t3.5 48.5q0 64 -31.5 113t-117.5 53q-91 0 -131.5 -51.5t-55.5 -120.5l-155 -770l-8 -56t-4 -55z" />
<glyph unicode="&#x41f;" horiz-adv-x="889" d="M28 0l290 1496h663l-291 -1496h-169l259 1348h-322l-261 -1348h-169z" />
<glyph unicode="&#x420;" horiz-adv-x="848" d="M28 0l290 1496h306q166 0 237.5 -71t71.5 -206q0 -127 -21.5 -239t-75.5 -195.5t-146.5 -133t-231.5 -49.5h-144l-117 -602h-169zM344 761h116q90 0 148.5 33t92.5 88.5t47 128.5t13 152q0 78 -41 127.5t-154 49.5h-110z" />
<glyph unicode="&#x421;" horiz-adv-x="848" d="M76 207.5q-10 69.5 8 155.5l140 723q14 80 37 156t66 135t112 96t176 37q93 0 156.5 -26t98.5 -71t44 -108.5t-7 -138.5l-174 -29q21 99 -7.5 157t-118.5 58q-52 0 -87.5 -23.5t-60 -58.5t-39 -78t-22.5 -82l-146 -755q-17 -95 7.5 -154t118.5 -59q84 0 136 54t67 169 l166 -47q-27 -154 -113 -243.5t-251 -89.5q-94 0 -158.5 27t-101.5 76.5t-47 119z" />
<glyph unicode="&#x422;" horiz-adv-x="687" d="M174 0l259 1340h-257l33 156h679l-32 -156h-256l-258 -1340h-168z" />
<glyph unicode="&#x423;" horiz-adv-x="747" d="M-45 -19l28 130h47q72 0 117.5 46t92.5 144l44 91l-112 1102h166l68 -829l9 2l357 829h166l-525 -1182q-58 -127 -108.5 -195t-95.5 -97.5t-88 -34t-86 -6.5h-80z" />
<glyph unicode="&#x424;" horiz-adv-x="1061" d="M101.5 402.5q-7.5 75.5 9.5 153.5l102 504q37 177 151 266t276 89l14 81h171l-14 -81q165 -10 234 -112.5t39 -264.5l-108 -595q-16 -88 -56 -151.5t-97.5 -103.5t-125 -58.5t-138.5 -18.5l-23 -111h-166l24 121q-93 6 -154.5 46t-96 100t-42 135.5zM266 440 q1 -44 15 -78.5t46 -57.5t88 -27l194 977q-90 0 -151.5 -51.5t-79.5 -142.5q-43 -217 -67.5 -341t-35.5 -186q-10 -49 -9 -93zM585 277h2q35 0 71.5 10t67.5 31.5t54.5 58t34.5 87.5l103 568q12 62 4 105t-31 69.5t-53 37t-58 10.5z" />
<glyph unicode="&#x425;" horiz-adv-x="810" d="M-69 0l452 788l-135 710h173l80 -528l289 528h189l-423 -710l154 -788h-174l-93 591l-322 -591h-190z" />
<glyph unicode="&#x426;" horiz-adv-x="909" d="M28 0l290 1496h170l-260 -1334h322l261 1334h170l-261 -1334h78l-88 -446h-151l58 284h-589z" />
<glyph unicode="&#x427;" horiz-adv-x="870" d="M174.5 785.5q-12.5 63.5 6.5 158.5l107 552h164l-108 -548q-24 -114 16 -154.5t137 -40.5q30 0 72 6t83 21l140 716h167l-290 -1496h-168l125 643q-45 -17 -96.5 -23.5t-99.5 -6.5q-64 0 -119 16t-89.5 54.5t-47 102z" />
<glyph unicode="&#x428;" horiz-adv-x="1303" d="M26 0l290 1496h166l-260 -1332h287l261 1332h166l-261 -1332h289l259 1332h168l-290 -1496h-1075z" />
<glyph unicode="&#x429;" horiz-adv-x="1319" d="M26 0l290 1496h166l-260 -1334h287l261 1334h166l-261 -1334h289l259 1334h168l-260 -1334h78l-87 -443h-148l56 281h-1004z" />
<glyph unicode="&#x42a;" horiz-adv-x="1016" d="M150 1338l31 158h466l-116 -601h97q96 0 163 -20.5t108 -59.5t58 -92.5t17 -118.5q0 -121 -23.5 -230t-79.5 -192t-148.5 -132.5t-230.5 -49.5h-305l260 1338h-297zM387 160h120q93 0 151 41.5t91 105t46 135t13 130.5q0 72 -40.5 117.5t-152.5 45.5h-116z" />
<glyph unicode="&#x42b;" horiz-adv-x="1190" d="M30 0l288 1496h170l-116 -601h96q97 0 164 -20.5t107.5 -59.5t58 -92.5t17.5 -118.5q0 -121 -26 -230t-84 -192t-149.5 -132.5t-222.5 -49.5h-303zM228 160h121q92 0 149.5 41.5t91.5 105t46.5 135t12.5 130.5q0 72 -40.5 117.5t-152.5 45.5h-116zM817 0l291 1496h172 l-291 -1496h-172z" />
<glyph unicode="&#x42c;" horiz-adv-x="784" d="M-35 0l289 1496h169l-115 -601h96q97 0 163.5 -20.5t107.5 -59.5t58.5 -92.5t17.5 -118.5q0 -121 -27 -230t-85 -192t-149.5 -132.5t-220.5 -49.5h-304zM164 160h120q92 0 150 41.5t91.5 105t46.5 135t13 130.5q0 72 -41 117.5t-152 45.5h-117z" />
<glyph unicode="&#x42d;" horiz-adv-x="790" d="M-10 267l170 32q-13 -161 128 -161q53 0 90 19t59.5 50t35.5 70t19 78l64 329h-341l33 165h341l54 280q19 101 -11 162t-121 61q-71 0 -120 -39.5t-64 -120.5l-175 33q31 142 133 213.5t248 71.5q107 0 168.5 -36t89.5 -93.5t28 -129t-13 -141.5l-141 -764 q-33 -172 -127.5 -266.5t-262.5 -94.5q-148 0 -222 74t-63 208z" />
<glyph unicode="&#x42e;" horiz-adv-x="1219" d="M30 0l288 1496h170l-127 -657h162l47 251q15 80 39.5 155t68.5 134t112 95t169 36q100 0 162.5 -34.5t94 -91.5t35 -132.5t-13.5 -157.5l-143 -720q-19 -99 -48 -172t-75 -121t-110.5 -72t-154.5 -24q-89 0 -149 28t-94.5 77.5t-42 117t7.5 145.5l64 337h-161l-134 -690 h-167zM590 281.5q1 -36.5 14 -68.5t42 -52.5t81 -20.5q51 0 85.5 21.5t57 55t35.5 76t22 87.5l144 742q6 39 8.5 80t-8.5 74t-41 55.5t-86 22.5q-62 0 -100 -30.5t-59.5 -74t-32 -91.5t-17.5 -81l-140 -726q-6 -33 -5 -69.5z" />
<glyph unicode="&#x42f;" horiz-adv-x="887" d="M-13 0l165 466q15 41 33 81t39 74.5t49 63.5t69 48q-73 32 -100 102t-27 156q0 245 122.5 375t327.5 130h318l-286 -1496h-168l129 669h-88q-28 0 -61 -7.5t-68 -32.5t-68 -70.5t-61 -121.5l-150 -437h-175zM383 1017q0 -90 46.5 -144t134.5 -54h124l100 519h-128 q-133 0 -205 -86t-72 -235z" />
<glyph unicode="&#x430;" horiz-adv-x="825" d="M54 207q0 28 4 71.5t11 92t15 97.5t15 84q21 117 48 213.5t67 165.5t100 106.5t150 37.5q62 0 112 -26.5t73 -69.5h5l15 86h170l-207 -1065h-170l16 82l-4 2q-44 -47 -86 -72t-126 -25q-28 0 -63 6.5t-67.5 29t-55 66.5t-22.5 118zM232 273q0 -56 31.5 -88.5t93.5 -32.5 q37 0 66 17.5t49 43t34.5 55t18.5 52.5l77 392q16 90 -16 142.5t-100 52.5q-39 0 -80 -15.5t-68 -76.5q-15 -31 -36 -114.5t-37 -177.5q-33 -166 -33 -250z" />
<glyph unicode="&#x431;" horiz-adv-x="778" d="M51 226q0 55 9 132t24 151l41 213q19 101 38.5 184t36.5 152q32 140 73 230.5t106.5 145t167.5 79t259 31.5l7 -138q-119 -6 -196 -24.5t-126.5 -57t-80 -101t-53.5 -158.5l-26 -106h4q53 55 105 66t96 11q55 0 97 -19t70 -51.5t42 -72t14 -80.5q0 -64 -13 -151.5 t-30 -169.5q-26 -131 -54 -226.5t-71 -158t-104 -92.5t-152 -30q-82 0 -136.5 21.5t-86.5 57t-46.5 77.5t-14.5 85zM213 258q0 -53 34 -84.5t95 -31.5q54 0 85 25.5t55 70.5q13 27 32 97.5t37.5 152.5t31 162.5t12.5 125.5q0 56 -37 86t-80 30q-50 0 -87.5 -20t-61.5 -70 q-11 -19 -30.5 -83.5t-39 -145.5t-33 -166t-13.5 -149z" />
<glyph unicode="&#x432;" horiz-adv-x="767" d="M39 228q0 30 4 75.5t13 79.5l77 346q13 64 36.5 125.5t63.5 111t101.5 79.5t149.5 30q86 0 138.5 -22.5t81.5 -58t38 -78.5t7 -83q-9 -91 -51 -156.5t-122 -85.5v-4q87 -35 107.5 -93.5t15.5 -134.5q-2 -35 -14 -97t-52 -123t-114 -106.5t-203 -45.5q-125 0 -201 56 t-76 185zM209 245q0 -39 24 -72t98 -33q57 0 97 24.5t64.5 61t34 81t9.5 80.5q0 58 -32.5 95t-105.5 37h-49l29 144h39q71 0 109 42t44 101q2 17 0 36.5t-12 37t-31.5 29.5t-60.5 12q-41 0 -69.5 -18.5t-49 -51t-34.5 -74.5t-23 -87l-68 -333q-5 -17 -9 -52.5t-4 -59.5z" />
<glyph unicode="&#x433;" horiz-adv-x="728" d="M28 205q0 71 13 133t48.5 113.5t95.5 93.5t157 75q66 20 110.5 43t68 46.5t33.5 52t10 59.5q0 39 -22.5 69.5t-89.5 30.5q-50 0 -90 -30.5t-56 -96.5l-168 33q32 117 109 183.5t221 66.5q129 0 197 -60t68 -159q0 -58 -14.5 -110.5t-53.5 -101.5t-104.5 -91t-166.5 -75 q-58 -19 -97 -41t-61.5 -50t-32.5 -64.5t-10 -88.5q0 -49 27.5 -71.5t89.5 -22.5q55 0 94 33.5t56 93.5l164 -35q-31 -121 -109 -185t-222 -64q-133 0 -199 59t-66 161z" />
<glyph unicode="&#x434;" horiz-adv-x="778" d="M39 226q0 92 18.5 198.5t42 200t47 162.5t34.5 91q77 156 254 156q34 0 90 -18t92 -74h5q12 62 19.5 121t7.5 111q0 37 -5.5 75.5t-26 69.5t-58.5 51.5t-105 20.5q-25 0 -51.5 -2t-56.5 -6l-15 133q43 11 80.5 13t74.5 2q90 0 151.5 -26t98 -72t51.5 -109.5t15 -139.5 q0 -92 -24.5 -268t-73.5 -424q-25 -120 -54.5 -214.5t-74 -159t-106 -99t-147.5 -34.5t-140.5 22.5t-87 58t-44 78.5t-11.5 82zM197 258q0 -53 35 -84.5t95 -31.5q53 0 84.5 25.5t54.5 70.5q13 27 33 95.5t36.5 149.5t30 159t13.5 123q0 56 -41 86.5t-84 30.5 q-50 0 -84.5 -20.5t-57.5 -69.5q-11 -19 -29 -82t-37.5 -142.5t-34 -162.5t-14.5 -147z" />
<glyph unicode="&#x435;" horiz-adv-x="767" d="M51 273q0 62 9 125.5t20 122.5q19 105 44.5 205.5t70.5 178.5t117.5 125t184.5 47q123 0 194.5 -62.5t71.5 -171.5q0 -103 -34 -179.5t-93.5 -126t-137 -74t-163.5 -24.5q-24 0 -49.5 2t-51.5 6q-6 -36 -13.5 -78t-7.5 -83q0 -58 23.5 -101t92.5 -43q66 0 107.5 43 t51.5 112l179 -26q-31 -127 -115 -206.5t-244 -79.5q-78 0 -127.5 24t-78 62t-40 91t-11.5 111zM260 593q21 -4 41.5 -6t44.5 -2q46 0 91 12t80 40t57.5 71t22.5 107q0 49 -32 80.5t-85 31.5q-86 0 -135.5 -77.5t-84.5 -256.5z" />
<glyph unicode="&#x436;" horiz-adv-x="1654" d="M6 245q39 4 81 12t79 12q-4 -58 19.5 -98t76.5 -40q60 0 92.5 31t47.5 74q11 31 28 100.5t36 172.5q15 80 24 135t13 91.5t5 60t-1 39.5q-4 45 -28.5 68.5t-76.5 23.5q-39 0 -74 -30.5t-53 -85.5q-37 14 -73 26t-73 27q13 41 35.5 80t58 68t84 46t112.5 17q107 0 173 -48 t75 -126q4 -37 -1.5 -114t-22.5 -163l9 -2q56 98 107.5 214t102.5 227h114l-112 -622h9q81 154 145 272t104 186q33 71 98.5 123.5t179.5 52.5q116 0 183 -63.5t62 -172.5l-147 -35q2 64 -34 93.5t-77 29.5q-58 0 -88.5 -29.5t-42.5 -60.5q-17 -43 -39.5 -135.5 t-50.5 -219.5q-7 -28 -14.5 -66t-13 -75.5t-8.5 -69t-1 -47.5q4 -50 38.5 -71.5t79.5 -21.5q48 0 84.5 41t57.5 101q39 -11 73 -20.5t73 -20.5q-13 -49 -36.5 -93.5t-60 -78.5t-89 -54.5t-119.5 -20.5q-74 0 -122 17t-77 44.5t-42 63.5t-15 75q-4 43 1.5 104.5t22.5 147.5 l-9 -2q-30 -58 -57 -111t-52.5 -104.5t-51.5 -105.5t-52 -114h-120l124 624l-6 2q-33 -62 -54 -103t-41.5 -75.5t-42 -71t-53.5 -88.5q-4 -24 -10.5 -43t-13.5 -38q-33 -97 -99 -159.5t-195 -62.5q-76 0 -126.5 18t-80.5 51.5t-42 82t-10 108.5z" />
<glyph unicode="&#x437;" horiz-adv-x="735" d="M-4 217v23t2 22l170 26q-2 -11 -2 -20.5v-17.5q0 -107 115 -108q33 0 65 12t60.5 38.5t45 71t16.5 108.5q0 47 -21 75.5t-71 28.5h-95l31 148h99q61 0 103 49t42 142q0 45 -27.5 74t-87.5 29q-131 0 -170 -144l-152 34q36 130 129.5 197.5t222.5 67.5q130 0 198 -51.5 t68 -161.5q0 -43 -9.5 -90.5t-30 -91.5t-51.5 -77t-74 -49v-4q45 -17 61 -50.5t16 -80.5q0 -52 -13 -111q-16 -91 -54 -151.5t-90.5 -97t-115 -52t-126.5 -15.5q-117 0 -185.5 53.5t-68.5 173.5z" />
<glyph unicode="&#x438;" horiz-adv-x="792" d="M39 191q0 13 2 32.5t7.5 55t16.5 93.5t28.5 149.5t43 224t60.5 317.5h173q-48 -241 -78 -388.5t-46 -231.5t-21.5 -119.5t-5.5 -52.5q0 -49 26 -81t95 -32q82 0 122.5 53.5t56.5 128.5l141 723h167l-205 -1063h-170l22 105h-8q-55 -69 -111 -92t-115 -23 q-105 0 -153 57.5t-48 143.5z" />
<glyph unicode="&#x439;" horiz-adv-x="792" d="M39 191q0 13 2 32.5t7.5 55t16.5 93.5t28.5 149.5t43 224t60.5 317.5h173q-48 -241 -78 -388.5t-46 -231.5t-21.5 -119.5t-5.5 -52.5q0 -49 26 -81t95 -32q82 0 122.5 53.5t56.5 128.5l141 723h167l-205 -1063h-170l22 105h-8q-55 -69 -111 -92t-115 -23 q-105 0 -153 57.5t-48 143.5zM308 1484h137q-4 -21 2.5 -45t21.5 -44.5t37.5 -33.5t55.5 -13q34 0 64 13t52.5 33.5t37.5 44.5t19 45h147q-10 -48 -36.5 -95t-67.5 -84t-96.5 -60.5t-127.5 -23.5q-79 0 -129.5 26t-79.5 64.5t-36.5 85t-0.5 87.5z" />
<glyph unicode="&#x43a;" horiz-adv-x="790" d="M-13 0l204 1060h168l-88 -460h71q29 0 58.5 4.5t58.5 20t57 47.5t52 83l138 305h160l-139 -307q-37 -78 -83.5 -130.5t-103.5 -70.5q69 -16 90.5 -72.5t27.5 -135.5l23 -344h-156l-16 293q-2 51 -16.5 84.5t-37 50.5t-53 23.5t-64.5 6.5h-95l-89 -458h-167z" />
<glyph unicode="&#x43b;" horiz-adv-x="806" d="M-64 92q47 31 82.5 60t60 65.5t43 87t30.5 123.5l119 635h548l-195 -1063h-168l168 911h-230l-91 -490q-18 -101 -43.5 -173t-61.5 -125.5t-87 -91t-117 -68.5z" />
<glyph unicode="&#x43c;" horiz-adv-x="1092" d="M17 0l207 1063h139l129 -386l56 -164h4l172 240l226 310h160l-207 -1063h-174l133 686h-4l-118 -165l-194 -259h-78l-92 257l-52 150h-4l-129 -669h-174z" />
<glyph unicode="&#x43d;" horiz-adv-x="825" d="M13 0l206 1063h175l-88 -448h279l88 448h174l-207 -1063h-174l90 471h-279l-90 -471h-174z" />
<glyph unicode="&#x43e;" horiz-adv-x="778" d="M56 226q0 55 10 137t24 158q24 131 50 231t65 169q45 80 119 118t171 38q69 0 120.5 -19.5t84.5 -51.5t50.5 -74t17.5 -87q0 -32 -4.5 -76.5t-10.5 -92.5t-15 -95.5t-18 -88.5q-26 -135 -57 -231.5t-76 -158t-112 -89.5t-163 -28q-69 0 -117.5 22.5t-79.5 58t-45 78.5 t-14 82zM217 258q0 -53 34.5 -84.5t94.5 -31.5q54 0 85 25.5t55 70.5q13 27 33.5 102t38.5 164t32 174t14 130q0 56 -37.5 86.5t-80.5 30.5q-49 0 -87 -20.5t-61 -69.5q-10 -19 -30 -88.5t-40 -156.5t-35.5 -177.5t-15.5 -154.5z" />
<glyph unicode="&#x43f;" horiz-adv-x="786" d="M-10 0l205 1063h170l-21 -106h7q55 69 111.5 92.5t113.5 23.5q105 0 153.5 -58t48.5 -145q0 -14 -2 -32.5t-7.5 -53.5t-16 -92.5t-28.5 -150t-44 -224.5t-60 -317h-173q48 240 77.5 388t46 232t21.5 119t5 53q0 49 -25.5 81t-93.5 32q-82 0 -123 -53.5t-56 -129.5 l-141 -722h-168z" />
<glyph unicode="&#x440;" horiz-adv-x="782" d="M-99 -417l288 1482h170l-15 -82l5 -2q43 47 85 71.5t125 24.5q28 0 63.5 -6t67.5 -28.5t55 -67t23 -117.5q0 -28 -4.5 -72t-10.5 -92.5t-15 -97t-16 -85.5q-24 -116 -49.5 -212t-65 -165.5t-100 -106.5t-150.5 -37q-62 0 -112 26.5t-73 69.5h-4l-97 -503h-170zM219 353 q-16 -91 16 -143t100 -52q39 0 80 15.5t69 76.5q15 30 35.5 113.5t36.5 178.5q33 164 33 250q0 55 -31.5 87t-93.5 32q-37 0 -64.5 -16.5t-49 -43t-34.5 -55t-17 -52.5z" />
<glyph unicode="&#x441;" horiz-adv-x="728" d="M43 189q-2 26 2 65t10.5 85t15.5 93.5t17 88.5q11 53 22 110t23.5 109t25.5 94t28 67q21 41 47 73t61.5 54.5t81.5 35.5t111 13q66 0 120.5 -20.5t89.5 -60t50 -95.5t3 -127l-181 -23q21 92 -11 132t-91 40q-49 0 -80 -26.5t-53 -61.5q-24 -41 -43 -131.5t-47 -219.5 q-7 -37 -13 -73.5t-11.5 -69.5t-8.5 -61t-1 -48q6 -47 34 -69.5t84 -22.5q129 0 161 170l168 -31q-32 -141 -109.5 -217.5t-236.5 -76.5q-76 0 -126.5 17t-81 45.5t-45 65.5t-16.5 76z" />
<glyph unicode="&#x442;" horiz-adv-x="1260" d="M17 0l207 1063h170l-22 -106h6q49 55 100 85.5t119 30.5q76 0 121 -31t62 -88q58 54 120.5 86.5t140.5 32.5q98 0 145 -52.5t47 -134.5q0 -12 -1.5 -27.5t-6 -47t-15 -87t-27.5 -150t-45 -234.5t-67 -340h-172q32 166 56 286l41 205t26.5 139t16 87.5t8.5 52t2 28.5 q0 45 -23.5 74t-81.5 29t-105 -37t-65 -105l-146 -759h-170q49 252 78.5 403t45 234t21.5 114t6 45q0 47 -26.5 76t-81.5 29q-62 0 -110.5 -45t-63.5 -121l-142 -735h-168z" />
<glyph unicode="&#x443;" horiz-adv-x="722" d="M-125 -279q64 10 108.5 27.5t77.5 47.5t61 75t59 112l-67 1080h172l13 -466q2 -43 2 -94t-1 -105t-3 -107t-7 -98h7q39 78 81.5 183.5t86.5 222.5t85 237.5t76 226.5h176q-116 -327 -235.5 -614t-254.5 -556q-39 -76 -79 -133t-89.5 -96.5t-114 -62t-152.5 -29.5z" />
<glyph unicode="&#x444;" horiz-adv-x="995" d="M54 222.5q-3 46.5 1.5 96t14.5 102.5t20 100q19 107 48.5 213.5t66.5 170.5q49 86 136 131.5t203 40.5l80 398h168l-80 -398q121 -4 194 -61t83 -156q6 -69 -9.5 -156t-33.5 -183q-24 -125 -55 -237t-87 -175q-45 -51 -112.5 -83t-192.5 -41l-78 -400h-167l77 400 q-115 5 -177 53t-85 104q-12 34 -15 80.5zM220.5 269.5q-1.5 -29.5 3.5 -43.5q10 -37 46 -57.5t91 -26.5l156 781q-60 0 -106 -26.5t-69 -71.5q-10 -19 -22 -53.5t-25.5 -79.5t-26 -97.5t-20.5 -106.5q-6 -36 -13 -76t-10 -76.5t-4.5 -66zM527 142q52 -4 95 15t66 54 q10 15 23 47t25.5 73t24 85t17.5 81q21 103 37 195.5t8 134.5q-6 37 -39 65.5t-103 32.5z" />
<glyph unicode="&#x445;" horiz-adv-x="698" d="M-76 0l364 542l-148 521h187l79 -351l209 351h198l-353 -521l160 -542h-185l-80 368l-234 -368h-197z" />
<glyph unicode="&#x446;" horiz-adv-x="848" d="M39 191q0 13 2 32.5t7.5 55t16.5 93.5t28.5 149.5t43 224t60.5 317.5h173q-48 -241 -78 -388.5t-46 -231.5t-21.5 -119.5t-5.5 -52.5q0 -49 26 -81t95 -32q82 0 122.5 53.5t56.5 128.5l141 723h167l-150 -773q-10 -66 8.5 -121t86.5 -83l-86 -363h-150l59 273 q-43 4 -62.5 44t-23.5 79q-24 -37 -58 -60.5t-71.5 -40t-74 -22.5t-65.5 -6q-105 0 -153 57.5t-48 143.5z" />
<glyph unicode="&#x447;" horiz-adv-x="763" d="M103 649l82 414h168l-74 -368q-28 -146 99 -147q37 0 82 14t88 38l90 463h164l-209 -1063h-165l91 454q-127 -60 -229 -60q-112 0 -162 59.5t-25 195.5z" />
<glyph unicode="&#x448;" horiz-adv-x="1219" d="M39 176q0 13 1 28t5 46t15 87.5t28 151t45.5 234t66.5 340.5h172q-50 -250 -78.5 -398t-45 -232t-21.5 -118t-5 -50q0 -46 23.5 -74.5t81.5 -28.5q57 0 105 36t65 105l146 760h170q-50 -252 -78.5 -404t-45 -234.5t-21.5 -114t-5 -43.5q0 -48 25.5 -76.5t81.5 -28.5 q62 0 110.5 45t63.5 120l142 736h168l-207 -1063h-169l21 105h-7q-49 -56 -99.5 -85.5t-119.5 -29.5q-76 0 -121 30.5t-62 86.5q-57 -53 -119.5 -85t-140.5 -32q-99 0 -145 52t-46 134z" />
<glyph unicode="&#x449;" horiz-adv-x="1274" d="M39 176q0 13 1 28t5 46t15 87.5t28 151t45.5 234t66.5 340.5h172q-50 -250 -78.5 -398t-45 -232t-21.5 -118t-5 -50q0 -46 23.5 -74.5t81.5 -28.5q57 0 105 36t65 105l146 760h170q-50 -252 -78.5 -404t-45 -234.5t-21.5 -114t-5 -43.5q0 -48 25.5 -76.5t81.5 -28.5 q62 0 110.5 45t63.5 120l142 736h168l-150 -773q-13 -66 8 -121t90 -83l-88 -363h-150l58 273q-43 4 -62.5 44t-23.5 79h-5q-49 -56 -119 -92.5t-139 -36.5q-76 0 -121 30.5t-62 86.5q-57 -53 -119.5 -85t-140.5 -32q-99 0 -145 52t-46 134z" />
<glyph unicode="&#x44a;" horiz-adv-x="934" d="M66 911l31 152h436l-81 -420h137q84 0 138.5 -23t88 -60t48 -84.5t14.5 -99.5q0 -43 -14.5 -109.5t-55 -128.5t-117 -106.5t-201.5 -44.5q-69 0 -126.5 23t-95.5 68t-53 112.5t2 160.5l107 560h-258zM388.5 257q3.5 -33 17 -59t39.5 -41t68 -15q97 0 148 65.5t51 155.5 q0 72 -52.5 99.5t-119.5 27.5h-119l-29 -163q-7 -37 -3.5 -70z" />
<glyph unicode="&#x44b;" horiz-adv-x="1085" d="M45 190.5q-15 67.5 2 160.5l138 712h178l-82 -420h138q84 0 139 -23t88 -60t47.5 -84.5t14.5 -99.5q0 -43 -14.5 -109.5t-55.5 -128.5t-117 -106.5t-201 -44.5q-69 0 -127 23t-95.5 68t-52.5 112.5zM218.5 257q3.5 -33 17.5 -59t39.5 -41t68.5 -15q97 0 147.5 65.5 t50.5 155.5q0 72 -52.5 99.5t-119.5 27.5h-118l-30 -163q-7 -37 -3.5 -70zM724 0l207 1063h177l-207 -1063h-177z" />
<glyph unicode="&#x44c;" horiz-adv-x="794" d="M75 190.5q-15 67.5 3 160.5l137 712h179l-82 -420h137q84 0 139 -23t88.5 -60t47 -84.5t13.5 -99.5q0 -43 -13.5 -109.5t-54.5 -128.5t-117 -106.5t-201 -44.5q-70 0 -127.5 23t-95.5 68t-53 112.5zM249 257q3 -33 16.5 -59t39.5 -41t69 -15q96 0 147 65.5t51 155.5 q0 72 -53 99.5t-119 27.5h-119l-29 -163q-6 -37 -3 -70z" />
<glyph unicode="&#x44d;" horiz-adv-x="763" d="M30 254l179 21q-6 -60 21.5 -97.5t89.5 -37.5q66 0 97.5 28.5t46.5 71.5q11 29 27 93.5t28 128.5h-304l30 153h301q30 162 24 220q-10 88 -110 88q-56 0 -97 -37t-55 -106l-175 28q31 119 111 194t234 75q111 0 177.5 -47t79.5 -129q4 -26 2 -67.5t-7.5 -93.5t-13.5 -109 t-17 -110q-12 -86 -32 -165t-37 -147q-26 -101 -100 -162.5t-208 -61.5q-154 0 -226 73t-66 196z" />
<glyph unicode="&#x44e;" horiz-adv-x="1057" d="M-10 0l205 1063h173l-89 -448h136q17 97 40 175t52 135q43 80 115.5 118.5t165.5 38.5q66 0 114 -19.5t80.5 -51.5t48.5 -74t16 -88q0 -32 -4.5 -77t-10.5 -93.5t-14.5 -95.5t-15.5 -88q-27 -136 -55.5 -232.5t-72 -158t-107 -90.5t-158.5 -29q-66 0 -113 22.5t-75.5 58 t-43 78.5t-14.5 82q0 47 6.5 112.5t17.5 132.5h-135l-90 -471h-172zM521 260q0 -55 32 -86.5t90 -31.5q51 0 79.5 25.5t51.5 70.5q12 29 31.5 104t38 164t31.5 174t13 133q0 55 -33.5 85.5t-76.5 30.5q-47 0 -82.5 -20.5t-59.5 -69.5q-10 -21 -29.5 -90.5t-39 -156.5 t-33 -177.5t-13.5 -154.5z" />
<glyph unicode="&#x44f;" horiz-adv-x="782" d="M-26 0l140 333q21 51 48 98t83 70q-64 37 -88 88t-24 115q0 90 30 156.5t82 111.5t123 68t155 23h288l-200 -1063h-168l90 447h-94q-52 0 -94 -34.5t-85 -131.5l-120 -281h-166zM299 716q0 -58 32 -91.5t106 -33.5h125l60 320h-109q-102 0 -158 -53.5t-56 -141.5z" />
<glyph unicode="&#x451;" horiz-adv-x="767" d="M51 273q0 62 9 125.5t20 122.5q19 105 44.5 205.5t70.5 178.5t117.5 125t184.5 47q123 0 194.5 -62.5t71.5 -171.5q0 -103 -34 -179.5t-93.5 -126t-137 -74t-163.5 -24.5q-24 0 -49.5 2t-51.5 6q-6 -36 -13.5 -78t-7.5 -83q0 -58 23.5 -101t92.5 -43q66 0 107.5 43 t51.5 112l179 -26q-31 -127 -115 -206.5t-244 -79.5q-78 0 -127.5 24t-78 62t-40 91t-11.5 111zM260 593q21 -4 41.5 -6t44.5 -2q46 0 91 12t80 40t57.5 71t22.5 107q0 49 -32 80.5t-85 31.5q-86 0 -135.5 -77.5t-84.5 -256.5zM316 1282l35 171h148l-35 -171h-148zM647 1282 l34 171h146l-33 -171h-147z" />
<glyph unicode="&#x452;" horiz-adv-x="792" d="M10 0l238 1237h-102l26 131h101l39 193h170l-39 -193h294l-25 -131h-295l-58 -301h6q37 49 95.5 85.5t132.5 36.5q93 0 138 -43t54 -118q3 -24 1.5 -65.5t-7 -93.5t-13 -108t-15.5 -109q-7 -41 -19 -99.5t-24.5 -117.5t-26.5 -108.5t-25 -74.5q-17 -39 -45 -77t-69 -65.5 t-92.5 -45t-118.5 -17.5h-41l30 155h18q56 0 94.5 27t62.5 74q18 37 35.5 107t31.5 140q10 58 19.5 116t17.5 110t11 92.5t1 64.5q-2 37 -28.5 60.5t-75.5 23.5q-47 0 -81 -19.5t-58 -49t-39 -68.5t-21 -78l-132 -671h-166z" />
<glyph unicode="&#x453;" horiz-adv-x="728" d="M28 205q0 71 13 133t48.5 113.5t95.5 93.5t157 75q66 20 110.5 43t68 46.5t33.5 52t10 59.5q0 39 -22.5 69.5t-89.5 30.5q-50 0 -90 -30.5t-56 -96.5l-168 33q32 117 109 183.5t221 66.5q129 0 197 -60t68 -159q0 -58 -14.5 -110.5t-53.5 -101.5t-104.5 -91t-166.5 -75 q-58 -19 -97 -41t-61.5 -50t-32.5 -64.5t-10 -88.5q0 -49 27.5 -71.5t89.5 -22.5q55 0 94 33.5t56 93.5l164 -35q-31 -121 -109 -185t-222 -64q-133 0 -199 59t-66 161zM413 1233l217 361l142 -55l-273 -343z" />
<glyph unicode="&#x454;" horiz-adv-x="763" d="M58 219q0 9 2 26t12 71t29.5 160.5t56.5 293.5q12 64 40 121t71 98t103.5 64.5t136.5 23.5q140 0 212.5 -79.5t54.5 -199.5l-169 -16q10 58 -19 97t-98 39q-64 0 -107 -41.5t-56 -106.5l-32 -159h300l-27 -155h-303q-13 -74 -21 -113.5t-11 -58.5t-4 -24.5t-1 -7.5 q0 -45 19.5 -75.5t96.5 -30.5q62 0 102 36.5t57 98.5l174 -27q-37 -142 -126 -205.5t-231 -63.5t-202 67t-60 167z" />
<glyph unicode="&#x455;" horiz-adv-x="728" d="M30 189q0 43 9 84l166 22q-9 -28 -10 -61q0 -37 24 -62.5t87 -25.5q90 0 132 58t42 147q0 43 -28.5 70.5t-98.5 58.5q-62 26 -103 54t-64.5 58t-33.5 63t-10 69q0 76 23.5 140.5t69.5 112t112 74t150 26.5q71 0 119.5 -15t77 -42t41 -63t12.5 -79q0 -37 -12 -90l-167 -25 q8 29 8 60q0 39 -26.5 66t-89.5 27q-47 0 -76 -16t-46.5 -40.5t-23.5 -54t-6 -52.5q0 -37 30 -68t118 -65q109 -41 149 -97.5t40 -137.5q0 -88 -22.5 -162.5t-69 -127t-115 -81.5t-161.5 -29q-135 0 -191 57t-56 147z" />
<glyph unicode="&#x456;" horiz-adv-x="365" d="M8 0l207 1063h172l-206 -1063h-173zM265 1325l34 171h172l-34 -171h-172z" />
<glyph unicode="&#x457;" horiz-adv-x="365" d="M8 0l207 1063h172l-206 -1063h-173zM101 1266l34 172h149l-34 -172h-149zM433 1266l33 172h147l-34 -172h-146z" />
<glyph unicode="&#x458;" horiz-adv-x="378" d="M-209 -419l31 161q47 -2 77 10t49 36.5t30.5 58.5t19.5 79l226 1137h172l-238 -1203q-11 -51 -29 -102t-51 -90.5t-85.5 -65t-130.5 -25.5h-33.5t-37.5 4zM273 1327l35 171h172l-35 -171h-172z" />
<glyph unicode="&#x459;" horiz-adv-x="1192" d="M-54 92q48 31 83 60t60 65.5t43 87t32 123.5l117 635h525l-82 -420h138q84 0 139 -23t88 -60t47.5 -84.5t14.5 -99.5q0 -43 -14.5 -109.5t-55 -128.5t-117 -106.5t-201.5 -44.5q-69 0 -126.5 23t-95.5 68t-52.5 112.5t1.5 160.5l107 560h-193l-90 -490q-19 -101 -44 -173 t-61.5 -125.5t-87 -91t-117.5 -68.5zM661.5 257q3.5 -33 17 -59t39.5 -41t70 -15q96 0 146.5 65.5t50.5 155.5q0 72 -52.5 99.5t-119.5 27.5h-118l-30 -163q-7 -37 -3.5 -70z" />
<glyph unicode="&#x45a;" horiz-adv-x="1227" d="M4 0l205 1063h174l-82 -420h265l81 420h178l-81 -420h138q84 0 138.5 -23t87.5 -60t47.5 -84.5t14.5 -99.5q0 -43 -14.5 -109.5t-55 -128.5t-117 -106.5t-201.5 -44.5q-69 0 -127 23t-95 68t-52.5 112.5t1.5 160.5l27 139h-267l-95 -490h-170zM680.5 257 q3.5 -33 17.5 -59t39.5 -41t68.5 -15q97 0 147.5 65.5t50.5 155.5q0 72 -52.5 99.5t-118.5 27.5h-119l-30 -163q-7 -37 -3.5 -70z" />
<glyph unicode="&#x45b;" horiz-adv-x="792" d="M-4 0l232 1196h-99l23 131h102l45 234h169l-47 -234h265l-26 -131h-264l-45 -239h6q56 69 112 92.5t114 23.5q105 0 153.5 -58t48.5 -145q0 -14 -2.5 -32.5t-7.5 -53.5t-15.5 -92.5t-29 -150t-44.5 -224.5t-60 -317h-172q47 240 77.5 388t46 232t21 119t5.5 53 q0 49 -26 81t-94 32q-82 0 -123 -53.5t-55 -129.5l-142 -722h-168z" />
<glyph unicode="&#x45c;" horiz-adv-x="790" d="M-13 0l204 1060h168l-88 -460h71q29 0 58.5 4.5t58.5 20t57 47.5t52 83l138 305h160l-139 -307q-37 -78 -83.5 -130.5t-103.5 -70.5q69 -16 90.5 -72.5t27.5 -135.5l23 -344h-156l-16 293q-2 51 -16.5 84.5t-37 50.5t-53 23.5t-64.5 6.5h-95l-89 -458h-167zM443 1233 l217 361l142 -55l-273 -343z" />
<glyph unicode="&#x45e;" horiz-adv-x="722" d="M-125 -279q64 10 108.5 27.5t77.5 47.5t61 75t59 112l-67 1080h172l13 -466q2 -43 2 -94t-1 -105t-3 -107t-7 -98h7q39 78 81.5 183.5t86.5 222.5t85 237.5t76 226.5h176q-116 -327 -235.5 -614t-254.5 -556q-39 -76 -79 -133t-89.5 -96.5t-114 -62t-152.5 -29.5z M240 1484h138q-4 -21 2.5 -45t21.5 -44.5t37.5 -33.5t55.5 -13q34 0 64 13t52.5 33.5t38 44.5t19.5 45h146q-11 -48 -36.5 -95t-66.5 -84t-97 -60.5t-127 -23.5q-80 0 -130 26t-79 64.5t-37 85t-2 87.5z" />
<glyph unicode="&#x45f;" horiz-adv-x="792" d="M39 191q0 13 2 32.5t7.5 55t16.5 93.5t28.5 149.5t43 224t60.5 317.5h173q-48 -241 -78 -388.5t-46 -231.5t-21.5 -119.5t-5.5 -52.5q0 -49 26 -81t95 -32q82 0 122.5 53.5t56.5 128.5l141 723h167l-205 -1063h-170l22 105h-8q-55 -69 -111 -92t-115 -23 q-105 0 -153 57.5t-48 143.5zM197 -363l72 281l154 39q-6 -28 -17.5 -71.5t-22.5 -90.5t-22.5 -90t-18.5 -68h-145z" />
<glyph unicode="&#x490;" horiz-adv-x="769" d="M28 0l290 1496h454l75 287h155l-110 -445h-436l-259 -1338h-169z" />
<glyph unicode="&#x491;" horiz-adv-x="694" d="M13 0l206 1063h401l57 273h158l-93 -425h-381l-176 -911h-172z" />
<glyph unicode="&#x4d9;" horiz-adv-x="767" d="M54 219q0 103 34.5 180t93 126t136.5 74t164 25q24 0 49 -2t52 -7q6 37 13.5 78.5t7.5 82.5q0 58 -24 101.5t-92 43.5q-66 0 -107 -43t-52 -113l-179 27q31 127 115 206t244 79q78 0 127.5 -23.5t78.5 -62.5t39.5 -91.5t10.5 -109.5q0 -62 -8 -126t-20 -122 q-19 -107 -44.5 -207.5t-71 -177.5t-117.5 -124.5t-184 -47.5q-123 0 -194.5 62t-71.5 172zM219 248q0 -50 33 -81.5t86 -31.5q86 0 134.5 77.5t83.5 255.5q-20 4 -40.5 7t-44.5 3q-45 0 -90.5 -12t-80.5 -40t-58 -71t-23 -107z" />
<glyph unicode="&#x2000;" horiz-adv-x="931" />
<glyph unicode="&#x2001;" horiz-adv-x="1863" />
<glyph unicode="&#x2002;" horiz-adv-x="931" />
<glyph unicode="&#x2003;" horiz-adv-x="1863" />
<glyph unicode="&#x2004;" horiz-adv-x="621" />
<glyph unicode="&#x2005;" horiz-adv-x="465" />
<glyph unicode="&#x2006;" horiz-adv-x="310" />
<glyph unicode="&#x2007;" horiz-adv-x="310" />
<glyph unicode="&#x2008;" horiz-adv-x="232" />
<glyph unicode="&#x2009;" horiz-adv-x="372" />
<glyph unicode="&#x200a;" horiz-adv-x="103" />
<glyph unicode="&#x2010;" horiz-adv-x="743" d="M125 544l27 144h558l-29 -144h-556z" />
<glyph unicode="&#x2011;" horiz-adv-x="743" d="M125 544l27 144h558l-29 -144h-556z" />
<glyph unicode="&#x2012;" horiz-adv-x="743" d="M125 544l27 144h558l-29 -144h-556z" />
<glyph unicode="&#x2013;" horiz-adv-x="1075" d="M51 495l33 161h989l-32 -161h-990z" />
<glyph unicode="&#x2014;" horiz-adv-x="2150" d="M39 495l32 161h2065l-33 -161h-2064z" />
<glyph unicode="&#x2018;" horiz-adv-x="485" d="M260 1058l41 204l146 246h95l-99 -242h45l-41 -208h-187z" />
<glyph unicode="&#x2019;" horiz-adv-x="485" d="M260 1060l99 241h-45l41 209h187l-41 -205l-146 -245h-95z" />
<glyph unicode="&#x201a;" horiz-adv-x="414" d="M-33 -258l99 241h-45l41 208h188l-41 -204l-147 -245h-95z" />
<glyph unicode="&#x201c;" horiz-adv-x="630" d="M217 1058l41 204l146 246h95l-99 -242h45l-41 -208h-187zM468 1058l41 204l147 246h95l-99 -242h45l-41 -208h-188z" />
<glyph unicode="&#x201d;" horiz-adv-x="630" d="M219 1060l99 241h-45l41 209h187l-41 -205l-146 -245h-95zM471 1060l99 241h-45l41 209h187l-41 -205l-146 -245h-95z" />
<glyph unicode="&#x201e;" horiz-adv-x="665" d="M-33 -254l99 241h-45l41 208h188l-41 -203l-147 -246h-95zM234 -254l99 241h-45l41 208h188l-41 -203l-147 -246h-95z" />
<glyph unicode="&#x2026;" horiz-adv-x="1305" d="M26 0l36 195h188l-37 -195h-187zM474 0l35 195h188l-37 -195h-186zM925 0l36 195h188l-37 -195h-187z" />
<glyph unicode="&#x202f;" horiz-adv-x="372" />
<glyph unicode="&#x2039;" horiz-adv-x="571" d="M71 499l309 400h168l-316 -411l160 -389h-162z" />
<glyph unicode="&#x203a;" horiz-adv-x="571" d="M28 99l316 410l-159 390h161l159 -400l-310 -400h-167z" />
<glyph unicode="&#x205f;" horiz-adv-x="465" />
<glyph unicode="&#x20ac;" d="M54 581l22 107h70l26 131h-71l20 106h70l33 161q14 80 37 156t66 135t111.5 96t176.5 37q170 0 242 -81t59 -212l-176 -41q11 82 -20.5 129t-112.5 47q-52 0 -87.5 -23.5t-60 -58.5t-39 -78t-22.5 -82l-37 -185h314l-19 -106h-314l-26 -131h314l-21 -107h-314l-43 -226 q-17 -95 7.5 -154t118.5 -59q152 0 194 172l165 -41q-30 -142 -122 -215t-247 -73q-95 0 -157.5 27t-95.5 76.5t-41 119t10 155.5l41 218h-71z" />
<glyph unicode="&#x2122;" horiz-adv-x="1440" d="M80 1372v124h496v-124h-180v-725h-136v725h-180zM663 645v849h133l202 -511l196 511h131v-849h-135l-4 488h-6l-131 -335h-113l-134 339h-6v-492h-133z" />
<glyph unicode="&#xe000;" horiz-adv-x="1063" d="M0 0v1065h1065v-1065h-1065z" />
</font>
</defs>
</svg>
